<svg xmlns="http://www.w3.org/2000/svg" xmlns:xlink="http://www.w3.org/1999/xlink" viewBox="0 0 1382.13 758.28"><defs><style>.cls-1{fill:none;}.cls-2{isolation:isolate;}.cls-3{fill:url(#linear-gradient);}.cls-4{clip-path:url(#clip-path);}.cls-5,.cls-6,.cls-64,.cls-68{mix-blend-mode:screen;}.cls-5,.cls-6{opacity:0.2;}.cls-5{fill:url(#linear-gradient-2);}.cls-6{fill:url(#linear-gradient-3);}.cls-63,.cls-67,.cls-7,.cls-71,.cls-74,.cls-8{mix-blend-mode:multiply;}.cls-64,.cls-68,.cls-7,.cls-8{opacity:0.5;}.cls-7{fill:url(#linear-gradient-4);}.cls-8{fill:url(#linear-gradient-5);}.cls-9{fill:url(#linear-gradient-6);}.cls-10{fill:url(#linear-gradient-7);}.cls-11{fill:url(#linear-gradient-8);}.cls-12{fill:url(#linear-gradient-9);}.cls-13{fill:url(#linear-gradient-10);}.cls-14{fill:url(#linear-gradient-11);}.cls-15{fill:url(#linear-gradient-12);}.cls-16{fill:url(#linear-gradient-13);}.cls-17{fill:url(#linear-gradient-14);}.cls-18{fill:url(#linear-gradient-15);}.cls-19{fill:url(#linear-gradient-16);}.cls-20{fill:url(#linear-gradient-17);}.cls-21{fill:url(#linear-gradient-18);}.cls-22{fill:url(#linear-gradient-19);}.cls-23{fill:url(#linear-gradient-20);}.cls-24{fill:url(#linear-gradient-21);}.cls-25{fill:url(#linear-gradient-22);}.cls-26{fill:url(#linear-gradient-23);}.cls-27{fill:url(#linear-gradient-24);}.cls-28{fill:url(#linear-gradient-25);}.cls-29{fill:url(#linear-gradient-26);}.cls-30{fill:url(#linear-gradient-27);}.cls-31{fill:url(#linear-gradient-28);}.cls-32{fill:url(#linear-gradient-29);}.cls-33{fill:url(#linear-gradient-30);}.cls-34{fill:url(#linear-gradient-31);}.cls-35{fill:url(#linear-gradient-32);}.cls-36{fill:url(#linear-gradient-33);}.cls-37{fill:url(#linear-gradient-34);}.cls-38{fill:url(#linear-gradient-35);}.cls-39{fill:url(#linear-gradient-36);}.cls-40{fill:url(#linear-gradient-37);}.cls-41{fill:url(#linear-gradient-38);}.cls-42{fill:url(#linear-gradient-39);}.cls-43{fill:url(#linear-gradient-40);}.cls-44{fill:url(#linear-gradient-41);}.cls-45{fill:url(#linear-gradient-42);}.cls-46{fill:url(#linear-gradient-43);}.cls-47{fill:url(#linear-gradient-44);}.cls-48{fill:url(#linear-gradient-45);}.cls-49{fill:url(#linear-gradient-46);}.cls-50{fill:url(#linear-gradient-47);}.cls-51{fill:url(#linear-gradient-48);}.cls-52{fill:url(#linear-gradient-49);}.cls-53{fill:url(#linear-gradient-50);}.cls-54{fill:url(#linear-gradient-51);}.cls-55{fill:url(#linear-gradient-52);}.cls-56{fill:url(#linear-gradient-53);}.cls-57{fill:url(#linear-gradient-54);}.cls-58{fill:url(#linear-gradient-55);}.cls-59{fill:url(#linear-gradient-56);}.cls-60{fill:url(#linear-gradient-57);}.cls-61{fill:url(#linear-gradient-58);}.cls-62{fill:url(#linear-gradient-59);}.cls-63,.cls-67,.cls-71{opacity:0.4;}.cls-63{fill:url(#linear-gradient-60);}.cls-64{fill:url(#linear-gradient-61);}.cls-65{fill:url(#linear-gradient-62);}.cls-66{fill:url(#linear-gradient-63);}.cls-67{fill:url(#linear-gradient-64);}.cls-68{fill:url(#linear-gradient-65);}.cls-69{fill:url(#linear-gradient-66);}.cls-70{fill:url(#linear-gradient-67);}.cls-71{fill:url(#linear-gradient-68);}.cls-72{fill:url(#linear-gradient-69);}.cls-73{fill:url(#linear-gradient-70);}.cls-74,.cls-93,.cls-95{opacity:0.1;}.cls-75{fill:url(#linear-gradient-71);}.cls-76{fill:url(#linear-gradient-72);}.cls-77{fill:url(#linear-gradient-73);}.cls-78{fill:url(#linear-gradient-74);}.cls-79{fill:url(#linear-gradient-75);}.cls-80{fill:url(#linear-gradient-76);}.cls-81{fill:url(#linear-gradient-77);}.cls-82{fill:url(#linear-gradient-78);}.cls-83{fill:url(#linear-gradient-79);}.cls-84{fill:url(#linear-gradient-80);}.cls-85{fill:url(#linear-gradient-81);}.cls-86{fill:url(#linear-gradient-82);}.cls-87{fill:url(#linear-gradient-83);}.cls-88{fill:url(#linear-gradient-84);}.cls-89{fill:url(#linear-gradient-85);}.cls-90{fill:url(#linear-gradient-86);}.cls-91{fill:url(#linear-gradient-87);}.cls-92{fill:url(#linear-gradient-88);}.cls-94{fill:url(#linear-gradient-89);}.cls-96{fill:url(#linear-gradient-90);}.cls-97{fill:url(#linear-gradient-91);}.cls-98{fill:url(#linear-gradient-92);}.cls-99{fill:url(#linear-gradient-93);}.cls-100{fill:url(#linear-gradient-94);}.cls-101{fill:url(#linear-gradient-95);}.cls-102{fill:url(#linear-gradient-96);}.cls-103{fill:url(#linear-gradient-97);}.cls-104{fill:url(#linear-gradient-98);}.cls-105{fill:url(#linear-gradient-99);}.cls-106{fill:url(#linear-gradient-100);}.cls-107{fill:url(#linear-gradient-101);}.cls-108{fill:url(#linear-gradient-102);}.cls-109{fill:url(#linear-gradient-103);}.cls-110{fill:url(#linear-gradient-104);}.cls-111{fill:url(#linear-gradient-105);}.cls-112{fill:url(#linear-gradient-106);}.cls-113{fill:url(#linear-gradient-107);}.cls-114{fill:url(#linear-gradient-108);}.cls-115{fill:url(#linear-gradient-109);}.cls-116{fill:url(#linear-gradient-110);}.cls-117{fill:url(#linear-gradient-111);}.cls-118{fill:url(#linear-gradient-112);}.cls-119{fill:url(#linear-gradient-113);}.cls-120{fill:url(#linear-gradient-114);}.cls-121{fill:url(#linear-gradient-115);}.cls-122{fill:url(#linear-gradient-116);}.cls-123{fill:url(#linear-gradient-117);}.cls-124{fill:url(#linear-gradient-118);}.cls-125{fill:url(#linear-gradient-119);}.cls-126{fill:url(#linear-gradient-120);}.cls-127{fill:url(#linear-gradient-121);}.cls-128{fill:url(#linear-gradient-122);}.cls-129{fill:url(#linear-gradient-123);}.cls-130{fill:url(#linear-gradient-124);}.cls-131{fill:url(#linear-gradient-125);}.cls-132{fill:url(#linear-gradient-126);}.cls-133{fill:url(#linear-gradient-127);}.cls-134{fill:url(#linear-gradient-128);}.cls-135{fill:url(#linear-gradient-129);}.cls-136{fill:url(#linear-gradient-130);}.cls-137{fill:url(#linear-gradient-131);}</style><linearGradient id="linear-gradient" x1="718.96" y1="653.44" x2="718.96" y2="153.44" gradientUnits="userSpaceOnUse"><stop offset="0" stop-color="#ddf5f0"/><stop offset="1" stop-color="#87d6c4"/></linearGradient><clipPath id="clip-path" transform="translate(218.96 153.44)"><rect class="cls-1" width="1000" height="500"/></clipPath><linearGradient id="linear-gradient-2" x1="414.88" y1="59.44" x2="1095.23" y2="59.44" xlink:href="#linear-gradient"/><linearGradient id="linear-gradient-3" x1="-210.14" y1="89.44" x2="470.22" y2="89.44" gradientTransform="matrix(0.98, -0.21, 0.21, 0.98, -15.91, 50.73)" xlink:href="#linear-gradient"/><linearGradient id="linear-gradient-4" x1="243.17" y1="374.75" x2="1262.75" y2="374.75" xlink:href="#linear-gradient"/><linearGradient id="linear-gradient-5" x1="674.13" y1="374.75" x2="1262.75" y2="374.75" xlink:href="#linear-gradient"/><linearGradient id="linear-gradient-6" x1="-43.52" y1="316.73" x2="1045.61" y2="316.73" gradientUnits="userSpaceOnUse"><stop offset="0" stop-color="#999051"/><stop offset="1" stop-color="#c7bc6b"/></linearGradient><linearGradient id="linear-gradient-7" x1="356.96" y1="464.01" x2="356.96" y2="389.01" gradientUnits="userSpaceOnUse"><stop offset="0" stop-color="#243022"/><stop offset="1" stop-color="#66875e"/></linearGradient><linearGradient id="linear-gradient-8" x1="377.41" y1="464.01" x2="377.41" y2="403.44" xlink:href="#linear-gradient-7"/><linearGradient id="linear-gradient-9" x1="430.14" y1="464.01" x2="430.14" y2="409.24" xlink:href="#linear-gradient-7"/><linearGradient id="linear-gradient-10" x1="445.08" y1="464.01" x2="445.08" y2="419.78" xlink:href="#linear-gradient-7"/><linearGradient id="linear-gradient-11" x1="461.17" y1="464.01" x2="461.17" y2="424.01" xlink:href="#linear-gradient-7"/><linearGradient id="linear-gradient-12" x1="472.08" y1="464.01" x2="472.08" y2="431.71" xlink:href="#linear-gradient-7"/><linearGradient id="linear-gradient-13" x1="523.29" y1="464.01" x2="523.29" y2="415.8" xlink:href="#linear-gradient-7"/><linearGradient id="linear-gradient-14" x1="536.44" y1="464.01" x2="536.44" y2="425.08" xlink:href="#linear-gradient-7"/><linearGradient id="linear-gradient-15" x1="550.6" y1="464.01" x2="550.6" y2="428.8" xlink:href="#linear-gradient-7"/><linearGradient id="linear-gradient-16" x1="560.21" y1="464.01" x2="560.21" y2="435.58" xlink:href="#linear-gradient-7"/><linearGradient id="linear-gradient-17" x1="490.47" y1="464.01" x2="490.47" y2="409.24" xlink:href="#linear-gradient-7"/><linearGradient id="linear-gradient-18" x1="505.41" y1="464.01" x2="505.41" y2="419.78" xlink:href="#linear-gradient-7"/><linearGradient id="linear-gradient-19" x1="572.8" y1="464.01" x2="572.8" y2="409.24" xlink:href="#linear-gradient-7"/><linearGradient id="linear-gradient-20" x1="587.73" y1="464.01" x2="587.73" y2="419.78" xlink:href="#linear-gradient-7"/><linearGradient id="linear-gradient-21" x1="603.83" y1="464.01" x2="603.83" y2="424.01" xlink:href="#linear-gradient-7"/><linearGradient id="linear-gradient-22" x1="614.74" y1="464.01" x2="614.74" y2="431.71" xlink:href="#linear-gradient-7"/><linearGradient id="linear-gradient-23" x1="649.73" y1="464.01" x2="649.73" y2="433.02" xlink:href="#linear-gradient-7"/><linearGradient id="linear-gradient-24" x1="658.18" y1="464.01" x2="658.18" y2="438.98" xlink:href="#linear-gradient-7"/><linearGradient id="linear-gradient-25" x1="667.28" y1="464.01" x2="667.28" y2="441.38" xlink:href="#linear-gradient-7"/><linearGradient id="linear-gradient-26" x1="673.46" y1="464.01" x2="673.46" y2="445.73" xlink:href="#linear-gradient-7"/><linearGradient id="linear-gradient-27" x1="628.63" y1="464.01" x2="628.63" y2="428.8" xlink:href="#linear-gradient-7"/><linearGradient id="linear-gradient-28" x1="638.23" y1="464.01" x2="638.23" y2="435.58" xlink:href="#linear-gradient-7"/><linearGradient id="linear-gradient-29" x1="334.14" y1="310.57" x2="334.14" y2="260.04" gradientTransform="matrix(-1, 0, 0, 1, 1547.76, 153.44)" xlink:href="#linear-gradient-7"/><linearGradient id="linear-gradient-30" x1="347.92" y1="310.57" x2="347.92" y2="269.76" gradientTransform="matrix(-1, 0, 0, 1, 1547.76, 153.44)" xlink:href="#linear-gradient-7"/><linearGradient id="linear-gradient-31" x1="383.44" y1="310.57" x2="383.44" y2="273.67" gradientTransform="matrix(-1, 0, 0, 1, 1547.76, 153.44)" xlink:href="#linear-gradient-7"/><linearGradient id="linear-gradient-32" x1="393.51" y1="310.57" x2="393.51" y2="280.77" gradientTransform="matrix(-1, 0, 0, 1, 1547.76, 153.44)" xlink:href="#linear-gradient-7"/><linearGradient id="linear-gradient-33" x1="406.29" y1="310.57" x2="406.29" y2="270.57" gradientTransform="matrix(-1, 0, 0, 1, 1547.76, 153.44)" xlink:href="#linear-gradient-7"/><linearGradient id="linear-gradient-34" x1="417.2" y1="310.57" x2="417.2" y2="278.26" gradientTransform="matrix(-1, 0, 0, 1, 1547.76, 153.44)" xlink:href="#linear-gradient-7"/><linearGradient id="linear-gradient-35" x1="468.4" y1="310.57" x2="468.4" y2="262.36" gradientTransform="matrix(-1, 0, 0, 1, 1547.76, 153.44)" xlink:href="#linear-gradient-7"/><linearGradient id="linear-gradient-36" x1="481.55" y1="310.57" x2="481.55" y2="271.64" gradientTransform="matrix(-1, 0, 0, 1, 1547.76, 153.44)" xlink:href="#linear-gradient-7"/><linearGradient id="linear-gradient-37" x1="495.72" y1="310.57" x2="495.72" y2="275.36" gradientTransform="matrix(-1, 0, 0, 1, 1547.76, 153.44)" xlink:href="#linear-gradient-7"/><linearGradient id="linear-gradient-38" x1="505.32" y1="310.57" x2="505.32" y2="282.14" gradientTransform="matrix(-1, 0, 0, 1, 1547.76, 153.44)" xlink:href="#linear-gradient-7"/><linearGradient id="linear-gradient-39" x1="435.58" y1="310.57" x2="435.58" y2="255.79" gradientTransform="matrix(-1, 0, 0, 1, 1547.76, 153.44)" xlink:href="#linear-gradient-7"/><linearGradient id="linear-gradient-40" x1="450.52" y1="310.57" x2="450.52" y2="266.34" gradientTransform="matrix(-1, 0, 0, 1, 1547.76, 153.44)" xlink:href="#linear-gradient-7"/><linearGradient id="linear-gradient-41" x1="517.91" y1="310.57" x2="517.91" y2="255.79" gradientTransform="matrix(-1, 0, 0, 1, 1547.76, 153.44)" xlink:href="#linear-gradient-7"/><linearGradient id="linear-gradient-42" x1="532.85" y1="310.57" x2="532.85" y2="266.34" gradientTransform="matrix(-1, 0, 0, 1, 1547.76, 153.44)" xlink:href="#linear-gradient-7"/><linearGradient id="linear-gradient-43" x1="548.95" y1="310.57" x2="548.95" y2="270.57" gradientTransform="matrix(-1, 0, 0, 1, 1547.76, 153.44)" xlink:href="#linear-gradient-7"/><linearGradient id="linear-gradient-44" x1="559.85" y1="310.57" x2="559.85" y2="278.26" gradientTransform="matrix(-1, 0, 0, 1, 1547.76, 153.44)" xlink:href="#linear-gradient-7"/><linearGradient id="linear-gradient-45" x1="594.84" y1="310.57" x2="594.84" y2="279.58" gradientTransform="matrix(-1, 0, 0, 1, 1547.76, 153.44)" xlink:href="#linear-gradient-7"/><linearGradient id="linear-gradient-46" x1="603.29" y1="310.57" x2="603.29" y2="285.54" gradientTransform="matrix(-1, 0, 0, 1, 1547.76, 153.44)" xlink:href="#linear-gradient-7"/><linearGradient id="linear-gradient-47" x1="612.4" y1="310.57" x2="612.4" y2="287.94" gradientTransform="matrix(-1, 0, 0, 1, 1547.76, 153.44)" xlink:href="#linear-gradient-7"/><linearGradient id="linear-gradient-48" x1="618.57" y1="310.57" x2="618.57" y2="292.29" gradientTransform="matrix(-1, 0, 0, 1, 1547.76, 153.44)" xlink:href="#linear-gradient-7"/><linearGradient id="linear-gradient-49" x1="573.75" y1="310.57" x2="573.75" y2="275.36" gradientTransform="matrix(-1, 0, 0, 1, 1547.76, 153.44)" xlink:href="#linear-gradient-7"/><linearGradient id="linear-gradient-50" x1="583.35" y1="310.57" x2="583.35" y2="282.14" gradientTransform="matrix(-1, 0, 0, 1, 1547.76, 153.44)" xlink:href="#linear-gradient-7"/><linearGradient id="linear-gradient-51" x1="697.2" y1="574.99" x2="697.2" y2="464.39" gradientUnits="userSpaceOnUse"><stop offset="0" stop-color="#ddf5f4"/><stop offset="1" stop-color="#87d6d1"/></linearGradient><linearGradient id="linear-gradient-52" x1="181.96" y1="369.31" x2="330.04" y2="369.31" gradientUnits="userSpaceOnUse"><stop offset="0" stop-color="#85b07a"/><stop offset="1" stop-color="#43593e"/></linearGradient><linearGradient id="linear-gradient-53" x1="75.55" y1="377.59" x2="223.63" y2="377.59" xlink:href="#linear-gradient-52"/><linearGradient id="linear-gradient-54" x1="413.46" y1="349.2" x2="524.83" y2="349.2" gradientTransform="matrix(-1, -0.03, -0.03, 1, 1139.19, 18.72)" xlink:href="#linear-gradient-52"/><linearGradient id="linear-gradient-55" x1="336.34" y1="366.7" x2="447.71" y2="366.7" gradientTransform="matrix(-0.98, -0.2, -0.2, 0.98, 1194.62, 82.99)" xlink:href="#linear-gradient-52"/><linearGradient id="linear-gradient-56" x1="326.43" y1="347.6" x2="467.27" y2="347.6" xlink:href="#linear-gradient-52"/><linearGradient id="linear-gradient-57" x1="411.53" y1="353.31" x2="552.37" y2="353.31" gradientTransform="translate(53.75 -63.15) rotate(7.96)" xlink:href="#linear-gradient-52"/><linearGradient id="linear-gradient-58" x1="628.41" y1="362.12" x2="628.41" y2="297.25" gradientTransform="translate(235.21 128.58) rotate(2.46)" gradientUnits="userSpaceOnUse"><stop offset="0" stop-color="#995b48"/><stop offset="1" stop-color="#c7795f"/></linearGradient><linearGradient id="linear-gradient-59" x1="551.18" y1="362.11" x2="551.18" y2="297.25" gradientTransform="translate(235.21 128.58) rotate(2.46)" gradientUnits="userSpaceOnUse"><stop offset="0" stop-color="#734436"/><stop offset="1" stop-color="#a1614c"/></linearGradient><linearGradient id="linear-gradient-60" x1="558.96" y1="362.11" x2="558.96" y2="297.25" xlink:href="#linear-gradient-59"/><linearGradient id="linear-gradient-61" x1="621.1" y1="341.04" x2="621.1" y2="297.25" xlink:href="#linear-gradient-58"/><linearGradient id="linear-gradient-62" x1="753.24" y1="354.87" x2="753.24" y2="304.8" gradientTransform="matrix(-1, 0.04, 0.04, 1, 1310.19, 128.58)" gradientUnits="userSpaceOnUse"><stop offset="0" stop-color="#996e48"/><stop offset="1" stop-color="#c7925f"/></linearGradient><linearGradient id="linear-gradient-63" x1="693.63" y1="354.87" x2="693.63" y2="304.8" gradientTransform="matrix(-1, 0.04, 0.04, 1, 1310.19, 128.58)" gradientUnits="userSpaceOnUse"><stop offset="0" stop-color="#735236"/><stop offset="1" stop-color="#a1754c"/></linearGradient><linearGradient id="linear-gradient-64" x1="699.63" y1="354.87" x2="699.63" y2="304.8" xlink:href="#linear-gradient-63"/><linearGradient id="linear-gradient-65" x1="747.6" y1="338.6" x2="747.6" y2="304.8" xlink:href="#linear-gradient-62"/><linearGradient id="linear-gradient-66" x1="-109.9" y1="443.39" x2="1102.49" y2="443.39" xlink:href="#linear-gradient-6"/><linearGradient id="linear-gradient-67" x1="289.32" y1="407.6" x2="1138.51" y2="407.6" xlink:href="#linear-gradient-6"/><linearGradient id="linear-gradient-68" x1="-218.96" y1="478.15" x2="1163.17" y2="478.15" xlink:href="#linear-gradient-6"/><linearGradient id="linear-gradient-69" x1="-59.15" y1="-1.08" x2="315.09" y2="-1.08" xlink:href="#linear-gradient-6"/><linearGradient id="linear-gradient-70" x1="309.14" y1="554.61" x2="309.14" y2="44.96" gradientUnits="userSpaceOnUse"><stop offset="0" stop-color="#52402d"/><stop offset="1" stop-color="#6e563d"/></linearGradient><linearGradient id="linear-gradient-71" x1="118.67" y1="44.19" x2="118.67" y2="7.74" xlink:href="#linear-gradient-70"/><linearGradient id="linear-gradient-72" x1="55.62" y1="146.1" x2="55.62" y2="136.13" xlink:href="#linear-gradient-70"/><linearGradient id="linear-gradient-73" x1="73.55" y1="74.09" x2="73.55" y2="20.32" xlink:href="#linear-gradient-70"/><linearGradient id="linear-gradient-74" x1="112.99" y1="51.11" x2="112.99" y2="11.04" xlink:href="#linear-gradient-70"/><linearGradient id="linear-gradient-75" x1="61.31" y1="303.82" x2="61.31" y2="263.93" xlink:href="#linear-gradient-70"/><linearGradient id="linear-gradient-76" x1="37.68" y1="400.42" x2="37.68" y2="203.47" xlink:href="#linear-gradient-70"/><linearGradient id="linear-gradient-77" x1="80.99" y1="-33.65" x2="80.99" y2="-76.11" xlink:href="#linear-gradient-70"/><linearGradient id="linear-gradient-78" x1="58.02" y1="127.39" x2="58.02" y2="117.66" xlink:href="#linear-gradient-70"/><linearGradient id="linear-gradient-79" x1="68.81" y1="58.3" x2="68.81" y2="-34.08" xlink:href="#linear-gradient-70"/><linearGradient id="linear-gradient-80" x1="44.57" y1="268.26" x2="44.57" y2="170.51" xlink:href="#linear-gradient-70"/><linearGradient id="linear-gradient-81" x1="62.09" y1="96.22" x2="62.09" y2="88.3" xlink:href="#linear-gradient-70"/><linearGradient id="linear-gradient-82" x1="136.02" y1="25.15" x2="136.02" y2="-3.89" xlink:href="#linear-gradient-70"/><linearGradient id="linear-gradient-83" x1="5.28" y1="395.89" x2="5.28" y2="357.96" xlink:href="#linear-gradient-70"/><linearGradient id="linear-gradient-84" x1="83.31" y1="-50.1" x2="83.31" y2="-97.69" xlink:href="#linear-gradient-70"/><linearGradient id="linear-gradient-85" x1="32.15" y1="185.98" x2="32.15" y2="164.43" xlink:href="#linear-gradient-70"/><linearGradient id="linear-gradient-86" x1="40.38" y1="204.02" x2="40.38" y2="155.56" xlink:href="#linear-gradient-70"/><linearGradient id="linear-gradient-87" x1="61.97" y1="45.32" x2="61.97" y2="-9.07" xlink:href="#linear-gradient-70"/><linearGradient id="linear-gradient-88" x1="78.33" y1="-7.82" x2="78.33" y2="-57.83" xlink:href="#linear-gradient-70"/><linearGradient id="linear-gradient-89" x1="116.72" y1="-25.61" x2="242.86" y2="-25.61" xlink:href="#linear-gradient-6"/><linearGradient id="linear-gradient-90" x1="357.74" y1="447.45" x2="457.72" y2="447.45" gradientTransform="translate(-168.21 -28.57) rotate(9.44)" gradientUnits="userSpaceOnUse"><stop offset="0" stop-color="#787654"/><stop offset="1" stop-color="#cfcc90"/></linearGradient><linearGradient id="linear-gradient-91" x1="63.18" y1="368.04" x2="119.96" y2="368.04" gradientTransform="matrix(1, 0, 0, 1, 0, 0)" xlink:href="#linear-gradient-90"/><linearGradient id="linear-gradient-92" x1="3.31" y1="343.08" x2="86.89" y2="343.08" xlink:href="#linear-gradient-52"/><linearGradient id="linear-gradient-93" x1="34.6" y1="429.96" x2="173.94" y2="429.96" gradientUnits="userSpaceOnUse"><stop offset="0" stop-color="#5b7854"/><stop offset="1" stop-color="#9dcf90"/></linearGradient><linearGradient id="linear-gradient-94" x1="38.73" y1="475.14" x2="189.5" y2="475.14" gradientUnits="userSpaceOnUse"><stop offset="0" stop-color="#4a4a3e"/><stop offset="1" stop-color="#5f5f4f"/></linearGradient><linearGradient id="linear-gradient-95" x1="23.74" y1="519.98" x2="23.74" y2="343.08" gradientUnits="userSpaceOnUse"><stop offset="0" stop-color="#575749"/><stop offset="1" stop-color="#6c6c5a"/></linearGradient><linearGradient id="linear-gradient-96" x1="654.56" y1="9.5" x2="1099.26" y2="9.5" xlink:href="#linear-gradient-6"/><linearGradient id="linear-gradient-97" x1="458.64" y1="422.78" x2="458.64" y2="-53.18" gradientTransform="matrix(-1, 0, 0, 1, 1585.62, 153.44)" xlink:href="#linear-gradient-70"/><linearGradient id="linear-gradient-98" x1="485.25" y1="89.4" x2="485.25" y2="55.36" gradientTransform="matrix(-1, 0, 0, 1, 1366.67, 0)" xlink:href="#linear-gradient-70"/><linearGradient id="linear-gradient-99" x1="426.36" y1="184.58" x2="426.36" y2="175.26" gradientTransform="matrix(-1, 0, 0, 1, 1366.67, 0)" xlink:href="#linear-gradient-70"/><linearGradient id="linear-gradient-100" x1="443.11" y1="117.32" x2="443.11" y2="67.11" gradientTransform="matrix(-1, 0, 0, 1, 1366.67, 0)" xlink:href="#linear-gradient-70"/><linearGradient id="linear-gradient-101" x1="479.94" y1="95.86" x2="479.94" y2="58.44" gradientTransform="matrix(-1, 0, 0, 1, 1366.67, 0)" xlink:href="#linear-gradient-70"/><linearGradient id="linear-gradient-102" x1="431.68" y1="331.87" x2="431.68" y2="294.61" gradientTransform="matrix(-1, 0, 0, 1, 1366.67, 0)" xlink:href="#linear-gradient-70"/><linearGradient id="linear-gradient-103" x1="409.61" y1="422.08" x2="409.61" y2="238.15" gradientTransform="matrix(-1, 0, 0, 1, 1366.67, 0)" xlink:href="#linear-gradient-70"/><linearGradient id="linear-gradient-104" x1="450.05" y1="16.7" x2="450.05" y2="-22.95" gradientTransform="matrix(-1, 0, 0, 1, 1366.67, 0)" xlink:href="#linear-gradient-70"/><linearGradient id="linear-gradient-105" x1="428.61" y1="167.1" x2="428.61" y2="158.01" gradientTransform="matrix(-1, 0, 0, 1, 1366.67, 0)" xlink:href="#linear-gradient-70"/><linearGradient id="linear-gradient-106" x1="438.68" y1="102.58" x2="438.68" y2="16.3" gradientTransform="matrix(-1, 0, 0, 1, 1366.67, 0)" xlink:href="#linear-gradient-70"/><linearGradient id="linear-gradient-107" x1="416.04" y1="298.66" x2="416.04" y2="207.37" gradientTransform="matrix(-1, 0, 0, 1, 1366.67, 0)" xlink:href="#linear-gradient-70"/><linearGradient id="linear-gradient-108" x1="432.41" y1="138" x2="432.41" y2="130.6" gradientTransform="matrix(-1, 0, 0, 1, 1366.67, 0)" xlink:href="#linear-gradient-70"/><linearGradient id="linear-gradient-109" x1="501.45" y1="71.62" x2="501.45" y2="44.5" gradientTransform="matrix(-1, 0, 0, 1, 1366.67, 0)" xlink:href="#linear-gradient-70"/><linearGradient id="linear-gradient-110" x1="379.35" y1="417.85" x2="379.35" y2="382.43" gradientTransform="matrix(-1, 0, 0, 1, 1366.67, 0)" xlink:href="#linear-gradient-70"/><linearGradient id="linear-gradient-111" x1="452.23" y1="1.34" x2="452.23" y2="-43.1" gradientTransform="matrix(-1, 0, 0, 1, 1366.67, 0)" xlink:href="#linear-gradient-70"/><linearGradient id="linear-gradient-112" x1="404.45" y1="221.82" x2="404.45" y2="201.69" gradientTransform="matrix(-1, 0, 0, 1, 1366.67, 0)" xlink:href="#linear-gradient-70"/><linearGradient id="linear-gradient-113" x1="412.13" y1="238.66" x2="412.13" y2="193.41" gradientTransform="matrix(-1, 0, 0, 1, 1366.67, 0)" xlink:href="#linear-gradient-70"/><linearGradient id="linear-gradient-114" x1="432.3" y1="90.46" x2="432.3" y2="39.66" gradientTransform="matrix(-1, 0, 0, 1, 1366.67, 0)" xlink:href="#linear-gradient-70"/><linearGradient id="linear-gradient-115" x1="447.57" y1="40.83" x2="447.57" y2="-5.88" gradientTransform="matrix(-1, 0, 0, 1, 1366.67, 0)" xlink:href="#linear-gradient-70"/><linearGradient id="linear-gradient-116" x1="778.59" y1="6.76" x2="892.52" y2="6.76" xlink:href="#linear-gradient-6"/><linearGradient id="linear-gradient-117" x1="202.86" y1="458.23" x2="318.38" y2="458.23" gradientTransform="matrix(-0.84, 0.54, 0.54, 0.84, 891.91, -136.66)" xlink:href="#linear-gradient-52"/><linearGradient id="linear-gradient-118" x1="66.32" y1="410.1" x2="166.29" y2="410.1" gradientTransform="matrix(-1, 0, 0, 1, 979.91, 0)" xlink:href="#linear-gradient-90"/><linearGradient id="linear-gradient-119" x1="107.52" y1="512.45" x2="207.5" y2="512.45" gradientTransform="matrix(-0.89, 0.45, 0.45, 0.89, 732.9, -74.06)" xlink:href="#linear-gradient-90"/><linearGradient id="linear-gradient-120" x1="827.79" y1="747.83" x2="827.79" y2="576.11" gradientTransform="translate(-169.1 585.65) rotate(-43.92)" xlink:href="#linear-gradient-93"/><linearGradient id="linear-gradient-121" x1="106.32" y1="498.93" x2="257.09" y2="498.93" gradientTransform="matrix(-1, 0, 0, 1, 1061, 0)" xlink:href="#linear-gradient-94"/><linearGradient id="linear-gradient-122" x1="155.94" y1="525.48" x2="155.94" y2="321.04" gradientTransform="matrix(-1, 0, 0, 1, 1120.24, 0)" xlink:href="#linear-gradient-95"/><linearGradient id="linear-gradient-123" x1="477.5" y1="462.41" x2="577.47" y2="462.41" gradientTransform="translate(-310.54 107.37) rotate(-9.65)" xlink:href="#linear-gradient-90"/><linearGradient id="linear-gradient-124" x1="281.24" y1="515.28" x2="396.76" y2="515.28" gradientTransform="translate(166.48 -107.37) rotate(19.55)" xlink:href="#linear-gradient-52"/><linearGradient id="linear-gradient-125" x1="688.16" y1="289.24" x2="688.16" y2="254.03" gradientTransform="matrix(-1, 0, 0, 1, 1547.76, 153.44)" gradientUnits="userSpaceOnUse"><stop offset="0" stop-color="#877f48"/><stop offset="1" stop-color="#b5ab61"/></linearGradient><linearGradient id="linear-gradient-126" x1="853.58" y1="285.45" x2="853.58" y2="267.84" xlink:href="#linear-gradient-125"/><linearGradient id="linear-gradient-127" x1="783.18" y1="276.44" x2="783.18" y2="256.23" xlink:href="#linear-gradient-125"/><linearGradient id="linear-gradient-128" x1="905.16" y1="272.46" x2="905.16" y2="252.26" xlink:href="#linear-gradient-125"/><linearGradient id="linear-gradient-129" x1="423.79" y1="404.43" x2="539.31" y2="404.43" gradientTransform="matrix(-0.99, 0.15, 0.15, 0.99, 1117.27, 23.15)" xlink:href="#linear-gradient-52"/><linearGradient id="linear-gradient-130" x1="280.63" y1="483.58" x2="380.6" y2="483.58" gradientTransform="matrix(-0.91, -0.4, -0.4, 0.91, 1141.58, 183.91)" xlink:href="#linear-gradient-90"/><linearGradient id="linear-gradient-131" x1="630.91" y1="402.56" x2="738.55" y2="402.56" gradientTransform="matrix(-0.94, -0.34, -0.34, 0.94, 1279, 355.37)" xlink:href="#linear-gradient-52"/></defs><g class="cls-2"><g id="Capa_2" data-name="Capa 2"><g id="OBJECTS"><rect class="cls-3" x="218.96" y="153.44" width="1000" height="500"/><g class="cls-4"><path class="cls-5" d="M1095.23,110.94a4260.85,4260.85,0,0,0-680.35,3.56c56.62-11.56,118.21-20.1,176-19.63-1.52-3.68-1.6-8.27,1.15-11.16a10.64,10.64,0,0,1,11-2.63c.32-5,6.8-8.27,11.64-7.13C613,49.51,633,24.94,654.47,13.21S703.06,1.81,725.32,12c10.94,5,21.07,12.56,27.15,23S760,58.88,754.35,69.5c1.85-4.24,8.53-6.08,13.09-5.3a10.76,10.76,0,0,1,8.66,9.52c9.16-5.84,24.53-1.77,29.37,8C818.83,68.82,833.54,56.5,850,47.89S886.3,35.54,903.6,42.2,934,67.77,930,85.89c4.5-6.52,11.79-7.72,19.64-6.65a22,22,0,0,1,17.45,14.33C1013.43,99.92,1048.92,104.59,1095.23,110.94Z" transform="translate(218.96 153.44)"/><path class="cls-6" d="M473.22,92.18A4261.59,4261.59,0,0,0-191.92,235.27c53-22.93,111.56-43.92,168.21-55.32-2.24-3.3-3.26-7.77-1.17-11.16A10.65,10.65,0,0,1-14.65,164c-.7-4.93,5-9.49,9.93-9.37C-11.38,131,3.14,102.87,21.78,87S67,65.85,90.89,71.3c11.73,2.67,23.19,8,31.28,16.88s12.29,21.84,8.92,33.39c.94-4.52,7.1-7.7,11.72-7.87a10.75,10.75,0,0,1,10.43,7.54c7.77-7.6,23.65-6.77,30.38,1.76,10.44-15.32,22.3-30.41,36.61-42.2s33-19.54,51.33-16.58,35,18.81,34.83,37.34c3.07-7.3,9.95-10,17.86-10.53a22,22,0,0,1,20,10.44C390.9,98.18,426.59,95.47,473.22,92.18Z" transform="translate(218.96 153.44)"/><polygon class="cls-7" points="314.97 400.58 746.81 285.1 1262.75 464.39 984.85 454 649.83 422.8 243.17 464.39 314.97 400.58"/><polygon class="cls-8" points="674.13 379.22 780.99 332.16 804.55 354.61 777.43 379.22 745.82 431.74 984.85 454 1262.75 464.39 746.81 285.1 780.99 312.68 674.13 379.22"/><path class="cls-9" d="M-28.87,296.43c214.54-21.28,431.12-42.6,646.71-28.56,142.73,9.29,285.14,34.05,427.77,23.94-5.76,19.2-40.83,32.84-66.43,36.77s-52,.68-78-1.64c-156-14-313.2,5.76-469.72,15.52S-124.69,420.87-28.87,296.43Z" transform="translate(218.96 153.44)"/><polygon class="cls-10" points="356.96 389.01 339.72 464.01 374.2 464.01 356.96 389.01"/><polygon class="cls-11" points="377.41 403.44 363.49 464.01 391.34 464.01 377.41 403.44"/><polygon class="cls-12" points="430.14 409.24 417.55 464.01 442.73 464.01 430.14 409.24"/><polygon class="cls-13" points="445.08 419.78 434.91 464.01 455.24 464.01 445.08 419.78"/><polygon class="cls-14" points="461.17 424.01 451.98 464.01 470.37 464.01 461.17 424.01"/><polygon class="cls-15" points="472.08 431.71 464.66 464.01 479.51 464.01 472.08 431.71"/><polygon class="cls-16" points="523.29 415.8 512.21 464.01 534.37 464.01 523.29 415.8"/><polygon class="cls-17" points="536.44 425.08 527.49 464.01 545.39 464.01 536.44 425.08"/><polygon class="cls-18" points="550.6 428.8 542.51 464.01 558.7 464.01 550.6 428.8"/><polygon class="cls-19" points="560.21 435.58 553.67 464.01 566.74 464.01 560.21 435.58"/><polygon class="cls-20" points="490.47 409.24 477.88 464.01 503.06 464.01 490.47 409.24"/><polygon class="cls-21" points="505.41 419.78 495.24 464.01 515.58 464.01 505.41 419.78"/><polygon class="cls-22" points="572.8 409.24 560.21 464.01 585.39 464.01 572.8 409.24"/><polygon class="cls-23" points="587.74 419.78 577.57 464.01 597.9 464.01 587.74 419.78"/><polygon class="cls-24" points="603.83 424.01 594.64 464.01 613.02 464.01 603.83 424.01"/><polygon class="cls-25" points="614.74 431.71 607.32 464.01 622.16 464.01 614.74 431.71"/><polygon class="cls-26" points="649.73 433.02 642.6 464.01 656.85 464.01 649.73 433.02"/><polygon class="cls-27" points="658.18 438.99 652.43 464.01 663.93 464.01 658.18 438.99"/><polygon class="cls-28" points="667.28 441.38 662.08 464.01 672.49 464.01 667.28 441.38"/><polygon class="cls-29" points="673.46 445.73 669.26 464.01 677.66 464.01 673.46 445.73"/><polygon class="cls-30" points="628.63 428.8 620.54 464.01 636.72 464.01 628.63 428.8"/><polygon class="cls-31" points="638.23 435.58 631.7 464.01 644.77 464.01 638.23 435.58"/><polygon class="cls-32" points="1213.62 413.48 1225.23 464.01 1202 464.01 1213.62 413.48"/><polygon class="cls-33" points="1199.84 423.2 1209.21 464.01 1190.46 464.01 1199.84 423.2"/><polygon class="cls-34" points="1164.32 427.11 1172.8 464.01 1155.83 464.01 1164.32 427.11"/><polygon class="cls-35" points="1154.25 434.21 1161.1 464.01 1147.4 464.01 1154.25 434.21"/><polygon class="cls-36" points="1141.47 424.01 1150.67 464.01 1132.28 464.01 1141.47 424.01"/><polygon class="cls-37" points="1130.56 431.71 1137.99 464.01 1123.14 464.01 1130.56 431.71"/><polygon class="cls-38" points="1079.36 415.8 1090.44 464.01 1068.27 464.01 1079.36 415.8"/><polygon class="cls-39" points="1066.21 425.08 1075.16 464.01 1057.26 464.01 1066.21 425.08"/><polygon class="cls-40" points="1052.04 428.8 1060.13 464.01 1043.95 464.01 1052.04 428.8"/><polygon class="cls-41" points="1042.44 435.58 1048.97 464.01 1035.9 464.01 1042.44 435.58"/><polygon class="cls-42" points="1112.17 409.24 1124.76 464.01 1099.58 464.01 1112.17 409.24"/><polygon class="cls-43" points="1097.24 419.78 1107.4 464.01 1087.07 464.01 1097.24 419.78"/><polygon class="cls-44" points="1029.85 409.24 1042.44 464.01 1017.26 464.01 1029.85 409.24"/><polygon class="cls-45" points="1014.91 419.78 1025.08 464.01 1004.74 464.01 1014.91 419.78"/><polygon class="cls-46" points="998.81 424.01 1008.01 464.01 989.62 464.01 998.81 424.01"/><polygon class="cls-47" points="987.9 431.71 995.33 464.01 980.48 464.01 987.9 431.71"/><polygon class="cls-48" points="952.92 433.02 960.04 464.01 945.79 464.01 952.92 433.02"/><polygon class="cls-49" points="944.47 438.99 950.22 464.01 938.72 464.01 944.47 438.99"/><polygon class="cls-50" points="935.36 441.38 940.56 464.01 930.16 464.01 935.36 441.38"/><polygon class="cls-51" points="929.19 445.73 933.39 464.01 924.99 464.01 929.19 445.73"/><polygon class="cls-52" points="974.01 428.8 982.11 464.01 965.92 464.01 974.01 428.8"/><polygon class="cls-53" points="964.41 435.58 970.95 464.01 957.88 464.01 964.41 435.58"/><rect class="cls-54" x="175.44" y="464.39" width="1043.52" height="110.6"/><path class="cls-55" d="M187.33,342.9a19.56,19.56,0,0,1,31.34,3.67c3-2.82,5.74-2.95,9.62-1.69a11.65,11.65,0,0,1,7.7,8.76c1.1-2.36,4.41-2.81,6.94-2.2a5.88,5.88,0,0,1,4.32,5.77c6.28-6.45,19.16-5.81,24.73,1.26,1.42-3.46,6.52-4.18,10.25-4.43a10.3,10.3,0,0,1,9.37,5c6.31-5.1,14.4-6.14,22.15-3.69A25.14,25.14,0,0,1,330,372.14c-7.45-2.95-15.34-1.08-22.68,2.16s-13.79,8.12-20.59,12.36c-13.91,8.66-29.76,14.72-46.14,15.26s-33.29-4.85-44.91-16.41S176.17,354.9,187.33,342.9Z" transform="translate(218.96 153.44)"/><path class="cls-56" d="M80.92,351.18a19.57,19.57,0,0,1,31.34,3.66c2.95-2.81,5.73-2.94,9.62-1.69a11.66,11.66,0,0,1,7.7,8.76c1.1-2.36,4.4-2.81,6.93-2.19a5.86,5.86,0,0,1,4.33,5.76c6.27-6.45,19.15-5.8,24.72,1.26,1.42-3.45,6.53-4.17,10.25-4.42a10.27,10.27,0,0,1,9.37,5c6.32-5.11,14.41-6.14,22.15-3.69a25.16,25.16,0,0,1,16.3,16.77c-7.45-3-15.35-1.07-22.68,2.16s-13.79,8.13-20.6,12.36c-13.91,8.66-29.76,14.72-46.14,15.26s-33.29-4.84-44.9-16.4S69.76,363.18,80.92,351.18Z" transform="translate(218.96 153.44)"/><path class="cls-57" d="M711.26,334.41a14.71,14.71,0,0,0-23.65,2c-2.15-2.18-4.24-2.35-7.19-1.5a8.76,8.76,0,0,0-6,6.4c-.77-1.8-3.24-2.22-5.16-1.82a4.41,4.41,0,0,0-3.39,4.23c-4.56-5-14.26-4.83-18.62.34-1-2.63-4.8-3.3-7.6-3.57a7.71,7.71,0,0,0-7.16,3.54c-4.62-4-10.68-5-16.56-3.32a18.92,18.92,0,0,0-12.66,12.22c5.67-2,11.56-.44,17,2.17s10.17,6.44,15.18,9.79c10.25,6.85,22,11.79,34.31,12.6s25.14-2.84,34.16-11.24S719.36,343.7,711.26,334.41Z" transform="translate(218.96 153.44)"/><path class="cls-58" d="M792,355.15a14.71,14.71,0,0,0-23.65-2c-1.76-2.52-3.79-3-6.84-2.68a8.72,8.72,0,0,0-7,5.3c-.46-1.9-2.83-2.73-4.79-2.65a4.4,4.4,0,0,0-4,3.6c-3.66-5.7-13.25-7.15-18.41-2.78-.53-2.75-4.19-4.05-6.89-4.79a7.74,7.74,0,0,0-7.66,2.29c-3.89-4.71-9.7-6.68-15.77-6a18.9,18.9,0,0,0-14.53,9.92c5.94-1.06,11.48,1.5,16.4,5s8.95,8.05,13.33,12.19c9,8.46,19.73,15.3,31.72,18.15s25.26,1.41,35.56-5.37S798.46,365.66,792,355.15Z" transform="translate(218.96 153.44)"/><path class="cls-59" d="M463.82,332.52a30.39,30.39,0,0,0-5.61-4.46,10.27,10.27,0,0,0-6.9-1.4,6.25,6.25,0,0,0-5,4.59c-1.94-1-3.66-2.39-5.84-2.35s-4.51,1.58-4.62,3.77c-1.5-.92-3.16-2.24-4.77-1.53a5.54,5.54,0,0,0-3.15,4,10,10,0,0,0-7.86-3.09,9.7,9.7,0,0,0-7.32,3.93c-4.5-2.79-9.22-5.45-14.47-6.11a22.08,22.08,0,0,0-15.19,3.27c-4.36,3-7.34,8.17-7.05,13.46-.78-1.37-3.1-1.54-4.66-1.37A4.16,4.16,0,0,0,368,348c-2.83-2.18-8.27-1.37-9.82,1.85A22.25,22.25,0,0,0,337.74,351a23.46,23.46,0,0,0-11.31,17.72c35.48-7.12,72.85-7.55,109-5.86,4.45.2,8.94.48,13.34-.21s8.78-2.44,11.82-5.71C466.66,350.37,470.35,338.6,463.82,332.52Z" transform="translate(218.96 153.44)"/><path class="cls-60" d="M550.59,347.81a30.39,30.39,0,0,0-4.94-5.19,10.25,10.25,0,0,0-6.64-2.34,6.23,6.23,0,0,0-5.57,3.86c-1.77-1.28-3.29-2.88-5.46-3.14s-4.69.94-5.09,3.09c-1.36-1.12-2.82-2.66-4.51-2.18a5.57,5.57,0,0,0-3.68,3.5,10,10,0,0,0-7.35-4.16,9.72,9.72,0,0,0-7.79,2.88c-4.07-3.38-8.38-6.67-13.49-8.06a22.11,22.11,0,0,0-15.49,1.15c-4.74,2.36-8.41,7.07-8.85,12.35-.58-1.46-2.85-1.95-4.42-2a4.17,4.17,0,0,0-3.79,2.33c-2.51-2.56-8-2.51-10,.47a22.23,22.23,0,0,0-20.36-1.75,23.48,23.48,0,0,0-13.66,16c36.12-2.13,73.19,2.62,108.76,9.29a66.6,66.6,0,0,0,13.24,1.64c4.45-.08,9-1.2,12.49-4C550.94,365.88,556.21,354.74,550.59,347.81Z" transform="translate(218.96 153.44)"/><polygon class="cls-61" points="882.23 453.96 881.71 453.94 773.36 449.27 771.33 496.56 815.52 516.02 833.97 516.81 924.38 520.7 882.23 453.96"/><polygon class="cls-62" points="815.52 516.02 725.11 512.13 772.85 449.25 773.36 449.27 815.52 516.02"/><polygon class="cls-63" points="773.36 449.27 770.57 514.08 785.61 514.73 773.36 449.27"/><polygon class="cls-64" points="879.42 455.6 910.69 499.02 910.69 499.02 882.23 453.96 881.71 453.94 773.36 449.27 836.61 455.51 879.42 455.6"/><polygon class="cls-65" points="546.07 466.56 546.47 466.54 630.09 462.94 631.66 499.44 597.55 514.46 583.32 515.07 513.53 518.08 546.07 466.56"/><polygon class="cls-66" points="597.55 514.46 667.34 511.46 630.49 462.93 630.09 462.94 597.55 514.46"/><polygon class="cls-67" points="630.09 462.94 632.25 512.97 620.64 513.47 630.09 462.94"/><polygon class="cls-68" points="548.23 467.82 524.1 501.34 524.1 501.34 546.07 466.56 546.47 466.54 630.09 462.94 581.28 467.76 548.23 467.82"/><path class="cls-69" d="M-92.33,409.79c377.65-66.11,790.09-74.24,1175.82-23.19-12.9,24.18,14.49,52.72,18.33,77.78s-8.25,54.85-51.14,65.15c-25.35,6.08-54.67,3.58-82,1-115.4-11-231.33-21.76-348.48-23.77-208.61-3.56-419.79,20.67-624.73-.47-32.87-3.39-67.73-8.74-88.57-22.75C-123.76,462.91-105.61,435.14-92.33,409.79Z" transform="translate(218.96 153.44)"/><path class="cls-70" d="M1133.47,400.75a7453.62,7453.62,0,0,0-844.15-16.12c283.38,6.36,570.34,23.44,849.19,51.2C1136.69,424.22,1135.29,412.35,1133.47,400.75Z" transform="translate(218.96 153.44)"/><path class="cls-71" d="M-219,469.49c449.38-63.55,925.17-73,1382.13-27.52C1051,469.14,971.54,532.19,849.64,541.43c-58.59,4.44-117.45-4.39-175.07-11.63C454.08,502.12,223.68,497.18-.25,515.34c-30,2.43-60.42,5.27-90.39,2.89s-60.07-11-72.68-25.77C-172.09,482.2-197.93,470.43-219,469.49Z" transform="translate(218.96 153.44)"/><path class="cls-72" d="M271.82-25.11c6.59-.47,12.7,5.2,13.67,11.73s-2.57,13.23-8,17-12.34,5-18.91,4.28c2.45,2,2.16,5.74.72,8.54a7.15,7.15,0,0,1-8,3.48c1.94,2.32,2.15,7-.36,8.66a5.67,5.67,0,0,1-7.82-1.93c3,5.78-.25,14-3.12,19.79-5,10.13-13.3,19.21-24.15,22.32S191.71,67.52,187,57.27c1.12,4.47-2.87,9.67-6.86,12a11,11,0,0,1-12.81-1.52c3.19,1.41.37,8-2.53,10s-6.71,1.61-10.17,1.2c3.24,3.31.77,9.72-1.07,14s-5.37,7.54-9,10.42a97.58,97.58,0,0,1-85.49,17.31c-6.27-1.75-12.54-4.25-17.19-8.8s-7.36-11.53-5.4-17.73c-1.35,4.56-7.58,7.52-12.28,8.27a13,13,0,0,1-12.48-5.31c-6.14,5.66-15,7.29-23.12,5.37S-26.69,95.6-32.73,89.83C-53.61,69.89-62.56,39-58,10.49s21.85-54.25,45.05-71.43S39-87,67.82-88.67c18.46-1,37.49.69,55-5.26,15.53-5.27,28.49-16.17,43.34-23.13,23-10.79,50-11.57,74.49-4.79S287.22-101.12,306-84c4.66,4.26,9.48,9.56,9.11,15.87-.39,6.69-6.38,11.48-11.85,15.36C290.41-43.64,284.63-34.2,271.82-25.11Z" transform="translate(218.96 153.44)"/><polygon class="cls-73" points="403.61 128.5 385.63 128.5 307.37 182.88 321.88 44.96 290.78 44.96 214.66 554.61 268.27 554.61 302.26 231.49 403.61 128.5"/><g class="cls-74"><path class="cls-75" d="M116.62,44.19l3.4-3.45a154.27,154.27,0,0,0-.38-33l-2.79,1.94A149.74,149.74,0,0,1,116.62,44.19Z" transform="translate(218.96 153.44)"/><path class="cls-76" d="M75.14,137.24c-11.79,6-26.06,7.35-40.65,4.25l-.44,3A76.58,76.58,0,0,0,45.35,146a60.8,60.8,0,0,0,31.15-6.07l.31-.17.38-3.62C76.52,136.51,75.84,136.89,75.14,137.24Z" transform="translate(218.96 153.44)"/><path class="cls-77" d="M70.91,70.67c-7.28,1.34-15.26-.53-25-5.85L45.47,68c7,3.74,13.27,5.74,19.07,6.07a28.9,28.9,0,0,0,6.92-.42C85.93,71,95,57.23,98.66,45.27a72.4,72.4,0,0,0,2.87-25l-2.9,2A68.63,68.63,0,0,1,95.79,44.4C92.39,55.51,84.06,68.25,70.91,70.67Z" transform="translate(218.96 153.44)"/><path class="cls-78" d="M109.81,51.11l4.3-4.36A96.68,96.68,0,0,0,114.89,11L112,13A93.42,93.42,0,0,1,109.81,51.11Z" transform="translate(218.96 153.44)"/><path class="cls-79" d="M59.55,303.82l4.2-39.89C59.32,275.73,57.89,289.44,59.55,303.82Z" transform="translate(218.96 153.44)"/><path class="cls-80" d="M47.78,337.91c.31,0,.62.12.93.18,1.7,5,3.62,9.87,5.69,14.7l.66-6.25c-1-2.53-2-5.08-2.89-7.64,1.2.32,2.39.69,3.58,1.07l.32-3c-1.67-.53-3.35-1-5.06-1.42-1-3-1.93-6-2.76-9.09-8-29.67-5.86-57.92,6.13-79.56a93,93,0,0,1,13-17.78l.52-4.89a98.38,98.38,0,0,0-16.17,21.22c-12.38,22.32-14.65,51.37-6.41,81.79.7,2.58,1.48,5.12,2.29,7.65-7-1.12-14.15-.65-21.06-.18l-2.9.2a146.37,146.37,0,0,1-1.26-15.55c-.79-29,7-57.66,22-80.66,7.18-11,15.91-21,25.23-30.45l.5-4.74C59.69,213.77,49.86,224.72,41.86,237c-15.28,23.5-23.25,52.75-22.44,82.37A150.77,150.77,0,0,0,20.68,335c-2.06.1-4.12.16-6.15.15a53.5,53.5,0,0,1-8.84-.84l-.45,3a54.44,54.44,0,0,0,9.27.87c2.19,0,4.41-.06,6.6-.17,3.5,22.88,12.18,44.55,25.22,62.4l2.42-1.77C36,381.26,27.57,360.15,24.12,337.84l2.66-.17C33.73,337.19,40.92,336.7,47.78,337.91Z" transform="translate(218.96 153.44)"/><path class="cls-81" d="M95.57-38.6C87.3-52,77.37-64.32,67-76.11l-.58,3.89C77-60.12,86.94-47.47,95.05-33.65Z" transform="translate(218.96 153.44)"/><path class="cls-82" d="M78.75,121.32l.38-3.66c-12.78,7.6-27.85,8.16-41.78,4.67l-.44,3a71.31,71.31,0,0,0,12.91,2A54.13,54.13,0,0,0,78.75,121.32Z" transform="translate(218.96 153.44)"/><path class="cls-83" d="M65.72,58.25c5.34.3,11.1-.61,15.83-4.33C86.12,50.33,91,43,89.77,28.5l-1.36.94.67-6.36A111.16,111.16,0,0,0,60.71-34.08l-.57,3.81a108.05,108.05,0,0,1,26.1,54.48c1.17,7.37,1.88,20.73-6.54,27.36-7.65,6-18.83,3.46-24.81,1.4a68.51,68.51,0,0,1-6.77-2.75l-.46,3.08c2,.93,4.13,1.77,6.25,2.51A45.46,45.46,0,0,0,65.72,58.25Z" transform="translate(218.96 153.44)"/><path class="cls-84" d="M73.57,170.51C48.33,199.63,29.82,227.78,17.39,256l-1.83,12.31c11.72-30.55,30.6-60.95,57.46-92.5Z" transform="translate(218.96 153.44)"/><path class="cls-85" d="M69.1,95.91A41,41,0,0,0,81.83,92l.37-3.55a38.49,38.49,0,0,1-13.48,4.44c-9.31,1.19-18.64-1.46-26.29-4.63l-.45,3a62,62,0,0,0,19.58,4.8A41.46,41.46,0,0,0,69.1,95.91Z" transform="translate(218.96 153.44)"/><path class="cls-86" d="M133.62-2a156.16,156.16,0,0,1,1.74,27.13l3-3.11a165.71,165.71,0,0,0-2-25.93Z" transform="translate(218.96 153.44)"/><path class="cls-87" d="M10,394.91a157.57,157.57,0,0,1-7.87-37L.52,369A156.86,156.86,0,0,0,7.2,395.89Z" transform="translate(218.96 153.44)"/><path class="cls-88" d="M93.56-55.17c1.12,1.66,2.18,3.36,3.22,5.07l.51-4.83c-.41-.64-.82-1.28-1.24-1.91-2.56-3.81-5.36-7.62-8.08-11.31-6.9-9.4-14-19-17.76-29.54l-.87,5.84c4.11,9,10.22,17.32,16.22,25.47C88.25-62.71,91-58.92,93.56-55.17Z" transform="translate(218.96 153.44)"/><path class="cls-89" d="M28.44,182l-.6,4c4.3-2.57,8.49-6.3,8.61-11.74.09-4.11-2.35-7.56-5.39-9.81l-.51,3.45a8.56,8.56,0,0,1,2.9,6.29C33.38,177.41,31.32,179.92,28.44,182Z" transform="translate(218.96 153.44)"/><path class="cls-90" d="M40.79,191.09c3.81-2.71,7.75-5.51,10.71-9.32,4.08-5.25,5.24-11.81,3-16.7-3.81-8.18-14.24-9.18-22.06-9.51l-.45,3c8.59.37,16.88,1.52,19.79,7.78,2.21,4.73,0,10.28-2.6,13.6s-6.44,6.13-10.08,8.72L37.1,190a129.54,129.54,0,0,0-11.23,9.18l-.72,4.8a125.34,125.34,0,0,1,13.71-11.54Z" transform="translate(218.96 153.44)"/><path class="cls-91" d="M65.08,4.89c3.61,5.43,7.68,13.7,6.59,22.21-.91,7.11-6.52,14.73-14.34,15.2a15.36,15.36,0,0,1-7.77-1.73l-.46,3.07a18.65,18.65,0,0,0,6.53,1.65,14.74,14.74,0,0,0,1.88,0c9.37-.55,16.07-9.49,17.13-17.81,1-7.46-1.49-15.85-7.06-24.25A67,67,0,0,0,57-9.07l-.54,3.59A63.76,63.76,0,0,1,65.08,4.89Z" transform="translate(218.96 153.44)"/><path class="cls-92" d="M88.23-17.28c1.55,3.15,2.9,6.3,4.1,9.46L93-14.13q-1-2.23-2.07-4.47C83.82-33.08,74.08-46,64.26-57.83l-.6,4C72.78-42.75,81.67-30.64,88.23-17.28Z" transform="translate(218.96 153.44)"/></g><path class="cls-93" d="M121.2-15.71c-5.73,3.16-7.94,11.37-4.57,17s11.66,7.5,17.14,3.92c-.57,2.91-1.39,5.88,0,8.49s5.57,3.79,7.34,1.41c.93,5.55,5.05,11.81,10.42,13.51s11.34.76,16.36-1.78a37.6,37.6,0,0,0,12.57-11c6.19,5.1,13.54,9.71,21.54,10.29,18.78,1.38,36.87-13.48,40.79-31.91s-5.49-38.44-21.29-48.7-36.8-11.08-54.16-3.77S129-32.86,121.2-15.71Z" transform="translate(218.96 153.44)"/><path class="cls-94" d="M121.2-15.71c-5.15,4-6,12.5-1.78,17.49S132.13,7.31,137,2.9c-.09,3-.43,6,1.38,8.38s6.11,2.85,7.47.21c1.82,5.33,6.89,10.85,12.46,11.66s11.31-1.07,15.86-4.38A37.56,37.56,0,0,0,184.77,5.86c6.93,4,14.92,7.4,22.91,6.7,18.76-1.66,34.22-19.23,35.14-38S231.23-62.55,214-70.14s-38.11-5-54.07,5S126.15-33.89,121.2-15.71Z" transform="translate(218.96 153.44)"/><g class="cls-95"><path d="M26.78,17.73a5.61,5.61,0,1,1-5.61-5.62A5.61,5.61,0,0,1,26.78,17.73Z" transform="translate(218.96 153.44)"/><path d="M12.44,54.71a3.6,3.6,0,1,1-3.6-3.6A3.6,3.6,0,0,1,12.44,54.71Z" transform="translate(218.96 153.44)"/><circle cx="343.31" cy="231.15" r="3.62"/><path d="M215.1,40.13a5.2,5.2,0,1,1-5.19-5.2A5.19,5.19,0,0,1,215.1,40.13Z" transform="translate(218.96 153.44)"/><path d="M159.73,45.7a1.51,1.51,0,1,1-1.51-1.51A1.5,1.5,0,0,1,159.73,45.7Z" transform="translate(218.96 153.44)"/><path d="M178.7-22.25a3.35,3.35,0,0,1-3.35,3.35A3.35,3.35,0,0,1,172-22.25a3.36,3.36,0,0,1,3.35-3.36A3.36,3.36,0,0,1,178.7-22.25Z" transform="translate(218.96 153.44)"/><path d="M217.3-51.19a3.69,3.69,0,0,1-3.69,3.7,3.69,3.69,0,0,1-3.7-3.7,3.69,3.69,0,0,1,3.7-3.69A3.69,3.69,0,0,1,217.3-51.19Z" transform="translate(218.96 153.44)"/><path d="M109.81-61.06A2.07,2.07,0,0,1,107.74-59a2.07,2.07,0,0,1-2.06-2.07,2.07,2.07,0,0,1,2.06-2.07A2.07,2.07,0,0,1,109.81-61.06Z" transform="translate(218.96 153.44)"/><circle cx="413.65" cy="50.95" r="4.8"/><path d="M105.68,96.46a4.2,4.2,0,1,1-4.2-4.2A4.2,4.2,0,0,1,105.68,96.46Z" transform="translate(218.96 153.44)"/><path d="M28.44-43.85a3.64,3.64,0,0,1-3.63,3.64,3.64,3.64,0,0,1-3.64-3.64,3.64,3.64,0,0,1,3.64-3.64A3.64,3.64,0,0,1,28.44-43.85Z" transform="translate(218.96 153.44)"/><path d="M-24.78,12.73a5,5,0,0,1-5,5,5,5,0,0,1-5-5,5,5,0,0,1,5-5A5,5,0,0,1-24.78,12.73Z" transform="translate(218.96 153.44)"/></g><path class="cls-93" d="M140.4,50.3c1.16,3.72.74,7.16-.94,7.68s-4-2.07-5.14-5.79-.73-7.16.94-7.68S139.24,46.58,140.4,50.3Z" transform="translate(218.96 153.44)"/><path class="cls-93" d="M-21.95,66.56C-23.73,70-26.44,72.19-28,71.39s-1.39-4.27.39-7.74,4.49-5.62,6.05-4.82S-20.17,63.1-21.95,66.56Z" transform="translate(218.96 153.44)"/><path class="cls-93" d="M207.53-15.35c-1.81,3.45-4.54,5.58-6.1,4.76s-1.35-4.27.46-7.73,4.55-5.58,6.1-4.76S209.34-18.81,207.53-15.35Z" transform="translate(218.96 153.44)"/><path class="cls-93" d="M139.69-78.29c2.66,2.85,3.77,6.14,2.49,7.34s-4.49-.14-7.15-3-3.77-6.13-2.48-7.33S137-81.14,139.69-78.29Z" transform="translate(218.96 153.44)"/><path class="cls-93" d="M-2-27.78C.69-24.93,1.81-21.64.52-20.44s-4.48-.14-7.14-3-3.77-6.14-2.49-7.34S-4.62-30.63-2-27.78Z" transform="translate(218.96 153.44)"/><path class="cls-96" d="M102.23,526.22A558.82,558.82,0,0,1,221,421.28c-26,39.06-46.81,82.76-64.54,126.2C138.41,541.84,112.84,541.9,102.23,526.22Z" transform="translate(218.96 153.44)"/><path class="cls-97" d="M63.18,399.54A317.43,317.43,0,0,1,120,329.69C109,354,101.44,380.41,95.55,406.4,84.91,404.92,70.59,407.33,63.18,399.54Z" transform="translate(218.96 153.44)"/><path class="cls-98" d="M3.31,409.58c.32-27.24,9.23-53.88,22.2-77.84s29.94-45.52,47.39-66.45c1.66,14.76,3.73,28.77,5.4,43.53-3,1.36-6.76,3.54-9.76,4.9,3,.82,6,2.46,9,3.28,10.16,31,12.37,64,5,95.75-13,6-26.93,8.2-41.26,8.12S13,420.14,3.31,409.58Z" transform="translate(218.96 153.44)"/><g class="cls-95"><path class="cls-1" d="M67.73,281.19A742.36,742.36,0,0,0,42.5,418.36L41.6,414" transform="translate(218.96 153.44)"/><path class="cls-1" d="M51.51,298.61a177.47,177.47,0,0,0,5.57,24.67" transform="translate(218.96 153.44)"/><path class="cls-1" d="M73.61,322.44a112.56,112.56,0,0,1-20.79,22.63" transform="translate(218.96 153.44)"/><path class="cls-1" d="M39.34,319.52a213.26,213.26,0,0,0,10.6,35" transform="translate(218.96 153.44)"/><path class="cls-1" d="M78,348,47.5,379" transform="translate(218.96 153.44)"/></g><path class="cls-99" d="M34.6,386.7a131,131,0,0,1,73.74-6.85c-.7,4.35-1.1,8.69-1.8,13a46.7,46.7,0,0,1,10-11.75c14.54,4.63,28.52,14.72,36.62,27.64-2.38,4.38-3.68,10.66-6.06,15l10.47-7.93c13.94,19.06,20.42,44,13.73,66.64-24.59-1.5-49.44-8-73.59-12.9-17.86-3.61-36.62-8.76-48.9-22.22C34.64,431.89,36.07,407.67,34.6,386.7Z" transform="translate(218.96 153.44)"/><path class="cls-100" d="M161.89,449.73c8.32,3.89,16.5,8.78,22,16.17s7.67,17.74,3.48,25.92c-4.09,8-13.06,12.14-21.66,14.75-22.08,6.71-45.51,7-68.59,7.25-17.7.17-37.79-.7-49.41-14.07-9.61-11.07-9.84-26.83-8.07-40.61,1.92-15,16.16-16.2,29.55-19.19A145.85,145.85,0,0,1,161.89,449.73Z" transform="translate(218.96 153.44)"/><path class="cls-93" d="M103.34,436.46A146.65,146.65,0,0,0,69.14,440c-13.39,3-27.63,4.22-29.55,19.19-1.08,8.43-1.4,17.61.7,26q2.84,6.51,6,12.9c.43.58.88,1.16,1.36,1.72,5.17,5.94,12,9.41,19.56,11.42A150.9,150.9,0,0,0,103.34,436.46Z" transform="translate(218.96 153.44)"/><g class="cls-95"><path d="M170.59,460.4c-16.46,4.14-33.68,2.58-48.36.51-4.22-.6-8.49-1.28-12.63-1.94-11.72-1.86-23.84-3.78-35.91-4-13-.25-24.46,1.59-34.25,5.44l-.12,1v.09c9.77-3.94,21.27-5.81,34.37-5.56,12,.23,24.08,2.15,35.76,4,4.14.66,8.43,1.34,12.65,1.94,14.77,2.08,32.12,3.65,48.75-.53a67.38,67.38,0,0,0,6.73-2.08l-.89-.74Q173.71,459.6,170.59,460.4Z" transform="translate(218.96 153.44)"/><path d="M134.72,499.18c-.37-3.92-1-8.36-3.81-11.42-4.84-5.29-13.29-4-19.52-2-16.47,5.35-31.31,14.76-44.9,25.18l.73.2h0c.16.05.33.08.5.12,13.35-10.18,27.89-19.33,44-24.55,6-1.93,14-3.21,18.48,1.69,2.59,2.84,3.17,6.91,3.55,10.84q.61,6.53.81,13.1l1-.09Q135.33,505.71,134.72,499.18Z" transform="translate(218.96 153.44)"/><path d="M142.63,479c-11.18-12.71-30.5-13.26-44.84-9.54C89.22,471.65,81,475.28,73,478.79a206.13,206.13,0,0,1-19.72,7.88,75,75,0,0,1-11.67,2.73c.12.32.23.64.36,1a75.7,75.7,0,0,0,11.61-2.73,207.7,207.7,0,0,0,19.82-7.92c7.93-3.49,16.13-7.1,24.62-9.31,14.06-3.65,33-3.14,43.83,9.23,6.95,7.9,9,18.38,10.17,30.29l1-.18C151.82,497.67,149.74,487.06,142.63,479Z" transform="translate(218.96 153.44)"/></g><path class="cls-101" d="M81.83,458.68c0,48.85-26,61.3-58.09,61.3s-58.1-12.45-58.1-61.3,26-115.6,58.1-115.6S81.83,409.83,81.83,458.68Z" transform="translate(218.96 153.44)"/><path class="cls-93" d="M10.6,477c-18.18-19.4-28-45.8-29.63-72.34A139.38,139.38,0,0,1-18.88,386c-9.6,22.21-15.48,49.46-15.48,72.67,0,48.85,26,61.3,58.1,61.3,17.14,0,32.54-3.56,43.17-14.32C45.65,503.34,25.31,492.67,10.6,477Z" transform="translate(218.96 153.44)"/><g class="cls-95"><path d="M5.65,400.75c13.66-5.1,27.78-10.38,42.38-10.41h.15a74.46,74.46,0,0,1,21.26,3.33c-.22-.6-.45-1.2-.69-1.79a74.86,74.86,0,0,0-20.57-3.07H48c-14.88,0-29.13,5.36-42.91,10.51-3.69,1.37-7.5,2.8-11.25,4.09a117.74,117.74,0,0,1-20.78,5.29c-.16.53-.31,1.07-.46,1.6a117,117,0,0,0,21.73-5.45C-1.87,403.55,2,402.13,5.65,400.75Z" transform="translate(218.96 153.44)"/><path d="M23.29,475c-5.11-3.58-8.35-6.79-10.52-10.42C10,460,9.37,454.8,11,450.64c3.07-8,13.15-10.75,21.55-10.61,10.51.16,20.88,3.17,30.91,6.08,4.22,1.23,8.59,2.49,12.93,3.54,1.79.43,3.54.79,5.26,1.11l-.09-1.57c-1.58-.3-3.18-.63-4.82-1-4.3-1-8.65-2.29-12.86-3.52-10.12-2.93-20.59-6-31.31-6.14-8.92-.13-19.64,2.84-23,11.59-1.76,4.6-1,10.31,1.92,15.27,2.28,3.82,5.66,7.18,11,10.89a86.06,86.06,0,0,0,49.13,15.07c1.6,0,3.2-.06,4.8-.15.21-.51.42-1,.62-1.57C58.09,490.78,38.76,485.83,23.29,475Z" transform="translate(218.96 153.44)"/><path d="M-7.6,424.92c15.14-1.48,30.78-3,45.91-.57,8.68,1.38,17.24,4.09,25.51,6.7,4.31,1.36,8.75,2.76,13.18,4,1.06.29,2.11.57,3.14.82-.07-.54-.15-1.09-.23-1.63l-2.51-.66c-4.4-1.2-8.83-2.6-13.12-3.95C56,427,47.34,424.25,38.55,422.84c-15.32-2.45-31.07-.92-46.29.56-3.4.33-6.79.66-10.18,1-4.19.35-8.53.64-12.95.77-.1.51-.19,1-.29,1.54,4.57-.13,9.05-.43,13.37-.79C-14.4,425.58-11,425.25-7.6,424.92Z" transform="translate(218.96 153.44)"/><path d="M-4.12,360.27A156.73,156.73,0,0,0,37.23,347c-.54-.32-1.08-.62-1.63-.9A155.15,155.15,0,0,1-2.67,358.46C-3.16,359.05-3.64,359.65-4.12,360.27Z" transform="translate(218.96 153.44)"/></g><path class="cls-102" d="M677.7-41.62c-5.08,12.29-7.08,26.09-4.13,39.07s11.15,25,22.93,31.16,27.09,5.85,37.83-2c1.35,7.6,11.33,16.22,19,16.88.6,4.5,10.47,8.64,14.33,6.27.91,9,13.47,18,21.24,13.32-7.47,8.59-2,25.12,5.2,34s18.9,13,30.28,13.53,22.63-2.1,33.71-4.72c-3.33,5.07-1.2,11.77,2.24,16.76a15.71,15.71,0,0,0,16,6.27c0,7.06,1.39,10.76,7.07,14.95a22.8,22.8,0,0,0,20.1,3.32c22.22,29.64,68.34,31.8,100.82,14s53.68-50.74,70.09-83.95C1091.94,41.69,1105.87,1.32,1096-37c-12.06-46.67-56.16-77.84-100.51-96.72-36.78-15.66-78-25.82-116.66-15.56-22.22,5.9-42.87,18.37-65.81,19.9C776.5-127,741.5-152.68,705.5-146.27A62.94,62.94,0,0,0,661-113a63,63,0,0,0,.11,55.59C667.72-54.36,674.09-48,677.7-41.62Z" transform="translate(218.96 153.44)"/><polygon class="cls-103" points="1038.75 178.28 1055.55 178.28 1128.63 229.06 1115.09 100.27 1144.13 100.27 1215.21 576.22 1165.15 576.22 1133.41 274.46 1038.75 178.28"/><g class="cls-74"><path class="cls-104" d="M883.33,89.4l-3.17-3.22a143.7,143.7,0,0,1,.36-30.82l2.6,1.81A140.65,140.65,0,0,0,883.33,89.4Z" transform="translate(218.96 153.44)"/><path class="cls-105" d="M922.07,176.3c11,5.6,24.34,6.87,38,4l.41,2.77a70.76,70.76,0,0,1-10.56,1.43,56.69,56.69,0,0,1-29.08-5.67l-.3-.16-.35-3.38C920.79,175.62,921.42,176,922.07,176.3Z" transform="translate(218.96 153.44)"/><path class="cls-106" d="M926,114.13c6.8,1.25,14.26-.49,23.32-5.46l.44,2.94c-6.57,3.49-12.39,5.36-17.8,5.67a27.22,27.22,0,0,1-6.47-.39c-13.51-2.49-22-15.31-25.4-26.48a67.63,67.63,0,0,1-2.68-23.3l2.7,1.88a64.41,64.41,0,0,0,2.66,20.6C906,100,913.74,111.87,926,114.13Z" transform="translate(218.96 153.44)"/><path class="cls-107" d="M889.69,95.86l-4-4.07A90.25,90.25,0,0,1,885,58.44l2.67,1.86A87.36,87.36,0,0,0,889.69,95.86Z" transform="translate(218.96 153.44)"/><path class="cls-108" d="M936.63,331.87l-3.92-37.26C936.85,305.64,938.18,318.44,936.63,331.87Z" transform="translate(218.96 153.44)"/><path class="cls-109" d="M947.62,363.7l-.86.17c-1.59,4.65-3.39,9.22-5.32,13.74l-.61-5.85q1.41-3.54,2.69-7.13c-1.12.3-2.23.64-3.34,1l-.3-2.84c1.56-.49,3.14-1,4.73-1.32.93-2.81,1.8-5.64,2.58-8.5,7.51-27.7,5.47-54.09-5.73-74.29a86.81,86.81,0,0,0-12.17-16.61l-.48-4.57a92.37,92.37,0,0,1,15.1,19.82c11.56,20.84,13.68,48,6,76.39-.65,2.4-1.38,4.78-2.14,7.14,6.55-1.05,13.22-.61,19.67-.17l2.71.18a137.51,137.51,0,0,0,1.18-14.52c.74-27.1-6.54-53.85-20.51-75.32a181.71,181.71,0,0,0-23.56-28.44l-.47-4.43c9.73,9.62,18.91,19.85,26.38,31.34,14.27,21.95,21.72,49.27,21,76.93a139,139,0,0,1-1.18,14.6c1.92.1,3.85.16,5.74.14a49.94,49.94,0,0,0,8.27-.78l.41,2.77a49.43,49.43,0,0,1-8.65.81c-2.05,0-4.12,0-6.17-.16A133.06,133.06,0,0,1,949,422.08l-2.26-1.65a130.23,130.23,0,0,0,23-56.79l-2.49-.16C960.74,363,954,362.58,947.62,363.7Z" transform="translate(218.96 153.44)"/><path class="cls-110" d="M903,12.09c7.72-12.53,17-24,26.7-35l.54,3.64C920.38-8,911.05,3.8,903.48,16.7Z" transform="translate(218.96 153.44)"/><path class="cls-111" d="M918.7,161.43l-.36-3.42c11.94,7.1,26,7.63,39,4.37l.42,2.77A66.47,66.47,0,0,1,945.72,167,50.59,50.59,0,0,1,918.7,161.43Z" transform="translate(218.96 153.44)"/><path class="cls-112" d="M930.87,102.53c-5,.29-10.37-.56-14.79-4-4.26-3.36-8.8-10.18-7.67-23.74l1.27.87-.63-5.93a103.91,103.91,0,0,1,26.5-53.39l.53,3.57a100.81,100.81,0,0,0-24.37,50.87c-1.1,6.89-1.76,19.36,6.11,25.55C925,101.91,935.4,99.52,941,97.6A62.87,62.87,0,0,0,947.31,95l.43,2.88c-1.91.87-3.86,1.66-5.84,2.34A42,42,0,0,1,930.87,102.53Z" transform="translate(218.96 153.44)"/><path class="cls-113" d="M923.54,207.37c23.57,27.2,40.86,53.49,52.46,79.8l1.72,11.49c-11-28.53-28.58-56.93-53.67-86.39Z" transform="translate(218.96 153.44)"/><path class="cls-114" d="M927.72,137.7a38.05,38.05,0,0,1-11.89-3.61l-.35-3.32a36,36,0,0,0,12.59,4.15c8.69,1.11,17.41-1.36,24.55-4.32l.42,2.85a58.38,58.38,0,0,1-18.29,4.48A38.57,38.57,0,0,1,927.72,137.7Z" transform="translate(218.96 153.44)"/><path class="cls-115" d="M867.46,46.28a146.46,146.46,0,0,0-1.63,25.34L863,68.72a154.87,154.87,0,0,1,1.91-24.22Z" transform="translate(218.96 153.44)"/><path class="cls-116" d="M982.88,416.93a147.1,147.1,0,0,0,7.35-34.5l1.53,10.27a146.1,146.1,0,0,1-6.24,25.15Z" transform="translate(218.96 153.44)"/><path class="cls-117" d="M904.87-3.39c-1,1.55-2,3.14-3,4.73l-.47-4.5c.39-.6.76-1.2,1.16-1.79,2.38-3.55,5-7.12,7.54-10.57,6.45-8.77,13-17.75,16.59-27.58l.81,5.45c-3.84,8.41-9.55,16.18-15.14,23.79C909.83-10.43,907.23-6.89,904.87-3.39Z" transform="translate(218.96 153.44)"/><path class="cls-118" d="M965.69,218.11l.55,3.71c-4-2.41-7.93-5.88-8-11-.08-3.84,2.2-7.06,5-9.16l.48,3.23a8,8,0,0,0-2.72,5.87C961.07,213.81,963,216.16,965.69,218.11Z" transform="translate(218.96 153.44)"/><path class="cls-119" d="M954.15,226.59c-3.56-2.53-7.24-5.14-10-8.71-3.81-4.9-4.89-11-2.76-15.59,3.56-7.64,13.31-8.58,20.61-8.88l.42,2.79c-8,.35-15.76,1.42-18.49,7.27-2,4.41,0,9.6,2.43,12.7s6,5.73,9.41,8.14c.62.43,1.22.87,1.83,1.3a121,121,0,0,1,10.49,8.57l.67,4.48A118.33,118.33,0,0,0,956,227.88Z" transform="translate(218.96 153.44)"/><path class="cls-120" d="M931.47,52.7c-3.37,5.07-7.17,12.79-6.16,20.74.85,6.64,6.09,13.76,13.39,14.19A14.25,14.25,0,0,0,946,86l.43,2.86a17.21,17.21,0,0,1-6.09,1.55,12.92,12.92,0,0,1-1.76,0c-8.75-.52-15-8.86-16-16.63-.9-7,1.39-14.8,6.6-22.65A62.19,62.19,0,0,1,939,39.66l.5,3.36A59.15,59.15,0,0,0,931.47,52.7Z" transform="translate(218.96 153.44)"/><path class="cls-121" d="M909.85,32q-2.16,4.41-3.83,8.83l-.62-5.89q.92-2.1,1.93-4.17C914,17.24,923.06,5.14,932.24-5.88l.55,3.73C924.28,8.21,916,19.52,909.85,32Z" transform="translate(218.96 153.44)"/></g><path class="cls-122" d="M783.88,13.07A27.61,27.61,0,0,0,794.47,36a27.63,27.63,0,0,0,24.88,4.28c2.17,6.65-.52,14.14,6.29,15.72a20.8,20.8,0,0,0,19.25-5.67c6,6.53,20.87,8.42,28.11,3.28s11.4-13.52,14.67-21.77c2.88-7.25,5.34-14.92,4.77-22.7s-4.77-15.73-12-18.73c-8.16-16.51-21.23-26-38.9-31.2S803.37-42,790.09-29.28,775.45-3.31,783.88,13.07Z" transform="translate(218.96 153.44)"/><g class="cls-95"><circle cx="1054.34" cy="162.95" r="6.73"/><circle cx="989.68" cy="81.6" r="4.31"/><path d="M913.52-99.42a4.34,4.34,0,0,0-4.34-4.34,4.34,4.34,0,0,0-4.34,4.34,4.34,4.34,0,0,0,4.34,4.34A4.34,4.34,0,0,0,913.52-99.42Z" transform="translate(218.96 153.44)"/><circle cx="1230.7" cy="99.07" r="6.23"/><path d="M951.59-61a1.81,1.81,0,0,0-1.8-1.8A1.81,1.81,0,0,0,948-61a1.81,1.81,0,0,0,1.81,1.81A1.81,1.81,0,0,0,951.59-61Z" transform="translate(218.96 153.44)"/><path d="M974.34,20.4a4,4,0,1,0-4,4A4,4,0,0,0,974.34,20.4Z" transform="translate(218.96 153.44)"/><path d="M1020.61,55.09a4.44,4.44,0,1,0-4.44,4.43A4.44,4.44,0,0,0,1020.61,55.09Z" transform="translate(218.96 153.44)"/><circle cx="1108.24" cy="220.37" r="2.48"/><circle cx="1212.46" cy="270.03" r="5.76"/><path d="M886.8-121.89a5,5,0,0,0-5-5,5,5,0,0,0-5,5,5,5,0,0,0,5,5A5,5,0,0,0,886.8-121.89Z" transform="translate(218.96 153.44)"/><path d="M794.22,46.3a4.36,4.36,0,1,0-4.36,4.35A4.36,4.36,0,0,0,794.22,46.3Z" transform="translate(218.96 153.44)"/><circle cx="724.43" cy="-21.53" r="5.99" transform="translate(231.76 269.21) rotate(-9.22)"/></g><path class="cls-93" d="M833.82-78.31c1.39-4.46.88-8.59-1.13-9.22s-4.77,2.49-6.16,7-.88,8.58,1.13,9.21S832.43-73.85,833.82-78.31Z" transform="translate(218.96 153.44)"/><path class="cls-93" d="M733.82-86.06c-2.14-4.15-5.39-6.74-7.26-5.78s-1.67,5.11.46,9.27,5.39,6.74,7.26,5.78S736-81.9,733.82-86.06Z" transform="translate(218.96 153.44)"/><path class="cls-93" d="M1008.89,12.14c-2.17-4.14-5.44-6.7-7.31-5.72s-1.62,5.13.56,9.27,5.44,6.69,7.31,5.71S1011.07,16.27,1008.89,12.14Z" transform="translate(218.96 153.44)"/><path class="cls-93" d="M824.07-16.71c3.19-3.42,4.52-7.35,3-8.79s-5.38.17-8.56,3.58-4.52,7.36-3,8.79S820.88-13.29,824.07-16.71Z" transform="translate(218.96 153.44)"/><path class="cls-93" d="M757.77,27c3.18-3.42,4.52-7.35,3-8.79s-5.38.16-8.56,3.58-4.52,7.35-3,8.79S754.58,30.44,757.77,27Z" transform="translate(218.96 153.44)"/><path class="cls-123" d="M1018.2,435.93c-20.71-31.47-51-55.81-83.93-74S865.48,331.3,829.56,320c9.07,18.41,17.12,36.26,26.2,54.67,4.5-.65,10.5-.93,15-1.58-2.88,3.19-5.15,7.34-8,10.53,11.3,43.64,33.36,83.68,65.68,115.12,19.61-2.8,37.44-10.56,54.06-21.35S1014.78,455.44,1018.2,435.93Z" transform="translate(218.96 153.44)"/><g class="cls-95"><path class="cls-1" d="M847.43,334.62A1024.42,1024.42,0,0,1,979.15,475.38c-.73-1.91-1.46-3.81-2.18-5.72" transform="translate(218.96 153.44)"/><path class="cls-1" d="M879.3,342.79a242.84,242.84,0,0,1,11.93,32.86" transform="translate(218.96 153.44)"/><path class="cls-1" d="M871.37,387a156.28,156.28,0,0,0,41.08,10.8" transform="translate(218.96 153.44)"/><path class="cls-1" d="M909.06,358a293.64,293.64,0,0,1,13.77,48.58" transform="translate(218.96 153.44)"/><path class="cls-1" d="M885.42,420,944,433.36" transform="translate(218.96 153.44)"/></g><path class="cls-124" d="M913.59,465.56a558.81,558.81,0,0,0-100-123c19.23,42.79,32.6,89.32,43,135.08C875.33,475,900.55,479.29,913.59,465.56Z" transform="translate(218.96 153.44)"/><path class="cls-125" d="M893.82,481.08A558.67,558.67,0,0,0,749,416.59c36.51,29.47,69.48,64.92,99.42,101C864,506.83,888.4,499.22,893.82,481.08Z" transform="translate(218.96 153.44)"/><path class="cls-126" d="M755.4,516.28a214.05,214.05,0,0,1,79-91.62c4.11,5.92,8.55,11.48,12.66,17.4a76.49,76.49,0,0,1-1.55-25.15c22.34-11,50.22-15,74.4-9,2.15,7.85,7.74,16.71,9.89,24.56q1.68-10.61,3.34-21.2c38,6.63,73.86,28.61,91.65,62.83-30.62,26.1-67.24,46.6-101.17,68.21-25.1,16-53,31.19-82.71,29.26C806.63,569.39,780.87,539.28,755.4,516.28Z" transform="translate(218.96 153.44)"/><path class="cls-127" d="M831.53,473.53c-8.32,3.88-16.49,8.77-21.95,16.16s-7.67,17.74-3.48,25.92c4.1,8,13.07,12.15,21.66,14.76,22.08,6.7,45.52,7,68.59,7.24,17.7.17,37.79-.7,49.41-14.07,9.61-11.06,9.84-26.82,8.07-40.61-1.91-15-16.16-16.2-29.55-19.19A145.78,145.78,0,0,0,831.53,473.53Z" transform="translate(218.96 153.44)"/><g class="cls-95"><path d="M822.83,484.19c16.46,4.14,33.69,2.58,48.37.51,4.21-.6,8.49-1.28,12.62-1.93,11.72-1.87,23.84-3.79,35.91-4,13-.24,24.46,1.59,34.25,5.45l.12,1v.1c-9.77-3.95-21.27-5.82-34.36-5.57-12,.23-24.08,2.15-35.77,4-4.14.66-8.42,1.34-12.65,1.94-14.77,2.08-32.12,3.65-48.74-.53a66.77,66.77,0,0,1-6.74-2.08l.89-.74C818.72,483.05,820.75,483.66,822.83,484.19Z" transform="translate(218.96 153.44)"/><path d="M858.7,523c.37-3.92,1-8.36,3.81-11.42,4.84-5.29,13.29-4,19.52-2,16.47,5.35,31.31,14.76,44.9,25.18l-.73.2h0c-.16,0-.33.08-.5.12-13.35-10.17-27.89-19.33-44-24.55-6-1.93-14-3.21-18.47,1.7-2.6,2.83-3.18,6.9-3.55,10.84q-.63,6.51-.82,13.09c-.33,0-.67,0-1-.09Q858.09,529.5,858.7,523Z" transform="translate(218.96 153.44)"/><path d="M850.8,502.76c11.18-12.72,30.49-13.27,44.83-9.55,8.57,2.23,16.81,5.86,24.77,9.37a206.13,206.13,0,0,0,19.72,7.88,75,75,0,0,0,11.67,2.73c-.12.32-.23.64-.36.95a75.7,75.7,0,0,1-11.61-2.73A205.1,205.1,0,0,1,920,503.49c-7.93-3.49-16.13-7.1-24.62-9.31-14.06-3.65-33-3.14-43.83,9.24-6.94,7.89-9,18.37-10.17,30.28l-1-.18C841.6,521.46,843.68,510.85,850.8,502.76Z" transform="translate(218.96 153.44)"/></g><path class="cls-128" d="M897.16,454.64c0,56.45,30.06,70.84,67.14,70.84s67.13-14.39,67.13-70.84S1001.38,321,964.3,321,897.16,398.18,897.16,454.64Z" transform="translate(218.96 153.44)"/><path class="cls-93" d="M979.47,475.78c21-22.42,32.42-52.93,34.26-83.61a161,161,0,0,0-.19-21.52c11.1,25.67,17.89,57.16,17.89,84,0,56.45-30.05,70.84-67.13,70.84-19.81,0-37.61-4.11-49.9-16.54C939,506.25,962.48,493.92,979.47,475.78Z" transform="translate(218.96 153.44)"/><g class="cls-95"><path d="M985.2,387.68c-15.78-5.89-32.1-12-49-12h-.17a86.43,86.43,0,0,0-24.58,3.85c.26-.69.53-1.38.8-2.07a86.78,86.78,0,0,1,23.78-3.54h.18c17.19,0,33.66,6.19,49.59,12.14,4.26,1.59,8.66,3.24,13,4.73a135.11,135.11,0,0,0,24,6.11c.18.62.36,1.24.53,1.86a135.82,135.82,0,0,1-25.12-6.3C993.89,390.93,989.47,389.28,985.2,387.68Z" transform="translate(218.96 153.44)"/><path d="M964.81,473.49c5.91-4.13,9.66-7.84,12.16-12,3.15-5.27,3.93-11.29,2.09-16.11-3.55-9.27-15.19-12.42-24.9-12.26-12.15.19-24.13,3.67-35.72,7-4.88,1.42-9.93,2.88-14.94,4.09-2.08.5-4.1.92-6.08,1.29,0-.61.06-1.21.1-1.82,1.82-.34,3.67-.73,5.56-1.19,5-1.19,10-2.65,14.87-4.06,11.7-3.4,23.8-6.91,36.18-7.1,10.32-.16,22.7,3.27,26.58,13.39,2,5.32,1.2,11.91-2.23,17.65-2.63,4.42-6.54,8.3-12.66,12.58-16.46,11.53-36.64,17.41-56.78,17.41-1.85,0-3.7-.06-5.54-.16-.25-.6-.49-1.2-.72-1.81C924.59,491.73,946.93,486,964.81,473.49Z" transform="translate(218.96 153.44)"/><path d="M1000.51,415.62c-17.49-1.7-35.57-3.46-53.06-.66-10,1.6-19.92,4.73-29.48,7.75-5,1.57-10.11,3.19-15.23,4.59-1.23.33-2.44.65-3.63.94q.12-.94.27-1.89c1-.24,1.92-.49,2.9-.76,5.08-1.38,10.2-3,15.16-4.57,9.62-3,19.58-6.18,29.73-7.81,17.71-2.83,35.91-1.06,53.51.65,3.92.38,7.85.76,11.76,1.1,4.84.41,9.86.74,15,.89.12.6.23,1.19.34,1.78-5.28-.15-10.46-.49-15.45-.92C1008.37,416.38,1004.44,416,1000.51,415.62Z" transform="translate(218.96 153.44)"/><path d="M996.49,340.9a181.06,181.06,0,0,1-47.79-15.3c.62-.36,1.25-.71,1.88-1a178.86,178.86,0,0,0,44.23,14.25C995.38,339.49,995.94,340.19,996.49,340.9Z" transform="translate(218.96 153.44)"/></g><path class="cls-129" d="M247,537.92a558.72,558.72,0,0,1,78-138c-11.79,45.42-17.17,93.52-19.73,140.37C286.33,540.84,262.17,549.26,247,537.92Z" transform="translate(218.96 153.44)"/><path class="cls-130" d="M228.31,558.91c13-35.35,36.95-65.92,64.93-91.13s60-45.44,92.45-64.63c-4.65,20-8.44,39.2-13.1,59.19-4.53.39-10.44,1.49-15,1.87,3.53,2.46,6.68,6,10.21,8.43-1.09,45.07-13.48,89.08-37.81,127-19.74,1.73-38.86-1.78-57.5-8.52S236.08,577.14,228.31,558.91Z" transform="translate(218.96 153.44)"/><g class="cls-95"><path class="cls-1" d="M371.61,421.46a1024.64,1024.64,0,0,0-96.31,167q.4-3,.83-6.07" transform="translate(218.96 153.44)"/><path class="cls-1" d="M342.43,436.66a244,244,0,0,0-4.16,34.71" transform="translate(218.96 153.44)"/><path class="cls-1" d="M360.19,477.92a155.78,155.78,0,0,1-37.55,19.85" transform="translate(218.96 153.44)"/><path class="cls-1" d="M316.91,458.27a294.3,294.3,0,0,0-2.38,50.44" transform="translate(218.96 153.44)"/><path class="cls-1" d="M354,513.27l-54,26.28" transform="translate(218.96 153.44)"/></g><polygon class="cls-131" points="859.6 407.48 867.69 442.68 851.5 442.68 859.6 407.48"/><polygon class="cls-132" points="694.18 421.29 698.23 438.89 690.13 438.89 694.18 421.29"/><polygon class="cls-133" points="764.58 409.68 769.23 429.88 759.94 429.88 764.58 409.68"/><polygon class="cls-134" points="642.6 405.7 647.25 425.9 637.96 425.9 642.6 405.7"/><path class="cls-135" d="M774.37,578.44c-6.19-37.15-24-71.65-46.78-101.64S677.09,421,648.83,396c.84,20.52,1,40.1,1.82,60.61,4.39,1.22,10,3.4,14.37,4.63-3.93,1.75-7.68,4.62-11.61,6.37-7.33,44.49-3.38,90,13.44,131.86,19.07,5.38,38.52,5.5,58.08,2.37S763.34,594.91,774.37,578.44Z" transform="translate(218.96 153.44)"/><g class="cls-95"><path class="cls-1" d="M659.25,416.67a1025.79,1025.79,0,0,1,63.44,182c.11-2,.21-4.07.32-6.11" transform="translate(218.96 153.44)"/><path class="cls-1" d="M685.08,437.05a246.56,246.56,0,0,1-2.39,34.87" transform="translate(218.96 153.44)"/><path class="cls-1" d="M659.93,474.27a155.54,155.54,0,0,0,33.19,26.5" transform="translate(218.96 153.44)"/><path class="cls-1" d="M706.12,463A294.89,294.89,0,0,1,699,513" transform="translate(218.96 153.44)"/><path class="cls-1" d="M659.4,510.15l48.15,35.9" transform="translate(218.96 153.44)"/></g><path class="cls-136" d="M666.72,563.19a559.1,559.1,0,0,0-41.61-153c.25,46.92-6.36,94.88-15.4,140.92C627.9,556.36,649.24,570.46,666.72,563.19Z" transform="translate(218.96 153.44)"/><path class="cls-137" d="M519.81,600.38c11.54-33.14,12.39-69.3,7.15-104s-16.36-68.22-28.34-101.21c-8.48,17.15-17.11,33.22-25.58,50.37,3,3,6.64,7.24,9.68,10.21-4-.32-8.34.35-12.34,0-25.86,33.1-43,72.11-47.89,113.82,13.19,12.92,29,21.7,46.44,27.88S503.44,608.92,519.81,600.38Z" transform="translate(218.96 153.44)"/><g class="cls-95"><path class="cls-1" d="M497.92,416.68a955.34,955.34,0,0,1-29.41,177.2q1.49-2.43,3-4.86" transform="translate(218.96 153.44)"/><path class="cls-1" d="M510,444.88a229.55,229.55,0,0,1-17.53,27.45" transform="translate(218.96 153.44)"/><path class="cls-1" d="M472.76,464.08a144.85,144.85,0,0,0,15.3,36.5" transform="translate(218.96 153.44)"/><path class="cls-1" d="M515.55,475.53a274.66,274.66,0,0,1-28.13,37.72" transform="translate(218.96 153.44)"/><path class="cls-1" d="M456.3,493.19l23.34,50.86" transform="translate(218.96 153.44)"/></g></g></g></g></g></svg>