<svg xmlns="http://www.w3.org/2000/svg" viewBox="0 0 469.36 267.32"><defs><style>.cls-1{fill:#6e9ad1;}.cls-2{fill:#61559f;}.cls-3{fill:#ba9bc9;}.cls-4{fill:#0066a6;}.cls-5{fill:#00a9d3;}.cls-6{fill:none;}</style></defs><g id="Capa_2" data-name="Capa 2"><g id="Objects"><path class="cls-1" d="M175.51,7.81l-7.69,2L166.17,14l-1.79-1.09-4.81,2.81,1.92,2-2.74,2.63-7.43,1.51.69,3.71,4.26.91-6.05,1.29,2.2,5.09,8.94.94-.69,13.63,2.2,2.2L160,51.93V54.7h3.85l-2.75,4.68-2.75,1.51,1.79,11.82,2.75,3.88,4,3.16,6.88-13.5,6.18-1.79L184,59.92l11.41-4.59-6.32-.77,1.1-4.12,3.16,3.71,2.06.28V50.85L192.56,46l3.57.28,2.2-1.93,1.1-7.14-1.38-2.48,3,.41.62-2.47-2.2-1.55,10.72-14.32L206.06,14l-8.88,5.67L201,14l-3.83,1.7.6-1.7-6.55.67,11.91-3.51-3-2.47-1.37-.83-7.51.83,7.23-2.32-8-1.81-3.16,1.81L184,5.77l-3.84,2s2.47,4.72,2.06,5.05-2.89,0-2.89,0l-.69-5L177,11.63l-2.61-.11Z"/><polygon class="cls-2" points="181.93 119.56 181.33 119.95 181.93 120.35 182.2 119.95 181.93 119.56"/><polygon class="cls-2" points="185.5 120.86 184.81 120.86 184.81 121.41 185.73 121.41 185.5 120.86"/><polygon class="cls-2" points="196.91 129.1 196.27 129.1 196.27 129.61 196.91 129.79 196.91 129.1"/><polygon class="cls-3" points="185.17 152.18 184.48 152.35 184.82 152.77 185.34 152.47 185.17 152.18"/><polygon class="cls-3" points="186.03 152.77 186.03 153.28 186.4 153.28 186.4 153.02 186.03 152.77"/><polygon class="cls-3" points="188.09 153.56 187.71 153.73 187.9 154.11 188.26 154.11 188.09 153.56"/><polygon class="cls-3" points="186.78 154.83 187.3 155.34 187.3 155.72 186.78 155.72 186.78 154.83"/><polygon class="cls-3" points="187.71 154.83 187.44 154.83 187.57 155.27 187.71 155.27 187.71 154.83"/><polygon class="cls-3" points="188.26 152.63 187.99 152.77 187.99 153.02 188.26 153.02 188.26 152.63"/><polygon class="cls-3" points="186.61 153.02 186.61 153.28 187.04 153.28 186.83 153.02 186.61 153.02"/><rect class="cls-1" x="279.01" y="192.63" width="0.55" height="1.03"/><polygon class="cls-3" points="296.74 183.21 296.19 183.21 296.19 184.03 297.01 184.03 296.74 183.21"/><polygon class="cls-4" points="299.07 205.2 298.31 205.2 298.31 205.89 298.69 206.16 299.07 205.2"/><rect class="cls-2" x="295.22" y="206.16" width="0.96" height="1.03"/><rect class="cls-3" x="281.48" y="194.48" width="0.69" height="0.82"/><polygon class="cls-4" points="146.65 257.29 147.61 258.66 145.41 259.9 142.8 259.9 143.35 258.6 146.65 257.29"/><polygon class="cls-4" points="173.18 261.69 173.86 264.16 175.1 262.93 173.18 261.69"/><polygon class="cls-1" points="93.12 176.75 93.12 178.81 94.28 178.81 93.7 177.44 93.12 176.75"/><polygon class="cls-1" points="94.7 177.78 94.97 178.81 95.86 178.81 94.7 177.78"/><polygon class="cls-5" points="5.15 146.44 6.94 148.09 5.15 149.19 4.74 147.82 5.15 146.44"/><polygon class="cls-5" points="0.82 143.28 0 143.28 0 143.97 0.41 143.97 0.82 143.28"/><path class="cls-5" d="M2.47,144l-.68.82.68.56C2.89,145,2.47,144,2.47,144Z"/><polygon class="cls-5" points="3.44 144.79 3.44 145.76 4.74 146.44 5.02 145.62 3.44 144.79"/><polygon class="cls-3" points="103.29 145.28 106.17 144.79 107.69 144.25 108.99 144.79 111.81 145.76 112.22 146.72 114.08 147.27 113.05 148.44 113.46 148.44 115.25 148.09 116.62 148.44 118.06 147.68 115.72 146.34 112.84 144.79 111.12 144.79 110.16 143.63 108.44 143.63 107.41 143.08 105.62 143.56 103.91 144.18 103.29 145.28"/><polygon class="cls-5" points="115.11 151.12 114.14 150.09 111.74 150.6 112.98 151.46 114.08 151.46 115.11 151.12"/><polygon class="cls-1" points="127 150.77 127 151.46 129.33 151.46 129.61 150.09 127 150.77"/><polygon class="cls-1" points="136.07 161.08 134.62 161.08 134.62 162.73 135.34 162.73 136.07 161.08"/><polygon class="cls-1" points="112.29 137.65 112.63 138.5 113.87 137.65 113.87 137.03 112.29 137.65"/><polygon class="cls-1" points="113.42 140.12 112.77 141.08 113.42 141.5 113.42 142.73 114.28 142.39 113.87 141.43 113.42 140.12"/><polygon class="cls-1" points="114.69 137.37 114.28 137.77 114.28 139.37 115.11 138.82 114.69 137.37"/><polygon class="cls-1" points="116.28 140.88 116.28 142.11 117.03 142.11 116.28 140.88"/><rect class="cls-1" x="118.06" y="143.56" width="0.69" height="1.24"/><polygon class="cls-1" points="119.85 146.17 118.75 146.17 118.41 146.86 119.57 146.86 119.85 146.17"/><polygon class="cls-1" points="117.03 142.73 116.28 142.73 117.31 144.18 117.03 142.73"/><polygon class="cls-4" points="138.06 157.78 137.44 157.78 138.06 158.54 138.47 158.16 138.06 157.78"/><rect class="cls-2" x="134.62" y="158.95" width="0.72" height="0.89"/><polygon class="cls-2" points="136.07 156.82 135.34 157.37 135.71 157.78 136.07 156.82"/><polygon class="cls-2" points="134.98 155.45 135.71 156.48 136.07 156.2 135.71 155.45 134.98 155.45"/><polygon class="cls-5" points="134.62 153.52 134.62 154.35 135.34 153.94 134.98 153.25 134.62 153.52"/><polygon class="cls-5" points="136.07 152.84 135.53 153.25 135.8 153.8 136.07 152.84"/><polygon class="cls-3" points="133.32 150.77 132.7 151.46 133.32 152.08 133.32 150.77"/><polygon class="cls-3" points="134.98 151.05 134.14 151.43 134.62 152.08 134.98 151.05"/><polygon class="cls-2" points="120.88 148.44 119.37 148.09 118.96 148.44 119.92 149.06 120.47 150.09 119.02 150.09 117.31 150.09 118.06 151.12 120.78 151.12 121.51 148.19 120.88 148.44"/><polygon class="cls-4" points="124.31 149.06 123.42 148.44 121.74 148.09 121.51 148.19 120.78 151.12 120.81 151.12 121.5 152.08 122.73 150.77 125.76 150.77 126.17 150.09 124.31 149.06"/><polygon class="cls-4" points="104.18 160.94 105.28 155.27 104.92 155.14 98.67 158.91 100.33 160.4 100.63 161.08 104.3 161.08 104.18 160.94"/><polygon class="cls-1" points="104.3 161.08 100.63 161.08 101.57 163.28 104.59 165.07 105.14 165.29 106.08 163.17 104.3 161.08"/><polygon class="cls-4" points="95.28 153.8 94.28 151.43 96.48 151.56 99.1 150.97 99.23 150.5 101.16 145.83 100.19 145.14 96.07 146.38 93.73 150.5 89.34 150.22 85.9 146.24 87.05 139.42 84.66 138.37 82.22 132.77 79.44 133.73 75.87 129.45 69.68 129.45 64.19 126.86 60.91 126.43 61.71 129.79 63.77 134.83 61.99 134.83 64.73 137.31 66.52 140.74 69.13 143.76 69.82 142.39 67.76 139.3 66.52 135.38 64.19 132.22 64.19 129.1 66.52 129.45 68.03 134.83 70.92 137.31 74.63 145.14 73.67 147.89 82.6 153.15 87.14 155.05 89.47 153.83 92.24 156.07 93.12 153.8 95.28 153.8"/><polygon class="cls-1" points="96.48 151.56 94.28 151.43 95.28 153.8 93.12 153.8 92.24 156.07 94.01 157.51 95.43 157.76 97.3 155.81 96.78 151.5 96.48 151.56"/><polygon class="cls-3" points="98 154.83 99.1 150.97 96.78 151.5 97.3 155.81 98.34 154.73 98 154.83"/><polygon class="cls-5" points="95.43 157.76 97.86 158.19 98.67 158.91 100.47 157.83 96.81 156.32 95.43 157.76"/><polygon class="cls-2" points="101.43 153.83 98.34 154.73 96.81 156.32 100.47 157.83 104.92 155.14 101.43 153.83"/><polygon class="cls-3" points="123.47 174.76 127 174.41 126.17 167.95 119.85 166.24 119.41 161.91 121.75 159.44 121.22 159.02 115.04 161.91 113.66 164.79 110.64 162.87 106.52 163.69 106.08 163.17 105.14 165.29 108.3 166.58 109.13 165.34 110.64 163.83 111.6 165.2 112.98 170.15 110.21 174.89 123.01 182.38 123.47 174.76"/><polygon class="cls-5" points="115.86 178.2 110.21 174.89 110.09 175.1 107.62 179.36 108.85 181.7 108.07 182.37 110.57 184.31 115.86 178.2"/><polygon class="cls-2" points="122.32 190.56 118.75 189.81 117.96 186.1 120.78 183.21 122.94 183.21 122.81 182.27 115.86 178.2 110.57 184.31 108.07 182.37 106.79 183.48 110.23 188.02 114.49 196.82 119.02 200.25 122.75 203.59 124.52 202.04 124.52 193.31 122.32 190.56"/><polygon class="cls-5" points="131.74 173.59 130.64 171.05 136.07 169.81 135.34 168.16 136.92 165.17 133.04 162.46 133.59 161.08 123.83 161.08 121.75 159.44 119.41 161.91 119.85 166.24 126.17 167.95 127 174.41 126.93 174.42 128.92 176.06 131.74 173.59"/><polygon class="cls-2" points="137.44 174.07 138.75 175.51 142.05 173.93 139.98 170.12 141.01 168.5 140.88 168.5 137.17 165.34 136.92 165.17 135.34 168.16 136.07 169.81 135.86 169.86 137.44 171.18 137.44 174.07"/><polygon class="cls-4" points="142.8 172.97 145 173.62 145.41 171.46 144.66 169.67 145.47 168.5 141.01 168.5 139.98 170.12 142.05 173.93 141.99 173.96 142.8 174.28 142.8 172.97"/><polygon class="cls-3" points="146.24 174.28 148.24 171.63 145.82 168.5 145.47 168.5 144.66 169.67 145.41 171.46 145 173.62 144.8 173.56 145.21 174.28 146.24 174.28"/><polygon class="cls-3" points="125.83 206.02 127.55 210.22 129.19 208.57 134.35 208.57 135.1 205.34 138.54 204.44 140.12 205.34 141.22 203.59 139.64 200.05 137.24 199.7 136.55 196.47 130.64 194.07 129.54 190.9 124.42 193.19 124.52 193.31 124.52 202.04 124.37 202.17 125.76 204.31 125.83 206.02"/><polygon class="cls-1" points="128.99 260.45 128.3 257.29 126.86 257.77 126.52 254.54 127.48 253.99 127.27 245.4 125.62 240.59 126.03 235.09 125.62 230.22 126.38 226.57 125.14 222.86 125.83 218.59 126.93 216.13 126.65 212.69 128.44 210.22 128.09 209.68 127.55 210.22 125.83 206.02 125.76 204.31 124.37 202.17 122.75 203.59 123.01 203.83 123.15 221.83 122.19 233.79 122.73 239.01 124.52 241.21 124.11 245.47 123.56 248.5 122.19 250.01 123.42 252.48 124.8 258.6 128.37 264.16 133.18 267.32 136.89 267.32 137.58 266.58 133.39 260.45 128.99 260.45"/><polygon class="cls-4" points="141.22 213.17 141.22 214.89 140.33 216.54 144.11 216.54 146.17 210.97 144.45 211.25 143.76 208.5 141.22 208.64 140.22 205.18 140.12 205.34 138.54 204.44 135.1 205.34 134.37 208.46 136.69 211.04 141.22 213.17"/><polygon class="cls-5" points="141.22 226.37 142 227.32 147.61 228.98 149.55 225.54 142.39 220.66 141.22 226.37"/><polygon class="cls-2" points="147.13 215.85 147.13 214.2 145.38 213.1 144.11 216.54 140.33 216.54 141.22 214.89 141.22 213.17 136.69 211.04 134.37 208.46 134.35 208.57 129.19 208.57 128.09 209.68 128.44 210.22 126.65 212.69 126.93 216.13 125.83 218.59 125.14 222.86 126.38 226.57 125.62 230.22 126.03 235.09 125.62 240.59 127.27 245.4 127.48 253.99 126.52 254.54 126.86 257.77 128.3 257.29 128.99 260.45 133.39 260.45 137.58 266.58 138.81 265.26 132.22 257.98 135.52 250.56 132.22 248.63 134.69 246.43 136.48 241.21 134.28 239.01 137.58 239.7 137.58 235.57 143.76 234.34 144.59 230.63 141.56 227.19 142 227.32 141.22 226.37 142.39 220.66 142.69 220.87 143.49 219.22 147.13 215.85"/><polygon class="cls-1" points="170.84 184.03 161.35 180.19 154.35 178.33 150.09 176.47 150.5 174.55 148.24 171.63 146.24 174.28 145.21 174.28 144.8 173.56 142.8 172.97 142.8 174.28 141.99 173.96 138.75 175.51 137.44 174.07 137.44 171.18 135.86 169.86 130.64 171.05 131.74 173.59 128.92 176.06 126.93 174.42 123.47 174.76 123.01 182.38 122.81 182.27 122.94 183.21 120.78 183.21 117.96 186.1 118.75 189.81 122.32 190.56 124.42 193.19 129.54 190.9 130.64 194.07 136.55 196.47 137.24 199.7 139.64 200.05 141.22 203.59 140.22 205.18 141.22 208.64 143.76 208.5 144.45 211.25 146.17 210.97 145.38 213.1 147.13 214.2 147.13 215.85 143.49 219.22 142.69 220.87 149.55 225.54 154.21 217.29 154.21 214.13 163.28 209.32 166.3 201.9 166.3 194.89 172.35 187.33 170.84 184.03"/><polygon class="cls-5" points="55.8 65.15 52.71 66.8 49.34 62.26 65.17 33.93 65.01 33.79 62.81 31.2 57.45 27.9 55.94 27.9 54.98 24.74 51.95 22.27 45.08 23.78 38.48 27.63 36.01 26.8 34.22 29 34.91 34.64 37.38 37.38 34.22 38.62 32.02 37.66 33.54 36.28 32.02 35.19 25.56 37.11 26.11 42.13 28.18 43.02 32.85 42.13 31.06 46.18 24.88 47.14 20.34 50.85 20.34 56.35 23.09 56.9 22.13 61.02 25.7 62.12 27.08 62.12 21.58 67.35 11.54 71.33 12.78 72.02 17.32 71.19 28.31 65.15 33.12 62.81 31.47 60.89 35.32 58.69 38.35 57.73 35.19 62.54 39.45 61.02 40.82 58.41 44.67 60.75 50.72 65.15 53.19 72.71 55.38 79.72 57.86 77.72 55.8 65.15"/><path class="cls-5" d="M130.05,103.36l-3.69,3-6.16,2.24.06.23-1.1,1-1.37-.51-1.79.51h0l-.48.78.48.39-5.22,2.34-1-1.24,1.3-.2.56-.44.39-2.24h-.19l-.62-1.38-.76.83s-.48-.55-.68-.55,1-1.17,1-1.17l.41-1.31-2-.75-1.38.82-.89,1.65-.21,2.54-1.92,2.2-.69-.89,1.34-3.71-.45-1.38,1.79-2h3.92l-1.17-1.37-2.2.55-1.58-1,.41-1.3L102,102.74l-1.79-1.1,3.24-1.67-4.75-2.32L61.07,94.09l.37.61-3.3.27-.69,6.6-2.61,7v6.73l2.06,6.81,3.71,3.09.29,1.22,3.29.43,5.49,2.59h6.19l3.57,4.28,2.78-1,2.44,5.6,2.39,1,.77-4.59L92.91,133l3.57.83,1.65-.83-.27-1.1,7.28.69,2.2,1.24-.14,2.88,1.79,4.13,1.51-.83.28-3.34-1.1-6.92,7.28-4.94,1.24-7,.17-.16.65,2.69,1.24-2-.47-2,.25-.25.22,1.47,1.86-2.33-.26-.87.46-.44,4.81-1.44.42-3,4.74-2.19v-4Z"/><polygon class="cls-3" points="51.4 79.75 54.01 80.37 52.71 85.89 51.4 83.91 51.4 79.75"/><path class="cls-3" d="M55.11,88.75l-.55,1.31,2.75,3.13,1.51.82c.55-.82-2.13-4-2.13-4Z"/><polygon class="cls-3" points="86.04 31.16 88.65 35.05 94.97 30.51 100.88 29.82 99.92 25.01 92.77 23.74 91.95 26.47 86.04 31.16"/><path class="cls-3" d="M100.88,31.16H96.21l-3.3,2.63s-.27.85,0,1.26,3.93.68,3.93.68L92,36.67v1.95h4.47l1.71,2.89L92,39.58l-.69,1.93,2.2,1.78v3.3h4L102.12,44l1.24,3.3h3.71l-1-2.47,2.62,1V43.71l-1.52-3.85,2.07-6.07-1.79-2.63-3,6.77L105,33Z"/><path class="cls-3" d="M119,31.16c-.41.18-3.71,1.41-3.71,1.41s-4.12,2.2-3.84,2.48,3,7.08,3,7.08l3.16-2.91L119,35.05Z"/><polygon class="cls-3" points="126.72 33.79 122.05 32.44 119.02 37.52 119.85 39.22 121.77 36.67 122.87 38.21 126.72 33.79"/><path class="cls-3" d="M107.75,18c-.41-.14-6.32,4.53-5.91,4.26s3,4.2,3,4.2l6.66-.91,1.8.91,3.16-4.23-2.88,0,1.1-4.27H112.7l-1.78,5-1.8-.69Z"/><polygon class="cls-3" points="109.12 13.06 106.52 13.06 99.37 16.22 100.88 19.1 107.34 16.84 109.12 13.06"/><polygon class="cls-3" points="116.41 13.06 111.45 12.37 112.01 16.08 114.63 16.08 116.41 13.06"/><polygon class="cls-3" points="119.02 9.48 118.47 13.06 114.63 11.27 119.02 9.48"/><polygon class="cls-3" points="118.06 21.01 118.06 25.15 120.4 25.15 119.02 28.53 121.22 28.53 124.93 22.23 121.5 21.01 121.5 23.74 119.02 22.96 118.06 21.01"/><polygon class="cls-3" points="124.93 9.48 122.05 14.23 124.93 14.23 124.25 19.1 126.72 19.1 128.65 13.06 124.93 9.48"/><polygon class="cls-3" points="131.81 16.84 129.75 14.23 128.65 18 130.23 19.1 131.81 16.84"/><polygon class="cls-3" points="131.81 21.01 127.96 19.1 127.96 21.01 130.23 22.27 131.81 21.01"/><polygon class="cls-3" points="126.17 21.01 126.17 24.77 128.65 25.43 127.96 28.53 126.72 31.16 129.88 33.12 136.34 34.36 139.64 33.79 139.64 29.82 135.93 29.39 129.88 27.68 131.39 24.77 128.65 22.96 126.17 21.01"/><polygon class="cls-3" points="126.17 27.68 124.93 31.16 122.87 29.39 124.52 26.47 126.17 27.68"/><polygon class="cls-3" points="112.7 45.49 113.93 49.2 112.7 50.44 109.27 47.97 112.7 45.49"/><polygon class="cls-3" points="132.36 35.83 128.65 35.83 123.56 42.13 122.87 46.18 127.96 48.65 132.36 49.75 134 47.28 135.52 51.82 138.4 56.08 135.1 60.61 134.28 62.67 130.23 61.44 128.65 65.15 132.36 65.15 135.24 66.8 136.75 69.68 141.29 72.71 139.64 68.03 143.21 70.51 144.45 67.48 141.7 61.85 143.49 60.61 145.96 65.97 150.22 60.47 144.04 55.11 146.51 53.05 144.31 47.97 141.01 44.39 139.64 42.13 134.69 42.13 135.65 36.67 131.81 37.52 130.23 39.22 128.65 44.67 127.96 42.13 129.88 37.93 132.36 35.83"/><polygon class="cls-3" points="136.55 36.67 136.55 40.68 140.46 40.68 139.64 37.66 136.55 36.67"/><polygon class="cls-3" points="136.55 55.53 134.97 54.27 132.36 55.53 132.91 58.14 136.55 55.53"/><polygon class="cls-3" points="121.5 60.2 119.02 63.64 118.06 65.83 119.78 67.35 122.87 65.15 124.93 66.52 126.17 63.77 121.5 60.2"/><path class="cls-3" d="M132.91,26.47l3.64,1.21,3.91.85,3.85-2.06-.68-1.7L147.89,23l3.57-3.86-1.24-2.26h4.68L159,13.06l6.18-1.79s.14-2.2,0-1.79,4.54-1.92,4.54-1.92l-1.1-3-4.4-2.86L157.78,0l-8.66,1.51-6.18,2.06-.55,4.95,5.36,2.75-.69,1.1L142,9.48l-.83-5h-1.51l-3.85,4.15-1.34,4.4,2.1,1.23h-2.82l-.27,4.81h3.09l2,1-4.06,3.67Z"/><polygon class="cls-3" points="109.12 30.38 110.09 33.12 112.56 31.75 112.56 30.38 109.12 30.38"/><path class="cls-3" d="M149.33,95.52l-1.51.55L146,98.8l-2.54,3.8.69.58h1.51l2.4-.37,1.31.37-2.2,1.41,1,.62,2.06-2-.55,1.21,1.58.82s1.24-2.68,1-2.68a13.71,13.71,0,0,1-1.51-.48l.42-2.68h-3.33v-1.1Z"/><polygon class="cls-6" points="105.9 95.52 107 95.52 107 97.24 105.49 96.83 105.9 95.52"/><path class="cls-3" d="M148.44,90.62l-2.62-1.87-3-3.54,1.65-1.3-3-8.28-2.75,4.91-3.3-1.24.55-5.08-2.06-1.51-1-2.61-5.64-1.17-1.37,6.7-2.2,3.5,1.65,4.09L124,85.63l-3.85,1.27.14,6.29-2.89.82-1.23-2.82,1.51-4.91-3.85-.65-5.5-5.26-3.16,1.06,1-5.8-1.78-.17,7.15-8.94,3.71-2.61,4.67-2.47,1.79-2.34,4.94-1.37,1.52-1.93-.55-3h1.58l1-1.93-3.71-2.2L125.07,51l-3.43,4.26-.55-2.88.41-3.72-2.34,2.75-.55-2.75L120,45.36l-.69-5.5-4,2.27s-1.78,3.64-1.37,3.91,2.2,2.2,2.2,2.2l-1.79,3.3-2.47,2.75-1.24-4.4L108,51.68l-4.54-1.1L102.26,47H99l-1.38,4-1.37-2.34L92,48.79l-1.79-1.65,2.2-.41-.69-3.3-5.77-4-2.47,1.1-2.06-1.1v-5L69.55,37.93l-4.38-4L49.34,62.26l3.37,4.54,3.09-1.65,2.06,12.57-2.48,2v0L57,87.41l4,6.68,37.61,3.56,4.75,2.32,3.29-1.7,1.38.41L110,100.4l.28,2.47,4.26,1.59,1.44,2.16-1.17.93-1.51-1.44-.41,3.16H112l-.39,2.24,1.26-1,1.07.35,1.37-.35.21.16.48-.78-.69-1,2.48-.61.75.48L119,108l1-.41.28,1.07,6.16-2.24,3.69-3h2.24v4l.62-.28.55,2.75,3.16-1.93,5.63-2.4-.69-1.28-2.47,1.28-2.89-.55-.82-2.87,2.47-1.22-1.65-2-7.07,4,4.19-4,2.33-1.72,7.15.48,4.26-1.58,2.2-2.06ZM85.76,72.71,85,74.15l-2.68-.41v-.62l1.92.14L85.08,72l2-.55,2.27,1.31Zm7.18,2.06a9,9,0,0,1,1.38,0l-1.38,2.68s-.58-.21-.65-.35A10.88,10.88,0,0,1,92.94,74.77Zm0,5V78.34l1.83-1.85,1.1,1.37-1.93.41v1.48L92,81.3l-.35-1Zm.79,10.58-1,1.62-.65-.36,1-2.11-1.31-.14v-.69h2Zm.21,4.37a20.89,20.89,0,0,1,0-3l.55-.36L94.32,93l.45,1.31A4.93,4.93,0,0,1,93.94,94.7Zm2.2,0V91.05h-.76l-.55-1.57.55-1H93.94l-1.65-1.37.48-1.51h1.55L94,87.14l.62.69.82-1.38,1.24.55v3.71l.55,3.3Zm26.73,5.36,1.1-.69.62,1.31Zm4.47-4.54-2,.86v-.86l2-.82Zm5.43-5.43-1.1-.89,1-1.51,1.24.75Zm7.9.55h-2.4l.27,2.4-1.51-3,.82-.89,2.82.34Z"/><polygon class="cls-5" points="399.5 78.11 398.27 80.17 399.5 84.09 401.26 85.74 402.7 91.82 404.04 95.12 404.97 97.69 405.38 95.73 406.82 96.77 406.82 95.32 404.56 93.78 403.94 89.76 406.2 90.69 404.35 87.9 401.88 83.78 401.15 81.82 399.5 78.11"/><polygon class="cls-5" points="411.36 99.86 412.39 99.86 414.45 97.69 414.45 96.35 412.29 97.69 411.36 99.86"/><polygon class="cls-5" points="415.27 96.97 416.51 95.01 415.89 94.4 414.86 96.97 415.27 96.97"/><polygon class="cls-5" points="234.69 36.67 236.44 28.63 238.29 28.02 234.69 24.3 233.14 22.96 232.31 23.48 232.73 27.5 231.49 24.1 230.36 23.68 227.99 25.34 230.36 29.25 231.08 30.39 232.11 29.82 231.8 28.22 234.58 29.82 231.08 31.11 232.52 34.2 234.69 36.67"/><polygon class="cls-5" points="238.91 28.53 237.37 28.53 238.14 30.28 238.29 33.27 240.05 32.03 240.05 33.79 241.93 31.16 239.65 30.7 239.65 29.46 238.29 29.82 238.91 28.53"/><polygon class="cls-5" points="237.37 21.01 235.3 21.01 234.27 22.96 235.82 24.3 237.78 23.79 236.03 24.92 237.78 25.95 239.65 26.47 241.93 25.44 242.4 22.04 239.65 21.01 238.33 22.45 237.37 22.04 237.37 21.01"/><polygon class="cls-5" points="256.54 18.12 258.94 19.05 259.32 16.84 260.38 16.84 259.73 15.64 258.46 15.64 256.54 18.12"/><polygon class="cls-5" points="259.63 20.18 261.07 21.01 261.82 19.05 263.13 17.35 261.38 15.64 260.38 17.35 259.63 20.18"/><polygon class="cls-5" points="264.78 19.05 266.64 18.32 268.08 19.05 269.11 18.69 270.14 17.35 268.39 16.37 266.95 17.35 264.37 16.84 264.78 19.05"/><polygon class="cls-5" points="271.38 14 269.52 14.72 270.14 17.35 271.89 16.37 270.71 15.23 271.89 14.72 271.38 14"/><polygon class="cls-5" points="272.82 11.11 271.38 11.11 271.38 12.86 272.82 14.62 273.75 12.86 272.82 11.11"/><polygon class="cls-5" points="267.26 11.52 265.61 11.52 265.61 12.86 264.68 14 264.68 15.64 265.97 16.37 267.26 16.37 268.39 14.62 266.54 12.86 267.26 11.52"/><polygon class="cls-5" points="271.38 18.32 270.71 17.71 269.52 19.05 270.45 19.67 271.38 18.32"/><polygon class="cls-5" points="263.13 19.67 262.21 19.67 263.13 21.01 264.37 20.34 263.13 19.67"/><polygon class="cls-5" points="267.26 9.77 265.61 9.77 266.43 11.11 267.26 11.11 267.26 9.77"/><polygon class="cls-5" points="298.39 4.51 296.74 7.92 297.56 10.44 300.76 11.11 302.72 8.43 298.39 4.51"/><polygon class="cls-5" points="304.06 8.64 301.58 11.52 301.58 13.28 304.06 14.31 307.77 14.62 308.8 13.38 306.32 9.77 304.06 8.64"/><polygon class="cls-5" points="309.52 10.44 309.52 12.86 310.65 17.35 311.58 17.71 313.23 15.64 314.88 14.07 314.29 12.86 309.52 10.44"/><polygon class="cls-5" points="367.45 10.44 367.45 12.35 364.15 12.35 362.4 11.11 363.94 10.44 367.45 10.44"/><polygon class="cls-5" points="362.4 18.32 361.47 21.01 365.49 21.01 365.49 19.05 362.4 18.32"/><polygon class="cls-5" points="360.34 11.11 355.49 10.44 355.49 12.86 352.4 10.44 351.27 12.86 353.33 15.67 356.83 17.35 359.61 14.62 361.47 13.38 360.34 11.11"/><path class="cls-5" d="M283.75,28.53l1.65,2.63-5,4.38-2.48,4.74L276.43,46l1.75,3.61,2.74,1.23-1.29,1.14-3.71-.62-3.35-3,1.18-1.65V44.82l.52-5.57-.52-2.06,2.06-1.14.52-2.26s3.92-2,4-2,1.75-2,1.75-2Z"/><polygon class="cls-5" points="273.75 55.74 271.38 55.33 271.38 56.77 271.89 57.91 273.75 57.91 273.75 55.74"/><polygon class="cls-5" points="291.79 39.35 292.72 41.11 290.97 41.11 290.24 40.23 291.79 39.35"/><polygon class="cls-5" points="333.12 25.85 331.27 26.47 331.27 27.91 333.12 27.91 333.12 25.85"/><path class="cls-5" d="M422.49,37.25l1-.83,1.71.42.62-4.06-2.54-2.4.69-1.31,1,1.58,1.37.34.28-1.44,1.64-.07,1,1.17,3.85-1-2-3.37-1.51-.89,1.79-2L430,21l-3.16-.48-1.71,1.37,1.78,2.41h-1.58l-1.85-2.75-7.84-1-6.39-1L402.77,21l.76,1.65,2.26,1.79L405.25,26l-1.52-1L402,24.4,400.71,23,400,24.81,394.8,26l.21,1.72-1.65-1.1-2.06.48-1-2.74L387.31,23l-4.19,2-2.61.75-.21-1L379,24.05l-.89.83-2.34-1.38.21-1.44-3.57.41-.55,3-.48-2.34-1.72.69.07-1.38-5.91.41,1.71,1.45-1.44,1.17,1.44.41,1.17,2-1.51.14.07,1.85-2.68-1.1-1.24.55.21.83-2.06-.07-1.24-1,1,4.47-3.43-1.79L353,30.24l1.65-.35-1-1.51-1,.21-.06-1.45-3.71-1.58-2.82.35-1,.62,1.3,2.13-3.5,1-2.48-.14.07-1.72L335,28.93l-2,.83-2.06-.9V31l-2.34,3.58-.27-2.34,1.71-5.63.62-4.2-4.12-2.88-2.06-.9-2.34,1.1-.82,1.93-.76-3-2.88.9.41-2.13-2.27-.55-1,3.36,2.47,3-3,.34,1.83,2.2-1.83-1-1.54,1.51-.83-.62-2.75.69,1.24.62-3.57,2.54-1.45,2.82.14,2,2.27,1.1-1,.69L301.34,38,303,41.3l2.68,1.44,1.11.65.54.32,1,2.4-1.17,1.17-.55-3.5h-2.33l-3.37-1.86L300,43.09l.61,1.3-1.85-.61,1.1,2.19,2.75.83-4.13-.48-1.51-4.74-.89-.07,1,2.75-1.1,1,.69,1.92,1.85,1.45.83,3.64.89.82,2-1,2.88,1.65L305,55l-1.1-.69L302.44,53l-1.65,1.38,1.1,2.75-.76,2.54-.89,1.17-1.31-.48,1-5.57L298,52.85l-1.79-5-1.3-1.1-.55-4.26-3.85-.28.14,4.27-1,2.13,2.26,4.32,1.1.21,1.79,1.51-.21,2.07L291,54.43,287.11,53l-2.4.07-.27,1,1,1.79L284.37,57l-.9-1.24-3.71,1.31-.55,1-1.44.07-.14-1.58-4.74,3.36-.69.62L272,62.4l-1.72.2L269.11,61l1.37-1.1L269,58.27l-2.33-.2.82,3.92,1,.27.14,2.41-2.34-.76-2.54,2.61,1.37,1.79-.89,1-3.44-1.65-.48,1.31,2.2,1-.89,1-2.41-1.17-1.3-2.54.2-1.93-3.36-2.13.55-.27,3.57,1.58,2.89.89,2.81-1.3.35-2.2-6.81-4.59-2.73.41L253,56.83l-.87-.28-1.67,1.75-.09-.2L250,59.35l2.11,2.81-.64,1.43L253,66.9v1.76l1.21,3.91.9,1.2-2.93,5,1.51,1.31L252,81.46l.54,3.24.63,3.34-1.31,1.24-1.09,2.46L248.16,93l0,0,.7,2-.58.94.12.73,1.34.25,1.56-.49,2.7.64h3.49l.23-.92,1.42-.21.3-.52h2l.22,1.18.68.69.75-.18,1.2,2,1.89-.48.59.67,2.93.65.34.76-.57.34.34,1.52-.11.75-1.13.34-.29,1,.57-.18-.41,1.1-.82,2.13-.89-.06.06.68,1.58.9,2.75,2,2.13,1.65-.24,1.24,2.3.44.83.7,1.86-.24.74-.58,1.89.58-.61-1.11.37-.41,1.47,1.06,1.46-1.08-2.1-3.21-1.51-1,.69-2.41,1.31-.41.95-.79-1.3-1-2.62-2.47-.14-3,.7-1,1.7,1.31V97.93l2.15-2.2H285l3.37,1.58,3.31-.69,2.37.69,2.72-.28v-1.3l-1.59-1.31.53-2.13h1.06l-1.59-1.37,1.59-.48L303.11,88l1.6-1.3,2.54.34.41,1.86,4.81,1L315,88l6.11,6.88,2.06.13,2.13-.75,2.34,2.13,1.44.48,1.45-.14.71,1.08.39-.39.26.37,1-.92,1.95-2.41,2.82-.69,3.08,1.71,3.72-.4-1.17-2.89,1.17-1.65,4.53.76,1.86,2.27,4.12-.55,3.71,1.58L364,93.8l2.13-1.92,3.07.78,0-.23,1.71.14,1.1-1.31-.27-2.2.34-1.58V86.06l-1.17-.3.35-1.16,2.47-1h2.41l2.47.83,2.41,3.44,2,2.95,1.92.41,3.09,1.24.7,2.34,1.85.34.69-1.45,1.78-.89,1,1.56-.27,1.28.27,4.79-1.89-.28-.85.83.85,3.64-.61,1,.61.39.31-.38.62-1.51,1,.07.48,1,1.52-.34,2.33-4.67,1.45-5.23.62-3.85-1.24-4-.48-3.57-.55-1.17-.55-2.06-3.78-1.79L393.29,80l-1-.55-1,.41-.83-2.13-2.2-.07L390.68,71l1-4.33.82-2.13,5.29-1.65,2.07-.07.27-1.72s3.23.48,3.44.55-.35,1.1-.35,1.1l.39.62,3.87-2.13-.61-.82-1.1-.14.41-3.92L406,54l1.86-1.16,2.06-.69.34,2.47,1.86.9,1.23-4-1.3-2.68,2.47-.48.9,5.84-1.52,1.44-.13,5.71-.28,2.47L412.12,65l.48,1.93-.14,3.5,5,8.73,1.85,3.36,1.58-1.44-.48-3.64,1.31-1-.83-2.68,1.38-1.51-1.58-4.88,1.58-.14-1.17-1.65h-1l.07-2.47-1.24-.42-.27,1-1-1.1.07-3.77-.89-2.41,2.27-1.86,1,1.65,1-2.74,1.72-.42L425,54.63v-1.3l.62-4.47L428.68,44h2.13V42.26l-7-5ZM256.33,79.92l-2.2-2.2,1-2.26,2.75,3Zm4.67-2.2-2.06-2.26.62-1.93.82.55.83,1.55.62,1.68Zm4.67,6.65-2.33-1.8.82-1.14,2,1.65Zm88.24,4.07v2l-3.16.85v-.85l1.79-.8,1-2.71,1.3-2.53-1.3-3.52h2l.82,5.14Z"/><polygon class="cls-4" points="421.33 156.89 420.78 156.41 420.09 157.3 420.71 158.4 421.33 156.89"/><polygon class="cls-3" points="440.57 187.47 440.57 187.92 442.01 189.6 442.63 188.84 440.57 187.47"/><polygon class="cls-3" points="442.08 190.53 441.6 191.32 443.45 192.21 443.73 191.37 442.08 190.53"/><polygon class="cls-3" points="443.73 188.84 443.25 188.84 444.42 191.37 445.24 190.84 443.73 188.84"/><polygon class="cls-3" points="444.24 191.8 444.24 192.56 445.79 193.45 445.79 192.56 444.24 191.8"/><polygon class="cls-5" points="451.08 198.74 450.26 199.15 451.08 200.73 451.98 200.32 451.08 198.74"/><polygon class="cls-5" points="451.98 200.73 451.63 201.9 452.59 201.9 451.98 200.73"/><polygon class="cls-5" points="453.28 203.14 452.59 203.14 452.94 204.44 453.63 204.44 453.28 203.14"/><polygon class="cls-1" points="467.02 203.14 465.65 203.79 465.17 204.86 467.02 205.2 467.37 204.17 467.02 203.14"/><polygon class="cls-1" points="469.36 201.32 467.37 202.11 467.37 202.86 469.36 202.86 469.36 201.32"/><polygon class="cls-2" points="446.75 207.67 446.34 208.29 447.65 210.42 449.78 211.87 450.26 210.97 448.3 209.19 446.75 207.67"/><polygon class="cls-4" points="454.38 235.3 453.49 235.64 453.93 238.67 454.38 241.62 453.93 245.33 452.25 245.74 452.25 246.91 453.69 248.43 452.25 250.9 452.87 252.07 456.85 247.53 458.3 246.57 459.88 243.68 459.19 243.06 457.95 244.1 456.65 242.93 456.51 240.25 455.27 240.59 456.06 237.91 454.38 235.3"/><polygon class="cls-4" points="449.43 249.04 451.36 251.59 450.88 253.17 448.19 255.57 448.19 256.95 445.58 257.5 443.59 260.59 440.84 262.99 439.06 262.1 437.41 261.41 439.54 257.91 443.18 255.71 446.48 253.31 449.43 249.04"/><polygon class="cls-4" points="438.09 262.38 439.33 263.68 437.41 264.44 438.09 262.38"/><path class="cls-1" d="M411.84,245.33a24,24,0,0,1,2.41,1.79l2.54-.89L416.1,249l-1.78,2.07-1.79,1-.69-1.38Z"/><path class="cls-1" d="M418.44,193h-1l-1,4.12-.73,4.93-1.4,1.32-2-1.32-3.78-2.35-.48-1.52,2-3.33-3.27-.41-2.71-1v1.3l-2.41.28-2.34,2.47v1.72l-1.58-.48-1.85-1.37-3,2-1.64,2-.49,1.54-1.25-1.54-1.15,1.54v1.31L387,206.23l-8.39,2.2-2.27,1.34-1,4.43.55,2.2-.55.69.48,4,.69,5.3s-1.85,3-1.65,3.09a10.73,10.73,0,0,1,1.17,1.72l2.61.68,3.64-1.92H386l1.72-1.58,1.84-.14.64-1h2.4l2.2-.82,4.19.41,2.34,1,1.48,4.88,3.6-3.71-1.92,4.33,2.3-.62-.72,1.92,1.44-.34v3.37l.62,1.72,3.71,2.4,2-1.58,1.23,2.27,3.37-2.27,2.06.07,1-1.44,1-3.44,5.09-7,2.82-7.56-1-5.7-4.74-8.32-2.54-2.27-1-6-1.51-.42Z"/><polygon class="cls-1" points="400.71 193.04 400.71 194.14 402.01 194.48 402.81 193.45 400.71 193.04"/><polygon class="cls-1" points="403.32 234.82 405.25 234.2 405.86 235.3 403.8 235.3 403.32 234.82"/><polygon class="cls-1" points="397 189.6 396.65 188.84 394.15 189.26 393.02 189.94 394.35 190.6 394.46 190.5 397 189.6"/><polygon class="cls-2" points="426.48 184.45 426.48 185.48 428.88 186.25 430.88 186.25 432.32 184.45 432.32 182.8 431.36 182.8 430.33 185.03 428.54 185.03 426.48 184.45"/><polygon class="cls-2" points="429.98 180.53 429.98 181.32 431.98 182.06 433.14 184.1 433.56 184.1 432.32 181.56 429.98 180.53"/><polygon class="cls-2" points="435.41 184.52 435.41 185.75 436.31 186.99 437.48 186.25 435.41 184.52"/><polygon class="cls-2" points="427.17 189.94 424.69 186.85 425.79 186.72 425.65 185.48 422.84 184.45 423.18 183.21 416.41 180.59 416.16 190.35 416.38 190.53 419.06 190.98 419.61 188.36 421.39 188.02 423.39 189.19 425.17 191.73 429.44 192.56 429.44 191.52 427.17 189.94"/><path class="cls-5" d="M355.63,169.6l-3.09-.75v1l1.54,1.79,2.85,2.81s2.69,4.75,2.75,5,1.1,1.86,1.1,1.86l4.47,4.26h1.86l.68-3.78-1.85-1.24-.48-1.65-1.45-.55.55-1.1-.82-.82-2.34-1.65-3-2.68Z"/><path class="cls-5" d="M368.21,185.48l-1.86,1.44,4.19,1.44,4.74.69,2.89.41h2.61l1.51.83,2.68-.35s-.13,1.17,0,1.17,2.89,1.1,2.89,1.1V190.7l-2.34-.48.48-.62,1.86.28,2.95-.28v-1.1l-1.64.69-1.79-.35-2.48.35-2.82-.35H380l-1.44-.48L376.31,187l-2.47-1-.27,1.1-2.52-.21Z"/><polygon class="cls-5" points="355.63 174.96 354.67 174.96 355.63 176.47 356.45 175.72 355.63 174.96"/><polygon class="cls-5" points="357.42 178.4 356.8 179.16 357.97 180.19 358.38 179.29 357.42 178.4"/><polygon class="cls-5" points="367.04 179.29 366.35 180.19 368.34 181.77 368.82 180.94 367.04 179.29"/><polygon class="cls-5" points="369.51 180.87 369.51 181.77 370.68 181.77 371.05 180.87 369.51 180.87"/><polygon class="cls-5" points="394.15 174.96 392.26 175.72 388.2 175.34 386.62 176.47 386 178.81 384.97 182.25 386 182.66 386 185.27 387.52 185.48 387.79 181.32 388.27 181.77 389.1 184.58 391.64 183.21 389.03 180.22 391.91 178.81 391.71 177.78 388.27 179.29 386.97 177.57 388 176.47 390.19 176.47 392.39 177.16 394.15 175.72 394.15 174.96"/><path class="cls-5" d="M398.85,173.66a10,10,0,0,0-1.51.89v2.61l1.51,1.58v-.82l-.75-1.45h1.3V175h-1Z"/><polygon class="cls-5" points="396.18 181.32 394.8 181.77 395.49 182.8 397 182.8 396.18 181.32"/><polygon class="cls-5" points="397.75 181.32 398.1 182.8 400.3 182.06 402.29 182.8 401.6 181.32 400.02 180.87 397.75 181.32"/><path class="cls-5" d="M407.51,185.48a3.13,3.13,0,0,0-.75-.45l-.69,1.34.34,1.1Z"/><polygon class="cls-5" points="403.32 186.99 402.29 187.47 402.56 188.84 403.32 187.92 403.32 186.99"/><polygon class="cls-5" points="392.05 190.53 391.3 192.21 393.15 191.8 394.35 190.6 393.02 189.94 392.05 190.53"/><polygon class="cls-5" points="411.64 178.74 408.89 181.84 407.17 180.87 406.76 178.4 404.28 177.51 402.01 178.4 402.29 179.19 403.94 180.53 406 180.19 406.21 180.87 403.8 181.32 404.9 183.21 406.34 182.06 411.5 184.72 413.08 187.26 411.7 189.19 414.32 188.84 416.16 190.35 416.41 180.59 411.64 178.74"/><path class="cls-5" d="M384.08,173.66l-.83-1.38.63-1.17-2.48-.34-1.65,4.4-5.57,1-1.12-1.66-.8-.2s-1.58,2.13-1.13,2.07,2.5,5.29,2.5,5.29l5.23.41.68,1.1,1.79-1.1.75-2.61,1.59-3.3,1.92-.28-1.79-1.58Z"/><polygon class="cls-1" points="389.56 152.22 386.83 148.99 386 150.29 385.59 154 386.97 155.86 388.13 156.82 390.26 157.3 392.05 158.88 393.29 160.05 392.39 160.05 391.3 162.11 390.81 160.12 389.44 159.71 389.44 161.63 390.47 161.15 389.92 163 391.3 163.83 392.32 162.11 392.67 163 393.63 162.59 392.88 160.94 394.15 161.01 394.8 160.74 394.15 158.33 391.85 157.99 391.3 156.41 389.85 155.65 388.48 155.65 388.13 153.94 389.56 152.22"/><polygon class="cls-1" points="394.15 162.66 392.39 165.2 391.77 164.59 389.56 165.93 389.56 167.27 390.19 167.27 390.81 166.1 392.46 166.1 392.6 167.95 394.15 168.85 394.8 167.61 394.8 166.31 396.24 166.72 395.62 163.83 394.15 162.66"/><polygon class="cls-1" points="385.59 160.12 386 161.56 383.05 164.59 382.43 164.18 385.59 160.12"/><polygon class="cls-1" points="386.48 156.89 387.79 159.29 388.75 158.54 388.2 157.3 386.48 156.89"/><polygon class="cls-3" points="387.31 139.23 386.28 138.5 384.97 140.6 384.97 142.59 385.8 143.56 386.14 144.52 386.62 144.52 386.14 143.28 386.97 142.25 387.31 139.23"/><path class="cls-2" d="M331,163l-.48,3.1.82,2.75,2.06-1.24a7.22,7.22,0,0,1,0-1.68,12.65,12.65,0,0,0-1.44-2.44Z"/><polygon class="cls-1" points="411.36 101.2 404.97 98.42 404.97 99.45 405.58 101.2 405.58 103.06 404.56 103.06 404.56 105.22 405.38 107.38 406.82 106.35 405.58 104.7 406.82 104.5 409.09 105.73 409.61 102.9 411.36 102.9 411.36 101.2"/><polygon class="cls-1" points="406.82 107.38 405.58 108.62 405.58 110.58 406.2 113.47 405.58 116.04 403.32 116.04 402.55 118.62 401.15 119.14 398.68 119.75 396.41 122.01 396.41 123.15 395.18 124.6 397.03 128.62 398.27 127.59 398.27 123.98 397.13 122.84 398.27 122.01 401.56 120.99 402.55 122.53 403.21 123.67 404.56 121.61 404.56 120.37 406.1 120.99 406.82 120.27 407.95 118.82 408.47 120.68 409.61 118.72 408.78 117.48 407.95 114.39 409.19 113.36 408.68 109.75 406.82 107.38"/><polygon class="cls-1" points="400.95 122.01 398.27 122.95 399.61 125.11 400.95 123.56 401.88 123.56 400.95 122.01"/><polygon class="cls-4" points="341.4 139.41 340.18 138.82 340.64 137.94 342.26 138.44 343.11 139.59 346.17 140.03 344.71 141.98 345.75 143.2 345.87 142.51 346.42 141.98 347.03 144.85 347.73 143.94 347.73 141.98 348.83 141.98 348.83 140.34 350.39 136.78 352.35 135.56 351.19 134.4 350.51 132.93 348.27 133.23 344.77 135.56 345.13 137.09 341.1 137.15 340.64 135.25 339.63 135.31 339.63 137.82 336.94 137.51 333.09 136.47 328.68 134.4 329.05 131.77 326.79 131.09 325.81 127.89 323.12 127.3 320.99 128.33 321.59 128.49 320.24 129.81 319.94 131.6 317.49 135.86 315.47 135.56 314.13 137.51 316.27 139.53 316.87 141.25 314.06 141.73 313.22 142.51 313.5 142.59 314.4 143.63 316.32 143.42 315.01 144.59 313.92 144.38 316.87 147.06 318.8 145.9 319.27 144.11 319.96 149.47 321.75 154.69 324.09 159.71 327.45 165.2 328.42 164.86 330.61 162.11 331.17 157.58 331.17 154.07 334.88 151.19 337.35 148.37 339.55 146.58 340.79 144.73 342.37 145.04 340.64 140.63 341.4 139.41"/><polygon class="cls-5" points="337.73 134.87 336.14 134.87 335.35 134.4 332.79 132.87 330.27 132.17 328.99 132.17 328.68 134.4 333.09 136.47 336.94 137.51 339.63 137.82 339.63 135.56 339.02 135.56 337.73 134.87"/><polygon class="cls-1" points="325.56 125.34 323.79 123.39 321.59 122.47 320.49 120.33 319.02 120.33 319.02 120.88 317.19 121.77 317.01 121.83 316.87 122.67 319.02 124.11 318.23 125.18 318.53 127.24 319.57 127.97 320.99 128.33 323.12 127.3 325.81 127.89 325.99 128.49 326.73 127.91 325.56 125.34"/><polygon class="cls-5" points="347.03 144.85 346.42 141.98 345.87 142.51 345.75 143.2 344.71 141.98 346.17 140.03 343.11 139.59 342.26 138.44 340.64 137.94 340.18 138.82 341.4 139.41 340.64 140.63 342.37 145.04 342.5 145.07 344.08 143.76 345.32 143.56 346.08 145.76 346.79 146.58 347.11 144.75 347.03 144.85"/><polygon class="cls-1" points="357.3 156.89 356.02 155.25 356.26 153.06 354.43 150.42 355.19 148.68 357.49 146.99 359.08 145.1 356.14 144.24 356.69 143.45 355.77 141.98 354.31 141.51 353.57 140.69 354.8 137.64 353.39 134.87 352.09 135.3 352.35 135.56 350.39 136.78 348.83 140.34 348.83 141.98 347.73 141.98 347.73 143.94 347.11 144.75 346.79 146.58 347.45 147.34 348.89 148.44 348.27 148.92 348.89 149.74 349.58 148.99 350.54 151.67 349.93 153.8 350.54 154.14 353.57 152.63 353.57 151.6 355.22 154.83 356.31 157.71 356.87 160.19 356.45 162.04 356.45 162.89 357.73 160.12 357.55 158.75 357.3 156.89"/><polygon class="cls-2" points="341.95 134.99 340.82 136.01 341.1 137.15 345.13 137.09 344.77 135.56 344.82 135.52 344.15 134.99 341.95 134.99"/><polygon class="cls-3" points="367.79 161.37 367.09 160.12 369.11 158.4 368.49 156.41 367.09 155.68 367.09 156.89 365.25 155.92 362.9 155.92 361.89 157.41 362.25 159.68 363.39 161.08 364.08 162.04 365.19 162.04 365.74 161.37 367.79 161.37"/><polygon class="cls-5" points="370.27 153.73 367.04 151.19 366.76 150.36 365.66 149.54 365.87 147.47 366.69 145.83 368.2 145.3 366.48 144.52 366.48 143.26 364.09 142.51 361.28 143.45 360.33 143.74 361.28 145.22 361.89 146.25 363.85 146.25 364.52 147.34 363.3 148.34 363.91 149.56 365.5 150.36 366.9 152.25 369.11 153.54 368.74 154.82 368.4 156.36 368.49 156.41 369.11 158.4 367.09 160.12 367.79 161.37 365.74 161.37 365.19 162.04 365.25 162.04 365.94 162.18 365.46 164.65 366.35 164.45 368.14 161.97 369.03 161.91 371.37 159.98 371.37 157.71 370.27 153.73"/><polygon class="cls-4" points="389.58 117.38 388.89 117.86 390.06 119.64 389.64 120.88 390.47 122.46 392.26 121.02 394.04 119.92 392.67 116.34 391.3 114.36 388.56 115.89 389.58 117.38"/><polygon class="cls-2" points="389.29 107.38 389.65 108.59 387.45 107.91 385.37 111.03 385.37 112.07 386.62 112.43 386.62 115.52 387.31 116.41 388.41 115.66 388.56 115.89 391.3 114.36 391.3 114.35 390.68 113.66 389.37 112.98 389.23 111.74 391.57 109.33 391.09 107.27 392.15 106 390.94 105.22 389.29 107.38"/><polygon class="cls-3" points="391.31 101.02 392.15 100.19 394.04 100.47 393.77 95.69 394.04 94.4 393.08 92.84 391.31 93.73 390.61 95.18 388.76 94.83 388.06 92.5 384.97 91.26 383.05 90.85 381.06 87.9 378.65 84.46 376.18 83.63 373.77 83.63 371.3 84.59 370.95 85.77 372.12 86.06 372.12 87.48 371.78 89.06 372.05 91.26 370.95 92.57 369.24 92.43 368.75 96.97 369.85 96.97 371.57 96.97 372.47 96.07 374.12 97.69 374.6 98.96 372.81 99.23 371.44 100.4 370.75 101.64 369.24 102.12 368.14 103.29 366.35 102.94 365.04 103.42 365.04 104.66 366.21 105.22 364.7 107.75 359.41 109.47 358.03 110.44 355.97 110.44 352.94 109.06 350.75 108.72 348.14 109.06 345.8 109.06 344.01 106.38 341.2 104.94 338.59 104.94 337.07 104.04 337.42 102.9 337.07 101.43 335.91 99.86 334.16 99.58 333.36 99.86 331.58 97.38 330.55 98.42 329.58 99.86 330.06 101.16 329.1 102.19 326.73 101.78 326.08 104.66 326.73 105.22 325.6 105.62 323.67 105.97 323.67 106.89 324.43 107 325.19 109.61 324.64 110.82 323.12 110.23 319.62 110.16 315.7 109.82 315.7 110.82 312.88 110.82 312.35 111.94 312.35 113.17 313.27 113.8 313.76 112.99 314.53 113.8 313.88 114.4 311.93 113.93 310.95 114.92 311.38 115.63 309.05 116.9 309.97 118.65 309.67 120.48 311.13 120.88 312.6 120.39 313.52 118.65 314.53 119.06 314.53 121.55 315.7 121.55 317.12 119.93 319.02 119.56 319.02 120.33 320.49 120.33 321.59 122.47 323.79 123.39 325.56 125.34 326.73 127.91 325.99 128.49 326.79 131.09 329.05 131.77 328.99 132.17 330.27 132.17 332.79 132.87 335.35 134.4 336.14 134.87 337.73 134.87 339.02 135.56 339.63 135.56 339.63 135.31 340.64 135.25 340.82 136.01 341.95 134.99 344.15 134.99 344.82 135.52 348.27 133.23 350.51 132.93 351.19 134.4 352.09 135.3 353.39 134.87 354.8 137.64 353.57 140.69 354.31 141.51 355.77 141.98 356.69 143.45 356.14 144.24 359.08 145.1 358.76 145.47 359.69 145.65 359.69 143.94 361.28 143.45 364.09 142.51 366.48 143.26 366.48 144.52 368.2 145.3 369.65 144.79 370.88 145.21 371.37 146.79 372.19 146.72 372.19 145.28 375.69 144.04 379.89 142.32 381.74 140.02 383.46 136.62 384.97 133.8 385.73 130.84 383.8 129.88 385.25 128.58 383.67 127.34 384.7 126.65 382.02 123.01 380.3 122.25 380.64 120.12 382.29 118.47 383.94 118.13 384.01 116.83 381.95 116.83 381.12 116.21 380.23 116.83 379.61 117.92 378.79 117.92 378.44 116.48 377.69 116.55 376.45 115.45 376.59 114.01 378.03 114.14 378.38 112.36 379.41 112.15 380.3 110.16 381.95 110.57 381.19 112.43 381.74 113.46 381.12 114.28 381.61 114.69 382.57 113.8 382.91 113.11 385.18 112.02 385.37 112.07 385.37 111.03 387.45 107.91 389.65 108.59 389.29 107.38 390.94 105.22 391.54 105.61 392.15 104.66 391.31 101.02"/><polygon class="cls-4" points="364.01 93.8 358.58 94.56 354.87 92.98 350.75 93.53 348.89 91.26 344.36 90.5 343.19 92.16 344.36 95.04 340.64 95.44 337.56 93.73 334.74 94.42 332.79 96.83 331.84 97.75 333.36 99.86 334.16 99.58 335.91 99.86 337.07 101.43 337.42 102.9 337.07 104.04 338.59 104.94 341.2 104.94 344.01 106.38 345.8 109.06 348.14 109.06 350.75 108.72 352.94 109.06 355.97 110.44 358.03 110.44 359.41 109.47 364.7 107.75 366.21 105.22 365.04 104.66 365.04 103.42 366.35 102.94 368.14 103.29 369.24 102.12 370.75 101.64 371.44 100.4 372.81 99.23 374.6 98.96 374.12 97.69 372.47 96.07 371.57 96.97 369.85 96.97 368.75 96.97 369.21 92.66 366.14 91.88 364.01 93.8"/><polygon class="cls-4" points="348.83 157.3 348.14 158.13 347.73 161.63 348.27 162.11 348.27 160.32 348.83 158.75 348.83 157.3"/><polygon class="cls-4" points="349.44 164.59 350.27 167.61 350.75 167.13 350.1 165.14 349.44 164.59"/><polygon class="cls-4" points="379.75 175.17 381.4 170.77 383.88 171.1 384.42 170.08 386 169.33 382.29 166.72 378.52 170.56 375.69 173.11 374.53 174.9 373.06 174.54 374.18 176.2 379.75 175.17"/><polygon class="cls-4" points="359.27 168.16 359.82 170.84 361.19 172.9 364.91 175.17 365.25 174.41 363.94 172.49 363.81 169.74 362.09 167.89 362.05 167.87 358.88 167.65 359.27 168.16"/><polygon class="cls-2" points="364.7 153.11 364.27 151.21 362.9 150.02 362.5 150.91 361.4 150.6 359.38 151.21 359.38 148.68 358.65 148.68 357.54 146.93 357.49 146.99 355.19 148.68 354.43 150.42 356.26 153.06 356.02 155.25 357.3 156.89 357.55 158.75 357.73 160.12 356.45 162.89 356.45 165.2 356.87 165 358.88 167.65 362.05 167.87 360.17 166.85 359.27 166.03 359.62 165.69 359.13 164.52 358.17 163.42 357.55 162.94 358.03 160.94 358.52 158.88 358.58 157.44 359.75 157.44 359.75 158.68 362.16 159.57 362.25 159.68 361.89 157.41 362.9 155.92 365.25 155.92 365.65 156.13 366.05 154.21 364.7 153.11"/><polygon class="cls-4" points="369.11 153.54 366.9 152.25 365.5 150.36 363.91 149.56 363.3 148.34 364.52 147.34 363.85 146.25 361.89 146.25 361.28 145.22 360.33 143.74 359.69 143.94 359.69 145.65 358.76 145.47 357.54 146.93 358.65 148.68 359.38 148.68 359.38 151.21 361.4 150.6 362.5 150.91 362.9 150.02 364.27 151.21 364.7 153.11 366.05 154.21 365.65 156.13 367.09 156.89 367.09 155.68 368.4 156.36 368.74 154.82 369.11 153.54"/><polygon class="cls-3" points="372.74 147.34 370.54 147.34 369.51 148.3 370.13 150.02 371.37 150.02 372.26 149.4 372.74 148.02 372.74 147.34"/><polygon class="cls-2" points="262.31 125.48 262.99 126.45 264.78 125.97 265.54 124.86 263.92 124.86 262.31 125.48"/><rect class="cls-4" x="293.51" y="158.68" width="1.65" height="0.82"/><polygon class="cls-4" points="268.08 122.94 275.17 122.12 278.41 122.12 278.72 121.67 277.92 120.52 277.43 118.06 277.92 117.34 276.64 116.96 276.52 115.63 275.29 114.59 272.99 114.15 272.82 115.04 269.93 115.45 266.36 114.56 264.51 113.8 261.14 114.42 259.83 115.59 257.98 115.38 257.29 115.86 257.5 116.48 254.82 116.89 253.72 117.58 253.92 118.47 254.61 118.68 254.68 119.92 253.99 120.26 256.53 123.01 259.14 123.63 260.11 122.67 262.65 124.04 264.51 123.49 265.61 122.6 267.46 122.53 267.19 123.96 268.08 124.31 268.08 122.94"/><polygon class="cls-2" points="280.43 118.88 281.04 118.06 279.51 116.96 278.15 114.92 277.98 115.06 276.12 115.29 276.52 115.63 276.64 116.96 277.92 117.34 277.56 117.87 278.23 117.7 278.6 118.06 279.08 117.69 280.43 118.88"/><polygon class="cls-3" points="284.71 115.66 283.3 113.51 281.84 114.59 280.37 113.53 280 113.94 280.61 115.06 278.72 114.47 278.15 114.92 279.51 116.96 281.04 118.06 280.43 118.88 279.08 117.69 278.6 118.06 279.69 119.16 281.1 119.1 282.63 117.7 283.43 118.88 283.43 119.71 284 119.93 284.37 116.96 285.4 116.21 284.71 115.66"/><polygon class="cls-5" points="267.83 129.14 267.47 128.34 266.24 128.53 266.09 129.26 264.85 131.12 266.51 134.87 266.75 133.95 267.16 129.81 267.83 129.14"/><polygon class="cls-3" points="266.8 125.9 266.24 128.53 267.47 128.34 267.58 128.58 268.38 126.75 266.8 125.9"/><polygon class="cls-2" points="269.55 133.97 270.46 133.97 271.38 132.56 269.73 131.09 272.42 129.93 271.5 127.97 268.87 129.81 267.71 129.26 267.16 129.81 266.75 133.95 266.77 133.87 266.77 134.56 268.38 134.87 269.55 133.97"/><polygon class="cls-1" points="274.31 124.11 274.31 123.32 275.78 122.67 275.78 122.12 275.17 122.12 268.08 122.94 268.08 124.31 267.19 123.96 267.12 124.39 266.8 125.9 268.38 126.75 267.58 128.58 267.83 129.14 267.71 129.26 268.87 129.81 271.5 127.97 271.58 128.15 274.31 126.1 274.31 124.11"/><polygon class="cls-3" points="279.76 134.87 282.69 134.87 283.24 133.23 284.69 133.48 284.92 132.84 285 132.84 283.98 131.46 283.98 130.11 282.2 128.71 280.43 127.36 280.49 126.1 281.04 125.48 281.41 124.31 279.82 123.7 278.42 122.1 278.41 122.12 275.78 122.12 275.78 122.67 274.31 123.32 274.31 124.11 274.31 126.1 271.58 128.15 272.36 129.81 273.4 129.81 279.76 134.87"/><polygon class="cls-2" points="285.07 135.13 285.05 135.1 284.44 134.21 284.69 133.48 283.24 133.23 282.7 134.84 284.19 135.56 285.07 135.13"/><polygon class="cls-4" points="289.73 140.02 289.66 139.23 288.83 138.82 288.77 140.72 289.9 141.25 289.73 140.02"/><polygon class="cls-5" points="290.48 141.94 290 141.98 289.9 141.25 288.77 140.72 288.76 140.95 287.46 138.06 285.07 135.13 284.19 135.56 282.7 134.84 282.69 134.87 279.76 134.87 273.4 129.81 272.36 129.81 272.42 129.93 269.73 131.09 271.38 132.56 270.46 133.97 269.55 133.97 268.38 134.87 266.77 134.56 266.77 136.21 269.59 140.02 270.62 142.11 271.86 142.39 272.82 144.93 273.1 146.44 275.64 148.92 277.36 151.6 278.2 153.52 279.33 153.05 279.33 151.58 283.37 152.65 283.58 154.15 286.12 150.85 295.15 148.34 295.15 144 295.18 143.94 290.48 143.94 290.48 141.94"/><polygon class="cls-3" points="296.19 138.44 293.64 141.7 290.48 141.94 290.48 143.94 295.18 143.94 296.86 140.34 296.19 138.44"/><polygon class="cls-4" points="286.12 150.85 283.58 154.15 283.37 152.65 279.33 151.58 279.33 153.05 278.2 153.52 278.59 154.42 279.83 158.75 281.96 158.33 282.79 157.44 284.23 157.99 285.81 156.89 288.42 155.65 291.93 154.69 291.93 153.38 292.91 153.06 290.95 149.5 286.12 150.85"/><polygon class="cls-2" points="299.83 142.53 297.49 142.11 296.86 140.34 295.15 144 295.15 148.34 290.95 149.5 292.91 153.06 294.88 152.42 295.91 152.15 296.32 151.25 297.42 150.98 297.97 149.74 299.21 149.67 299.21 147.82 300.03 146.99 301.61 144.45 299.83 142.53"/><polygon class="cls-1" points="305.93 137.82 304.83 135.56 303.24 134.87 302.14 133.23 303.24 131.6 303 130.3 301.61 130.3 300.55 125.66 301.35 124.86 300.98 122.39 295.15 119.56 291.35 121.36 291.51 122.01 288.08 122.67 283.89 120.88 284 119.93 283.43 119.71 283.43 118.88 282.63 117.7 281.1 119.1 279.69 119.16 278.23 117.7 277.56 117.87 277.43 118.06 277.92 120.52 278.72 121.67 278.42 122.1 279.82 123.7 281.41 124.31 281.04 125.48 280.49 126.1 280.43 127.36 282.2 128.71 283.98 130.11 283.98 131.46 285 132.84 287.11 132.91 289.18 135.86 294.26 138.44 296.53 137.17 297.9 139.23 303.68 140.33 303.85 140.31 303.85 138.82 305.93 137.82"/><polygon class="cls-3" points="305.38 122.67 305.93 121.13 308.01 120.64 308.01 119.56 302.08 116.72 301.1 114.4 296.28 111.64 294.33 112.99 294.33 114.4 292.3 114.4 289.9 112.69 288.37 113.53 288.76 114.63 288.83 116.41 290.55 118.06 291.35 121.36 295.15 119.56 300.98 122.39 301.21 123.97 303.24 124.52 305.38 122.67"/><polygon class="cls-1" points="309.97 118.65 309.05 116.9 311.38 115.63 310.95 114.92 311.93 113.93 313.88 114.4 314.53 113.8 313.76 112.99 313.27 113.8 312.35 113.17 312.35 111.64 310.21 113.93 307.22 113.8 306.91 112.63 305.56 112.32 305.56 110.84 304.47 109.61 300.06 109.61 297.69 108.17 297.22 109.06 295.22 108.58 295.22 106.89 291.68 107.61 292.82 114.4 294.33 114.4 294.33 112.99 296.28 111.64 301.1 114.4 302.08 116.72 308.01 119.56 308.01 120.39 309.6 120.88 309.97 118.65"/><polygon class="cls-5" points="309.48 131.42 312.78 129.81 313.45 126.45 314.86 125.9 315.17 122.39 317.19 121.77 319.02 120.88 319.02 119.56 317.12 119.93 315.7 121.55 314.53 121.55 314.53 119.06 313.52 118.65 312.6 120.39 311.13 120.88 309.67 120.48 309.6 120.88 308.01 120.39 308.01 120.64 305.93 121.13 305.38 122.67 303.24 124.52 301.21 123.97 301.35 124.86 300.55 125.66 301.61 130.3 303 130.3 303.24 131.6 302.14 133.23 309.48 133.23 309.48 131.42"/><polygon class="cls-2" points="316.87 141.25 316.27 139.53 314.13 137.51 315.47 135.56 317.49 135.86 319.94 131.6 320.24 129.81 321.59 128.49 319.57 127.97 318.53 127.24 318.23 125.18 319.02 124.11 316.87 122.67 317.01 121.83 315.17 122.39 314.86 125.9 313.45 126.45 312.78 129.81 309.48 131.42 309.48 133.23 302.14 133.23 303.24 134.87 304.83 135.56 305.93 137.82 303.85 138.82 303.85 140.31 308.21 140.02 310.41 140.02 311.99 142.11 313.22 142.51 314.06 141.73 316.87 141.25"/><path class="cls-2" d="M329,96.83l-1.44-.48-2.34-2.13-2.13.75-2.06-.13L315,88l-2.48,1.86-4.81-1L307.25,87l-2.54-.34-1.6,1.3-6.34,2.48-1.59.48,1.59,1.37h-1.06l-.53,2.13,1.59,1.31V97l-2.72.28-2.37-.69-3.31.69L285,95.73h-1.87L281,97.93v1.58l-1.7-1.31-.7,1,.14,3,2.62,2.47,1.3,1,1.8-1.48h2.81s.69,2.82.83,3-2.75.35-2.75.35l-.89,1.51,1.16,1.72,2.13,1,.64,1.79,1.53-.85,2.39,1.72h.53l-1.14-6.79,3.54-.72v-.72l2.41-1.23.69,2.06-.63,1.17,2.37,1.44h4.41l1.1,1.23v1.48l1.34.3.31,1.18,3,.13,2.14-2.29v.3l.53-1.12h2.82v-1l3.92.34,3.5.07,1.52.59.55-1.21-.76-2.61-.76-.11V106l1.93-.35,1.12-.4-.64-.56.64-2.88,2.38.41,1-1-.48-1.3,1-1.44.64-.65-.71-1.08Zm-13.33,7.83v1.72l-1.17-.62v-1.58l1.17-1.24,1.17.42Z"/><polygon class="cls-4" points="254.16 114.7 253.4 116.33 253.72 116.96 255.37 115.93 256.74 115.8 256.88 115.25 255.85 114.56 255.62 113.93 254.01 114.63 254.16 114.7"/><polygon class="cls-3" points="236.74 90.06 236.74 90.95 237.26 91.19 237.26 90.37 236.74 90.06"/><polygon class="cls-2" points="239.32 86.45 238.94 88.65 239.32 88.75 239.73 86.45 239.32 86.45"/><path class="cls-2" d="M241.93,85.21c-.1,0-.76.18-.76.18l-.48.75.21,1.27h.27l.59-1.1Z"/><polygon class="cls-2" points="245.99 82.57 245.23 83.02 245.99 83.22 246.4 82.89 245.99 82.57"/><polygon class="cls-2" points="246.4 83.53 245.64 83.53 245.23 83.91 245.23 84.35 245.23 85.21 245.57 84.97 245.81 84.37 246.4 84.37 246.4 84.05 246.4 83.53"/><polygon class="cls-4" points="242.28 79.3 241.93 79.92 242.86 80.54 242.86 79.58 242.28 79.3"/><polygon class="cls-5" points="211.07 75.46 210.42 75.66 210.75 76.45 211.07 77.72 211.25 77.72 211.25 76.25 211.07 75.46"/><path class="cls-3" d="M195,66.87l-1.37-1.72-1.17.86s-1.38,1.54-1.17,1.61,2.68,0,2.68,0l-.28,1h-2.19l.27,1h1.36l.77,1-1.17.34.4,1H195l2.06.83,5-2.2,1.1-1.58-.48-2.41L201,65.15l-2.89,1.17-2.06-.21L196,67.69l-1.17.34Z"/><polygon class="cls-6" points="235.37 82.12 234.47 81.78 233.65 84.37 235.37 83.91 235.37 82.12"/><polygon class="cls-4" points="217.74 79.13 217.02 79.54 217.02 80.13 217.53 80.37 217.74 79.75 217.74 79.13"/><path class="cls-4" d="M215.06,83.91h-2l-.41,1.58-.48.82v.83l-.65.69.2.92,1-1.15L212.31,89l-.1,1.38h.65l.41-1.62v1.31l-.44,1.34h.72l1.34-.41a5.48,5.48,0,0,0-.38,1l.24.62h.76l-.28,1.68L213.5,94l-.16,1.27.66.17-.07.83-1.34.62.24.72,1-.17.69.37.68.18,1.07-.76-.72,1.24H214l-.62.55-1.51,1.51.65.31,1.31-.76.82.24.83-1s1.2,0,1.3,0,3.1-.18,3.1-.18L221.18,98,220,97.65l1.34-1.58L221,94.9h-1.79l.19-.65-.36-.58L218.19,92l-.45-.24-.89-1.68L215.78,89h-1.3l1.13-.44-.14-.48,1.14-2.1-1.1-.27-1.45.27.07-.76,1-.61Z"/><polygon class="cls-4" points="211.69 84.37 210.66 84.59 210.66 85.42 210.15 85.73 210.28 87.41 210.42 87.24 210.59 85.89 211.25 85.21 211.69 84.37"/><path class="cls-4" d="M211.49,85.66s-.72.24-.57.34a4.89,4.89,0,0,1,.57.9h.34v-.45Z"/><polygon class="cls-4" points="213.69 92.09 213.03 92.38 213.03 93.19 213.69 92.64 213.69 92.09"/><polygon class="cls-4" points="209.67 92.09 210.15 92.64 210.57 92.09 211.35 92.85 212.14 92.38 211.83 90.78 210.92 90.63 210.69 90.58 209.67 91.53 209.67 92.09"/><polygon class="cls-2" points="210.57 92.09 210.15 92.64 209.67 92.09 209.67 91.53 210.69 90.58 209.53 90.37 208.7 91.36 209.29 91.74 208.7 92.09 206.85 92.09 206.85 92.84 207.4 93.19 206.85 93.73 207.91 94.28 206.85 95.38 208.19 95.38 206.85 95.87 206.06 96.04 206.61 97.21 207.64 97.65 209.05 96.9 210.83 96.42 211.25 96.28 211.49 94.94 211.36 93.43 211.25 92.91 211.35 92.85 210.57 92.09"/><polygon class="cls-2" points="210.12 120.52 209.82 120.24 210.19 119.16 209.63 118.06 210.38 117.87 211.17 114.55 207.94 114.17 208.02 114.42 208.09 116.69 206.85 119.23 207.54 120.19 207.47 122.39 209.75 122.39 209.59 121.55 210.12 120.52"/><polygon class="cls-5" points="221.52 119.16 221.04 119.37 221.28 119.95 221.76 119.56 221.52 119.16"/><polygon class="cls-5" points="222.45 118.51 223.07 118.92 223.45 118.23 222.95 118.06 222.45 118.51"/><polygon class="cls-5" points="223.79 117.69 224.34 117.69 224.65 118.06 224.06 118.06 223.79 117.69"/><polygon class="cls-5" points="195.44 135.24 195.44 135.61 195.44 136.11 195.76 135.68 195.44 135.24"/><polygon class="cls-5" points="196.27 136.11 196.59 136.71 197.59 136.41 197.59 135.68 196.27 136.11"/><polygon class="cls-5" points="198.46 136.39 198.01 136.39 198.01 137.12 198.74 136.75 198.46 136.39"/><polygon class="cls-5" points="199.79 136.71 200.34 136.71 200.75 135.68 200.27 135.68 199.79 136.71"/><polygon class="cls-5" points="201.4 135.01 201.01 134.83 200.75 135.38 201.4 135.38 201.4 135.01"/><polygon class="cls-5" points="194.94 137.31 195.44 137.31 195.19 136.75 194.94 137.31"/><polygon class="cls-5" points="220.03 113.31 217.85 112.78 217.17 112.08 209.05 111.26 207.4 112.36 207.94 114.17 211.17 114.55 210.38 117.87 209.63 118.06 210.19 119.16 209.82 120.24 210.12 120.52 209.59 121.55 209.75 122.39 210.49 122.39 211.87 124.04 214.34 122.81 216.75 122.81 218.46 122.05 219.37 119.51 218.87 118.27 221.07 115.66 222.93 114.83 223.06 113.75 221.4 113.31 220.03 113.31"/><polygon class="cls-3" points="230.97 112.5 229.94 113.46 230.46 115.38 230.97 115.38 230.97 112.5"/><polygon class="cls-3" points="227.96 108.73 227.51 106.74 226.42 107.34 226.68 106.33 227.69 105.24 227.51 104.56 228.56 104.56 229.05 102.05 226.94 101.48 224.65 100.58 223.45 99.72 222.53 98.35 221.97 98.68 221.11 100.4 220.11 100.68 219.37 101.6 218.19 101.57 217.16 101.02 217.33 102.81 216.09 102.91 212.9 102.87 216.71 105.9 218.19 108.2 217.19 112.08 217.17 112.08 217.85 112.78 220.03 113.31 221.4 113.31 223.06 113.75 223.2 112.5 224.03 111.53 225.54 111.81 226.98 112.5 228.78 111.17 227.47 109.14 227.96 108.73"/><polygon class="cls-1" points="231.45 90.06 230.8 90.4 231.45 91.19 232.1 90.78 231.45 90.06"/><polygon class="cls-1" points="232.79 89.37 232.31 89.89 232.55 90.47 233.24 90.63 233.24 91.36 232.52 91.19 232.1 91.36 232.45 91.74 233.62 91.74 233.62 90.63 233.99 90.33 233.99 88.99 233.05 89.13 233.27 89.78 232.79 89.37"/><path class="cls-1" d="M230.21,90.61l1.17-1,.28-4.37-3.23,2.62.65,3.06,1.68.4Z"/><polygon class="cls-2" points="227.77 95.36 227.59 94.04 224.51 94.97 223.79 97.58 223.77 97.59 226.25 98.29 226.49 96.98 227.21 96.98 227.49 96.45 227.21 95.74 227.77 95.36"/><polygon class="cls-5" points="222.53 98.35 223.45 99.72 224.65 100.58 225.95 101.09 226.23 99.87 226.23 98.4 226.25 98.29 223.77 97.59 222.53 98.35"/><polygon class="cls-1" points="225.95 101.09 226.94 101.48 227.04 101.51 226.2 99.99 225.95 101.09"/><path class="cls-4" d="M234.9,101.37,234,99.83l3.73-1.43-1-3.26.21-2.23h0l-2.13-.69-3.16.21-.9-1.14-1.68-.4.55,2.54-2,.61.18,1.32-.56.38.28.71-.28.53h-.72l-.26,1.42v1.47l0,.12.84,1.52,2,.54-.47,2.41.47.27.89-.24,1.51.45,2.81-.53,1.11.32-.2-.62,1.08-1.58Z"/><polygon class="cls-3" points="232.8 81.05 233.65 80.37 233.05 78.58 233.99 77.04 232.97 76.25 232.8 71.93 234.3 71.48 235.05 66.93 236.03 65.96 237 64 236.74 63.07 237.68 61.38 238.44 61.6 238.81 60.17 240.69 60.59 241.93 58.15 243.65 59.72 246.73 58.75 247 56.38 248.42 55.74 249.85 56.76 250.49 58.3 252.16 56.55 249.95 55.84 251.83 54.91 247.94 52.85 241.83 54.98 236.67 59.58 231.93 69.82 228.77 73.46 224.51 76.08 225.27 83.84 227.67 85.01 231.59 81.85 231.99 82.89 233.05 82.89 232.8 81.05"/><polygon class="cls-2" points="244.89 62.62 244.4 60.89 242.86 60.17 241.51 58.98 240.69 60.59 238.81 60.17 238.44 61.6 237.68 61.38 236.74 63.07 237 64 236.03 65.96 235.05 66.93 234.3 71.48 232.8 71.93 232.97 76.25 233.99 77.04 233.05 78.58 233.65 80.37 232.8 81.05 233.05 82.89 231.99 82.89 234.89 90.37 238.8 88.03 238.87 83.56 240.66 82.53 240.94 80.13 239.22 78.62 239.01 74.97 243.2 70.85 243.41 67.69 246.01 67.45 245.38 65.13 244.89 62.62"/><polygon class="cls-4" points="254.17 72.57 252.97 68.66 252.97 66.9 251.43 63.59 252.06 62.16 249.96 59.35 250.4 58.1 249.85 56.76 248.42 55.74 247 56.38 246.73 58.75 243.65 59.72 241.93 58.15 241.51 58.98 242.86 60.17 244.4 60.89 244.89 62.62 245.38 65.13 246.01 67.45 247.12 67.35 247.12 69 243.2 73.67 243.75 78.82 246.78 80.4 252.14 78.75 252.14 78.75 255.07 73.77 254.17 72.57"/><polygon class="cls-1" points="247.9 88.19 245.81 88 244.71 88.72 244.71 88.92 246.78 90.57 246.84 91.47 246.64 91.47 248.16 93.03 250.75 91.74 251.81 89.35 249.66 88.26 247.9 88.19"/><polygon class="cls-2" points="251.39 85.94 252.68 85.53 252.52 84.7 251.98 81.46 251.93 81.5 248.49 81.3 246.78 82.33 247.19 83.91 248.22 83.98 248.25 84.91 249.96 84.66 251.39 85.94"/><polygon class="cls-4" points="253.15 88.04 252.68 85.53 251.39 85.94 249.96 84.66 248.25 84.91 248.29 86.38 247.26 86.52 246.16 85.21 244.71 86.79 244.71 88.72 245.81 88 247.9 88.19 249.66 88.26 251.81 89.35 251.84 89.28 253.15 88.04"/><polygon class="cls-1" points="235.37 121.43 238.8 123.7 239.49 121.09 235.37 121.43"/><polygon class="cls-1" points="231.59 119.09 229.94 119.71 229.94 116.14 231.59 115.66 231.59 119.09"/><polygon class="cls-1" points="237.84 124.31 238.36 125.04 238.63 124.49 237.84 124.31"/><polygon class="cls-1" points="234.12 105.58 232.58 105.8 231.75 106.98 230.76 106.98 230.46 107.6 229.57 106.7 229.05 107.68 228.07 107.68 227.76 107.87 227.96 108.73 227.47 109.14 228.78 111.17 230.15 110.16 231.93 110.64 232.96 112.63 235.37 115.04 238.32 116.48 239.7 117.65 240.18 119.57 239.84 121.15 240.52 121.22 241.69 118.89 240.8 117.99 241.41 116.83 243 117.92 243.34 116.83 239.77 114.97 240.18 114.35 237.77 113.53 236.47 111.53 234.89 110.16 234.89 108.31 236.09 108.06 236.56 106.44 234.12 105.58"/><polygon class="cls-2" points="239.3 108.81 240.03 108.88 241.74 108.88 243.35 109.26 243.92 108.92 243.35 107.84 242.68 108.02 241.14 107.42 240.09 106.98 238.96 107.56 238.24 108.39 236.47 108.65 236.74 109.47 237.98 108.85 238.94 110.92 241.48 112.61 239.49 109.56 239.3 108.81"/><polygon class="cls-3" points="240.12 106.05 239.82 104.45 240.65 104.45 240.65 102.87 238.06 102.19 237.43 102.87 236.18 102.64 235.17 104.11 235.37 104.73 234.26 104.41 231.45 104.94 231.4 104.92 231.15 105.58 232.51 105.89 232.58 105.8 234.12 105.58 236.56 106.44 236.51 106.6 237.84 106.74 240.12 106.05"/><polygon class="cls-5" points="250.21 124.86 250.21 125.62 254.06 126.1 254.4 125.48 252.31 124.86 250.21 124.86"/><polygon class="cls-5" points="246.26 119.95 246.02 121.09 246.71 121.09 246.26 119.95"/><polygon class="cls-5" points="246.71 121.33 246.36 121.43 246.53 121.77 246.71 121.67 246.71 121.33"/><polygon class="cls-5" points="244.71 118.06 245.19 118.92 245.44 118.72 245.07 118.06 244.71 118.06"/><polygon class="cls-5" points="250.07 119.16 250.26 120.1 251.07 120.52 251.41 121.33 252.03 121.09 251.45 120.74 251.28 119.95 250.42 119.71 250.42 119.16 250.07 119.16"/><rect class="cls-5" x="252.51" y="122.39" width="0.69" height="0.55"/><polygon class="cls-5" points="255.81 124.11 256.12 124.52 256.88 123.7 255.81 124.11"/><polygon class="cls-5" points="255.4 124.52 255.4 125.18 255.06 125.04 255.4 124.52"/><polygon class="cls-5" points="251.21 123.35 251.48 123.7 252.03 123.35 251.62 122.94 251.21 123.35"/><polygon class="cls-5" points="253.99 121.55 254.54 121.77 254.82 121.55 254.27 121.33 253.99 121.55"/><polygon class="cls-5" points="252.86 119.16 253.41 119.56 253.68 118.92 253.68 119.56 254.16 119.56 253.99 118.65 253.51 118.65 252.86 119.16"/><polygon class="cls-5" points="252.03 117.48 252.03 117.87 252.51 118.06 252.51 117.34 252.03 117.48"/><polygon class="cls-5" points="251.83 121.55 252.31 122.01 252.75 121.78 252.03 121.33 251.83 121.55"/><polygon class="cls-5" points="253.51 114.4 253.51 115.11 252.51 115.27 250.53 115.38 247.37 116.17 246.36 117.34 245.69 118.61 246.09 119.09 247.26 120.33 247.05 121.64 248.43 123.08 249.87 123.35 249.46 122.05 250.28 122.05 250.21 121.15 250.97 121.22 249.25 119.09 249.73 118.61 248.77 116.76 250 117.58 250.9 117.24 250.14 116.28 253.24 116 253.4 116.33 254.16 114.7 253.51 114.4"/><polygon class="cls-5" points="231.4 104.92 229.94 104.49 229.05 104.73 228.58 104.46 228.56 104.56 227.51 104.56 227.69 105.24 226.68 106.33 226.42 107.34 227.51 106.74 227.76 107.87 228.07 107.68 229.05 107.68 229.57 106.7 230.46 107.6 230.76 106.98 231.75 106.98 232.51 105.89 231.15 105.58 231.4 104.92"/><polygon class="cls-1" points="252.29 111.26 249.25 111.06 248.26 110.34 248.26 111.1 248.84 112.15 248.26 113.01 248.46 113.75 249.36 114.74 249.52 115.63 250.53 115.38 252.51 115.27 253.51 115.11 253.51 114.4 254.01 114.63 255.62 113.93 255.23 112.84 256.26 111.33 256.26 110.82 253.99 110.34 252.29 111.26"/><polygon class="cls-1" points="244.33 111.55 243.54 111.55 243.73 112.07 242.79 113.53 244.13 114.47 244.56 113.4 245.44 113.24 245.44 112.61 244.33 111.55"/><polygon class="cls-4" points="243.73 110.16 243.92 109.37 243.59 109.11 243.35 109.26 241.74 108.88 240.03 108.88 239.3 108.81 239.49 109.56 241.48 112.61 241.62 112.7 242.79 113.53 243.73 112.07 243.54 111.55 244.07 111.55 244.25 110.8 243.73 110.16"/><polygon class="cls-3" points="246.02 113.94 245.44 113.24 244.56 113.4 244.13 114.47 244.44 114.69 244.44 117.1 245.69 118.61 246.36 117.34 247 116.6 246.02 115.38 246.02 113.94"/><polygon class="cls-5" points="237.84 106.74 236.51 106.6 236.09 108.06 236.26 108.03 236.47 108.65 238.24 108.39 238.96 107.56 240.09 106.98 240.24 107.04 239.78 106.15 237.84 106.74"/><polygon class="cls-2" points="246.02 115.38 247 116.6 247.37 116.17 249.52 115.63 249.36 114.74 248.46 113.75 248.4 113.51 246.02 114.59 246.02 115.38"/><polygon class="cls-5" points="247.17 109.56 246.53 109.03 244.89 107.15 243.45 108.02 243.92 108.92 243.59 109.11 243.92 109.37 243.73 110.16 244.25 110.8 244.07 111.55 244.33 111.55 245.44 112.61 245.44 113.24 246.02 113.94 246.02 114.59 248.4 113.51 248.26 113.01 248.84 112.15 248.26 111.1 248.26 110.34 248.48 110.5 248.26 109.56 247.17 109.56"/><polygon class="cls-1" points="244.1 103.44 244.56 103.77 245.44 102.98 247.26 102.8 247.26 101.51 245.07 101.51 242.3 102.19 240.65 102.9 240.65 103.82 242.53 104.46 244.1 103.44"/><polygon class="cls-4" points="247.26 102.91 247.26 102.8 245.44 102.98 244.56 103.77 244.1 103.44 242.53 104.46 240.65 103.82 240.65 104.45 239.82 104.45 240.12 106.05 239.78 106.15 240.24 107.04 241.14 107.42 242.68 108.02 243.35 107.84 243.45 108.02 244.89 107.15 245.09 107.38 246.36 106.74 247.26 104.47 248.01 103.81 247.26 102.91"/><polygon class="cls-2" points="241.78 100.2 239.94 99.75 237.71 98.36 237.72 98.4 233.99 99.83 234.9 101.37 236.25 102.53 236.18 102.64 237.43 102.87 238.06 102.19 240.65 102.87 240.65 102.9 242.3 102.19 244.39 101.68 243.34 101.09 241.78 100.2"/><polygon class="cls-3" points="248.42 96.94 248.26 95.96 248.84 95.02 248.14 93.01 246.64 91.47 240.18 91.47 236.95 92.91 236.74 95.14 237.71 98.36 239.94 99.75 241.78 100.2 243.34 101.09 244.39 101.68 245.07 101.51 247.26 101.51 247.26 101.78 247.77 101.71 248.59 99.99 249.17 98.82 248.42 96.94"/><polygon class="cls-2" points="255.14 106.05 253.4 103.36 250.45 104.46 248.84 103.51 247.94 103.73 248.01 103.81 247.26 104.47 246.36 106.74 245.09 107.38 246.53 109.03 247.17 109.56 248.26 109.56 248.48 110.5 249.25 111.06 252.29 111.26 253.99 110.34 256.26 110.82 256.26 109.27 257.36 108.99 257.47 108.04 255.4 108.2 255.14 106.05"/><polygon class="cls-1" points="269.68 103.36 269.79 102.61 269.45 101.09 270.02 100.75 269.68 99.99 266.75 99.34 266.15 98.67 264.27 99.15 263.07 97.13 262.32 97.31 261.64 96.62 261.42 95.44 259.43 95.44 259.13 95.96 257.7 96.17 257.47 97.09 256.26 97.09 253.98 97.09 251.28 96.45 249.72 96.94 248.38 96.69 248.42 96.94 249.17 98.82 248.59 99.99 247.77 101.71 247.26 101.78 247.26 102.91 247.94 103.73 248.84 103.51 250.45 104.46 252.86 103.56 252.86 102.61 253.99 102.61 255.06 103.19 255.81 103.36 256.72 104.94 257.7 106.17 256.35 106.33 255.81 107.87 255.36 107.87 255.4 108.2 257.47 108.04 257.5 107.82 259.35 105.69 261.21 106.72 262.31 107.14 261.14 108.17 262.38 108.58 262.51 109.61 266.02 108.58 266.02 107.62 264.16 107.89 262.86 106.79 264.44 105.97 266.36 105.28 268.26 104.7 268.55 103.7 269.68 103.36"/><polygon class="cls-3" points="256.35 106.33 257.7 106.17 256.72 104.94 255.81 103.36 255.06 103.19 253.99 102.61 252.86 102.61 252.86 103.56 253.4 103.36 255.14 106.05 255.36 107.87 255.81 107.87 256.35 106.33"/><polygon class="cls-3" points="231.38 171.32 230.63 172.28 231.38 172.63 231.38 171.32"/><rect class="cls-4" x="228.08" y="176.13" width="0.55" height="0.55"/><polygon class="cls-5" points="287.46 193.66 285.26 196.95 283.54 198.88 280.59 199.77 279.28 201.83 280.11 204.38 278.46 208.02 278.46 210.49 280.79 213.45 283.61 212.49 287.94 199.02 288.63 199.22 288.63 197.92 287.46 193.66"/><polygon class="cls-1" points="215.85 130.29 215.23 132.56 211.17 134.87 208.64 135.1 207.4 136.39 207.4 137.65 224.65 149.5 227.47 149.06 235.4 143.42 234.47 141.98 233.03 141.7 232.14 138.82 232.62 138.44 231.59 131.12 230.46 129.1 229.32 127.24 230.46 125.96 230.59 122.31 227.4 122.94 222.93 123.22 217.78 125.14 216.56 125.42 218.19 130.29 215.85 130.29"/><polygon class="cls-3" points="237.02 201.01 238.32 201.35 244.37 201.35 246.36 201.97 249.04 202.31 251.45 201.66 249.32 199.84 249.32 194.89 252.48 195.31 252.17 192.06 249.94 192.06 249.39 186.99 246.23 186.58 245.81 188.29 243.27 188.02 242.24 185.26 235.98 185.26 238.05 192.35 236.4 195.44 234.96 201.19 235.71 201.35 237.02 201.01"/><polygon class="cls-1" points="269.95 145.41 269.93 145.35 268.22 144.11 266.36 140.02 265.06 136.89 262.99 133.87 263.41 133.66 265.81 136.69 266.22 136 266.51 134.87 264.85 131.12 264.71 131.32 260.38 130.91 258.6 131.94 253.24 130.78 252.81 130.61 253.72 145.41 269.95 145.41"/><polygon class="cls-2" points="265.81 180.19 263.03 180.19 263.28 178.41 260.24 178.74 259.56 180.5 259.56 181.39 260.14 181.39 260.35 185.26 261.59 186.24 262.33 188.56 265.95 190.19 265.92 189.95 266.95 189.95 267.98 192.63 267.98 193.14 271.1 193.14 274.19 192.63 275.43 191.5 275.43 191.25 273.23 185.13 274.4 183.04 266.45 178.11 265.81 180.19"/><polygon class="cls-3" points="262.52 212.55 262.17 208.64 259.01 208.09 256.19 210.08 254.88 211.8 254.27 213.45 250.35 212.9 247.53 214.75 246.02 212.14 246.02 216.88 244.03 218.26 242.03 216.88 240.61 217.27 243.34 223.48 243.27 226.37 245.88 227.19 254.2 225.54 261.89 218.33 263.58 214.61 263.03 214.2 262.52 212.55"/><polygon class="cls-4" points="199.98 158.68 202.86 159.09 204.44 159.5 203.62 157.23 202.73 156.06 201.56 154.15 200.39 153.06 197.98 153.06 196.33 153.83 195.86 153.9 195.44 155.72 197.71 159.19 198.19 159.09 199.98 158.68"/><polygon class="cls-2" points="205.27 164.18 204.44 162.32 202.31 163 201.48 163.75 202.79 166.51 203.73 167.1 204.44 166.24 205.27 164.18"/><polygon class="cls-1" points="215.44 166.44 216.33 164.31 215.89 162.59 214.48 162.59 212.42 161.68 210.63 161.68 208.43 162.18 208.84 164.86 207.81 167.06 207.81 167.89 209.32 168.37 209.36 170.53 213.58 169.19 215.53 169.76 215.78 168.71 215.44 166.44"/><polygon class="cls-4" points="207.4 136.39 208.64 135.1 211.17 134.87 215.23 132.56 215.85 130.29 218.19 130.29 216.56 125.42 215.71 125.62 213.1 125.55 212.14 124.52 211.52 124.8 210.83 127.13 207.54 129.26 206.23 133.39 203.83 136.27 201.77 137.37 207.4 137.31 207.4 136.39"/><polygon class="cls-3" points="201.77 143.42 203.37 143.42 203.37 139.71 207.4 139.71 207.69 137.85 207.4 137.65 207.4 137.31 201.77 137.37 201.76 137.37 201.01 138.44 197.37 143.97 196.42 146.31 201.77 146.31 201.77 143.42"/><polygon class="cls-2" points="203.83 154.15 204.79 154.83 206.16 154.15 207.69 154.83 212.07 154.83 212.48 153.56 212.07 153.06 211.17 141.25 212.26 140.99 207.69 137.85 207.4 139.71 203.37 139.71 203.37 143.42 201.77 143.42 201.77 146.31 196.42 146.31 196.2 146.86 197.23 147.96 195.86 153.9 196.33 153.83 197.98 153.06 200.39 153.06 201.56 154.15 202.65 155.94 203.83 155.27 203.83 154.15"/><polygon class="cls-3" points="253.72 145.41 252.81 130.61 250 129.54 246.84 129.47 245.74 130.84 246.29 131.94 244.92 133.39 241.9 131.81 240.04 131.53 239.49 129.68 234.57 128.72 233.79 130.61 232.85 130.94 232.85 132.49 232.28 133.23 231.87 133.1 232.62 138.44 232.14 138.82 233.03 141.7 234.47 141.98 235.4 143.42 238.24 144.25 241.28 143.15 252.26 148.85 253.72 148.3 253.82 145.41 253.72 145.41"/><polygon class="cls-2" points="232.85 132.49 232.85 130.94 233.79 130.61 234.57 128.72 234.54 128.71 232.48 127.27 233.85 125.9 233.58 124.8 232.89 124.04 233.65 122.53 232.55 122.81 231.93 122.05 230.59 122.31 230.46 125.96 229.32 127.24 230.46 129.1 231.59 131.12 231.87 133.1 232.28 133.23 232.85 132.49"/><polygon class="cls-3" points="271.58 155.65 272.06 156.34 273.44 156 274.88 156.34 277.08 158.06 278.29 159.5 279.27 159.21 279.28 159.09 275.64 155.58 274.06 154.97 272.65 151.38 270.83 152.22 270.28 154.11 270.28 156.34 270.83 156.34 271.58 155.65"/><polygon class="cls-1" points="279.83 163.76 278.87 161.54 279.02 161.31 277.43 161.68 277.84 160.32 278.08 159.25 277.08 158.06 274.88 156.34 273.44 156 272.06 156.34 271.58 155.65 270.83 156.34 270.28 156.34 270.28 156.55 269.58 157.92 267.83 161.15 266.8 164.59 265.54 165.2 265.92 165.82 266.95 166.58 268.77 169.26 269.58 170.43 271.58 170.43 272.82 171.32 274.68 171.97 276.19 170.29 278.2 170.91 280.45 169.81 282.7 169.53 286.5 165.34 279.83 163.76"/><polygon class="cls-2" points="281.27 162.39 279.5 160.56 278.87 161.54 279.83 163.76 286.5 165.34 282.7 169.53 280.45 169.81 278.2 170.91 277.78 170.78 276.6 171.97 276.6 177.78 277.44 178.88 284.5 172.21 288.97 165.62 290.48 159.91 281.27 162.39"/><polygon class="cls-5" points="276.6 171.97 277.78 170.78 276.19 170.29 274.68 171.97 272.82 171.32 271.58 170.43 269.58 170.43 268.77 169.26 268.49 168.84 266.77 170.53 268.28 173.73 267.5 175.13 266.5 176.47 266.95 176.47 266.45 178.11 274.4 183.04 275.91 180.32 277.44 178.88 276.6 177.78 276.6 171.97"/><polygon class="cls-3" points="262.52 173.18 261.82 175.13 260.45 177.57 260.45 178.72 263.28 178.41 263.55 176.47 266.5 176.47 267.5 175.13 268.28 173.73 266.84 170.66 262.52 171.32 262.52 173.18"/><polygon class="cls-3" points="265.92 192.21 265.45 193.78 264.99 195.65 265.45 197.09 266.95 197.64 266.45 199.15 267.5 201.28 268.7 199.36 268.7 197.16 267.98 196.05 267.98 196.75 266.95 196.75 266.43 193.66 265.95 190.19 264.99 189.76 264.99 190.56 265.92 192.21"/><polygon class="cls-4" points="257.08 207.19 256.74 205.68 255.3 204.51 253.78 202.31 251.04 202.31 248.01 202.86 248.01 207.67 246.43 208.09 246.43 212.85 247.53 214.75 250.35 212.9 254.27 213.45 254.88 211.8 256.19 210.08 258.97 208.11 258.53 207.19 257.08 207.19"/><polygon class="cls-1" points="263.58 206.16 264.37 204.38 264.37 200.39 261.15 199.36 261.15 198.67 259.01 199.08 258.66 199.98 255.98 202.31 253.99 201.7 253.75 202.31 253.78 202.31 255.3 204.51 256.74 205.68 257.08 207.19 258.53 207.19 258.97 208.11 259.01 208.09 262.17 208.64 262.18 208.71 263.58 207.19 263.58 206.16"/><polygon class="cls-2" points="251.45 201.66 249.04 202.31 246.36 201.97 244.37 201.35 238.32 201.35 237.02 201.01 235.71 201.35 234.96 201.19 234.89 201.49 237.29 205.96 238.67 211.59 240.59 217.23 240.61 217.27 242.03 216.88 244.03 218.26 246.02 216.88 246.02 212.14 246.43 212.85 246.43 208.09 248.01 207.67 248.01 202.86 251.04 202.31 253.75 202.31 253.89 201.96 251.2 201.44 251.45 201.66"/><polygon class="cls-2" points="244.03 171.32 242.51 171.97 241.41 174.28 237.62 173.93 237.77 175.1 239.08 174.69 239.49 175.94 238.39 176.96 239.22 177.71 238.39 180.19 236.74 179.43 234.96 180.19 235.99 180.6 235.99 181.39 234.61 182.18 235.37 183.14 235.57 183.84 237.29 183.36 237.36 183.21 237.84 183.21 239.15 183.21 239.7 183.62 241.48 182.11 241.48 180.19 243.72 178.11 244.3 174.14 245.4 171.97 244.03 171.32"/><polygon class="cls-4" points="235.85 184.79 236.67 184.79 237.29 183.36 235.57 183.84 235.85 184.79"/><polygon class="cls-3" points="234.89 173.74 232.44 173.78 232.01 175.51 234.89 175.51 234.89 173.74"/><polygon class="cls-5" points="235.99 180.6 234.96 180.19 236.74 179.43 238.39 180.19 239.22 177.71 238.39 176.96 239.49 175.94 239.08 174.69 237.77 175.1 237.62 173.93 235.4 173.73 234.89 173.74 234.89 175.51 232.01 175.51 231.38 178.06 234.61 182.18 235.99 181.39 235.99 180.6"/><polygon class="cls-1" points="261.89 171.97 260.76 170.22 258.32 170.53 257.4 169.46 254.34 169.74 250.49 169.95 250.49 170.98 248.22 170.69 246.43 169.4 245.4 170.53 244.84 171.71 245.4 171.97 244.3 174.14 243.72 178.11 241.48 180.19 241.48 182.11 239.7 183.62 239.15 183.21 237.36 183.21 236.67 184.79 235.85 184.79 235.98 185.26 242.24 185.26 243.27 188.02 245.81 188.29 246.23 186.58 249.39 186.99 249.94 192.06 252.17 192.06 252.25 192.93 253.51 192.63 255.37 193.66 256.95 193.35 259.01 195.31 260.45 195.65 260.45 193.78 259.28 193.78 258.46 192.63 259.01 190.43 258.6 189.6 261.02 187.97 259.58 185.48 259.01 181.39 259.56 181.39 259.56 180.5 260.24 178.74 260.45 178.72 260.45 177.57 261.82 175.13 262.52 173.18 262.52 171.97 261.89 171.97"/><polygon class="cls-3" points="256.88 168.84 254.54 166.44 253.37 165.2 251.79 163.81 250.76 160.94 250.74 160.9 249.18 162.32 248.29 163.81 245.4 163.81 245.74 165.2 243.13 166.1 241.55 166.44 240.8 165.97 239.97 167.75 239.63 169.12 240.52 171.32 241.96 173.14 242.51 171.97 244.03 171.32 244.84 171.71 245.4 170.53 246.43 169.4 248.22 170.69 250.49 170.98 250.49 169.95 254.34 169.74 257.4 169.46 256.88 168.84"/><polygon class="cls-1" points="200.43 158.74 199.98 158.68 198.19 159.09 197.71 159.19 199.08 161.29 199.19 161.4 200.75 160.44 200.43 158.74"/><polygon class="cls-5" points="206.92 166.1 206.92 165.2 206.16 164.71 205.05 164.71 204.44 166.24 203.73 167.1 209.25 170.56 209.36 170.53 209.32 168.37 207.81 167.89 207.81 167.06 208.26 166.1 207.81 166.1 206.92 166.1"/><polygon class="cls-3" points="207.69 159.5 206.68 159.24 205.27 159.8 204.35 159.26 204.44 159.5 202.86 159.09 200.43 158.74 200.75 160.44 199.19 161.4 201.42 163.63 201.48 163.75 202.31 163 204.44 162.32 205.27 164.18 205.05 164.71 206.16 164.71 206.92 165.2 206.92 166.1 207.81 166.1 208.26 166.1 208.84 164.86 208.43 162.18 209.42 161.96 207.81 160.9 207.69 159.5"/><polygon class="cls-4" points="233.45 167.02 234.89 167.64 235.85 166.1 237.84 162.73 239.22 160.44 238.98 158.54 237.91 157.58 236.74 158.26 234.96 157.92 232.48 158.75 230.63 157.92 229.18 158.33 228.08 157.23 225.13 157.51 224.44 159.91 225.13 161.68 223.75 163.69 223.75 167.62 224.17 167.47 227.05 170.56 231.18 170.18 231.87 168.23 233.45 167.02"/><polygon class="cls-1" points="240.52 171.32 239.63 169.12 239.97 167.75 240.94 165.69 239.42 163.9 238.87 162.76 240.94 162.76 240.04 161.68 240.04 159.5 238.98 158.54 239.22 160.44 237.84 162.73 235.85 166.1 234.89 167.64 233.45 167.02 231.87 168.23 231.18 170.18 231.45 170.15 232.76 172.49 232.44 173.78 235.4 173.73 241.41 174.28 241.96 173.14 240.52 171.32"/><polygon class="cls-3" points="221.4 158.54 221.14 157.24 219.91 156.69 220.28 155.44 218.6 155.44 215.44 157.24 214.2 157.24 212.48 160.04 212.19 161.68 212.42 161.68 214.48 162.59 215.51 162.59 215.85 160.9 219.37 160.9 220.87 160.9 222.66 159.91 223.32 159.41 222.45 158.13 221.4 158.54"/><polygon class="cls-2" points="220.28 164.71 220.28 162.32 219.45 160.9 219.37 160.9 215.85 160.9 215.51 162.59 215.89 162.59 216.33 164.31 215.44 166.44 215.78 168.71 215.53 169.76 216.88 170.15 221.11 168.6 220.28 167.1 220.28 164.71"/><polygon class="cls-5" points="224.44 159.91 224.56 159.51 223.75 159.09 222.66 159.91 220.87 160.9 220.69 160.9 221.69 162.04 222.07 163.9 221.69 167.02 222.18 168.2 223.75 167.62 223.75 163.69 225.13 161.68 224.44 159.91"/><polygon class="cls-4" points="222.07 163.9 221.69 162.04 220.69 160.9 219.45 160.9 220.28 162.32 220.28 164.71 220.28 167.1 221.11 168.6 222.18 168.2 221.69 167.02 222.07 163.9"/><polygon class="cls-5" points="225.13 154.39 225.5 151.6 225.5 149.37 224.65 149.5 212.26 140.99 211.17 141.25 212.07 153.06 212.48 153.56 212.07 154.83 207.69 154.83 206.16 154.15 204.79 154.83 203.83 154.15 203.83 155.27 202.65 155.94 202.73 156.06 203.62 157.23 204.35 159.26 205.27 159.8 206.68 159.24 207.69 159.5 207.81 160.9 209.42 161.96 210.63 161.68 212.19 161.68 212.48 160.04 214.2 157.24 215.44 157.24 218.6 155.44 220.28 155.44 220.23 155.61 221.92 155.44 225.13 154.39"/><polygon class="cls-5" points="251.1 154.49 252.48 154.49 252.06 148.75 241.28 143.15 239.6 143.75 240.25 145.41 240.34 146.51 241.07 147.66 240.57 149.5 240.57 153.06 237.87 155.65 237.87 157.6 237.91 157.58 240.04 159.5 240.04 161.68 240.94 162.76 238.87 162.76 239.42 163.9 240.94 165.69 240.8 165.97 241.55 166.44 243.13 166.1 245.74 165.2 245.4 163.81 248.29 163.81 249.18 162.32 250.74 160.9 249.66 158.75 250 157.23 251.1 154.49"/><polygon class="cls-2" points="240.57 153.06 240.57 149.5 241.07 147.66 240.34 146.51 240.25 145.41 239.6 143.75 238.24 144.25 235.4 143.42 235.4 143.42 227.47 149.06 225.5 149.37 225.5 151.6 225.13 154.39 221.92 155.44 220.23 155.61 219.91 156.69 221.14 157.24 221.4 158.54 222.45 158.13 223.32 159.41 223.75 159.09 224.56 159.51 225.13 157.51 228.08 157.23 229.18 158.33 230.63 157.92 232.48 158.75 234.96 157.92 236.74 158.26 237.87 157.6 237.87 155.65 240.57 153.06"/><polygon class="cls-5" points="265.28 196.56 264.99 195.65 265.45 193.78 265.92 192.21 264.99 190.56 264.99 189.76 262.33 188.56 262.52 189.12 261.69 189.12 261.02 187.97 258.6 189.6 259.01 190.43 258.46 192.63 259.28 193.78 260.45 193.78 260.45 195.65 259.01 195.31 256.95 193.35 255.37 193.66 253.51 192.63 252.25 192.93 252.48 195.31 249.32 194.89 249.32 199.84 251.2 201.44 253.89 201.96 253.99 201.7 255.98 202.31 258.66 199.98 259.01 199.08 260.94 198.71 261.15 197.98 265.28 196.56"/><polygon class="cls-4" points="274.19 192.63 271.1 193.14 267.98 193.14 267.98 196.05 268.7 197.16 268.7 199.36 267.5 201.28 266.45 199.15 266.95 197.64 265.45 197.09 265.28 196.56 261.15 197.98 260.94 198.71 261.15 198.67 261.15 199.36 264.37 200.39 264.37 204.38 263.58 206.16 263.58 207.19 262.18 208.71 262.52 212.55 263.03 214.2 263.58 214.61 263.89 213.93 263.75 213.17 267.6 211.11 267.6 208.29 266.91 204.65 274.95 198.88 275.43 196.4 275.43 191.5 274.19 192.63"/><polygon class="cls-5" points="277.43 161.68 279.02 161.31 279.5 160.56 279.21 160.26 279.27 159.21 278.29 159.5 278.08 159.25 277.84 160.32 277.43 161.68"/><polygon class="cls-4" points="272.55 151.12 270.83 149.67 269.95 145.41 253.82 145.41 253.72 148.3 252.26 148.85 252.06 148.75 252.48 154.49 251.1 154.49 250 157.23 249.66 158.75 250.76 160.94 251.78 163.79 253.89 162.42 257.62 162.42 259.56 162.32 261.93 161.4 264.37 158.54 266.45 160.9 267.81 161.22 267.83 161.15 269.58 157.92 270.28 156.55 270.28 154.11 270.83 152.22 272.65 151.38 272.55 151.12"/><polygon class="cls-2" points="264.37 158.54 261.93 161.4 259.56 162.32 257.62 162.42 253.89 162.42 251.78 163.79 251.79 163.81 253.37 165.2 254.54 166.44 256.88 168.84 258.32 170.53 260.76 170.22 261.89 171.97 262.52 171.97 262.52 171.32 266.84 170.66 266.77 170.53 268.49 168.84 266.95 166.58 265.92 165.82 265.54 165.2 266.8 164.59 267.81 161.22 266.45 160.9 264.37 158.54"/></g></g></svg>